<svg width="179" height="61" fill="none" xmlns="http://www.w3.org/2000/svg"><path fill-rule="evenodd" clip-rule="evenodd" d="M8.33.014A8.33 8.33 0 000 8.344v43.34c0 4.6 3.73 8.33 8.33 8.33h161.84a8.33 8.33 0 008.33-8.33V8.344a8.33 8.33 0 00-8.33-8.33H8.33zm21.364 8.262a1.39 1.39 0 00-.852 0L12.471 13.55a1.39 1.39 0 00-.917.965 31.43 31.43 0 001.804 21.158A31.547 31.547 0 0028.68 51.096a1.39 1.39 0 001.177 0 31.547 31.547 0 0015.323-15.42 31.43 31.43 0 001.803-21.16 1.39 1.39 0 00-.917-.965L29.694 8.276zm-16.12 10.218c.122-.854.284-1.7.483-2.534l15.211-4.9 15.212 4.9a28.65 28.65 0 01-1.829 18.555A28.767 28.767 0 0129.27 48.292a28.733 28.733 0 01-13.384-13.777 28.65 28.65 0 01-2.312-16.021zm15.955 18.444c5.615 0 10.166-4.552 10.166-10.166 0-5.615-4.551-10.166-10.166-10.166s-10.166 4.551-10.166 10.166c0 5.614 4.551 10.166 10.166 10.166zm2.97-10.1a3.037 3.037 0 100-6.074 3.037 3.037 0 000 6.074zm68.151-11.354c0 .548-.443.999-1.015.999a1.008 1.008 0 01-1.015-1 1.01 1.01 0 011.015-1.006c.572 0 1.015.45 1.015 1.007zm-41.94 10.78h1.893l1.055-3.143h4.44l1.055 3.142h1.901l-4.197-11.625h-1.95L58.71 26.263zm5.148-9.7h.04l1.716 5.107h-3.472l1.716-5.108zm6.493 12.52h1.74v-4.247h.04c.5.983 1.475 1.596 2.675 1.596 2.127 0 3.52-1.7 3.52-4.4v-.007c0-2.707-1.385-4.4-3.544-4.4-1.209 0-2.143.613-2.65 1.62h-.041v-1.458h-1.74v11.295zm3.98-4.15c-1.314 0-2.248-1.144-2.248-2.9v-.008c0-1.765.926-2.909 2.248-2.909 1.361 0 2.223 1.104 2.223 2.909v.008c0 1.788-.854 2.9-2.223 2.9zm7.315 4.15h-1.74V17.787h1.74v1.458h.04c.507-1.007 1.442-1.62 2.65-1.62 2.16 0 3.545 1.693 3.545 4.4v.008c0 2.699-1.393 4.399-3.52 4.399-1.2 0-2.176-.613-2.675-1.596h-.04v4.246zm-.008-7.05c0 1.756.934 2.9 2.247 2.9 1.37 0 2.224-1.112 2.224-2.9v-.008c0-1.805-.862-2.909-2.224-2.909-1.321 0-2.248 1.144-2.248 2.909v.008zM93.1 26.433c2.426 0 4.02-1.676 4.02-4.407v-.017c0-2.715-1.61-4.382-4.027-4.382-2.41 0-4.013 1.675-4.013 4.383v.016c0 2.723 1.587 4.407 4.02 4.407zm.009-1.459c-1.362 0-2.248-1.071-2.248-2.948v-.017c0-1.852.894-2.924 2.232-2.924 1.361 0 2.247 1.072 2.247 2.924v.017c0 1.869-.87 2.948-2.231 2.948zm9.417 1.29h1.74v-4.94c0-1.32.789-2.207 2.014-2.207 1.209 0 1.805.717 1.805 1.99v5.156h1.748v-5.486c0-1.95-1.072-3.15-2.933-3.15-1.281 0-2.151.58-2.594 1.442h-.04v-1.281h-1.74v8.475zm13.075.096a5.824 5.824 0 01-.886.073c-1.676 0-2.482-.71-2.482-2.401v-4.858h-1.216v-1.386h1.216V15.58h1.781v2.208h1.587v1.386h-1.587v4.753c0 .862.387 1.12 1.12 1.12.185 0 .338-.016.467-.032v1.345zm5.075.073c2.054 0 3.36-1.225 3.634-2.57l.016-.09h-1.652l-.024.065c-.218.637-.902 1.169-1.934 1.169-1.385 0-2.264-.935-2.296-2.538h6.002v-.588c0-2.546-1.458-4.254-3.835-4.254-2.376 0-3.907 1.772-3.907 4.423v.008c0 2.675 1.507 4.375 3.996 4.375zm-.081-7.38c1.136 0 1.958.717 2.103 2.183h-4.254c.153-1.418 1.024-2.183 2.151-2.183zm11.231 5.776c-.508.991-1.442 1.604-2.659 1.604-2.159 0-3.545-1.708-3.545-4.407v-.008c0-2.7 1.402-4.391 3.529-4.391 1.2 0 2.167.604 2.675 1.603h.032v-4.592h1.748v11.625h-1.748V24.83h-.032zm-4.423-2.803c0 1.804.846 2.908 2.223 2.908 1.314 0 2.24-1.144 2.24-2.908v-.008c0-1.757-.934-2.9-2.24-2.9-1.369 0-2.223 1.111-2.223 2.9v.008zM59.572 44.263h1.804V39.8h2.482l2.368 4.463h2.079l-2.602-4.737c1.393-.475 2.255-1.732 2.255-3.311v-.016c0-2.184-1.498-3.561-3.875-3.561h-4.511v11.625zm1.804-5.945v-4.166h2.482c1.385 0 2.24.774 2.24 2.063v.016c0 1.321-.798 2.087-2.192 2.087h-2.53zm15.565 3.544c-.274 1.346-1.579 2.57-3.633 2.57-2.49 0-3.997-1.7-3.997-4.374v-.008c0-2.65 1.531-4.423 3.908-4.423s3.835 1.708 3.835 4.254v.588h-6.002c.032 1.603.91 2.538 2.296 2.538 1.031 0 1.716-.532 1.933-1.169l.025-.064h1.651l-.016.088zm-1.611-2.626c-.145-1.466-.967-2.183-2.103-2.183-1.128 0-1.998.765-2.151 2.183h4.254zm3.302 7.847h1.74v-4.246h.04c.5.983 1.475 1.596 2.676 1.596 2.127 0 3.52-1.7 3.52-4.4v-.007c0-2.707-1.385-4.4-3.544-4.4-1.209 0-2.143.613-2.651 1.62h-.04v-1.458h-1.74v11.295zm3.98-4.149c-1.313 0-2.247-1.144-2.247-2.9v-.008c0-1.765.926-2.909 2.247-2.909 1.362 0 2.224 1.104 2.224 2.909v.008c0 1.788-.854 2.9-2.224 2.9zm7.315 1.33h-1.74v-8.476h1.676v1.402h.04c.258-.967 1.015-1.563 2.014-1.563.24 0 .45.037.588.061l.016.003v1.62c-.136-.057-.443-.097-.781-.097-1.12 0-1.813.75-1.813 1.95v5.1zm7.146.169c2.054 0 3.359-1.225 3.633-2.57l.017-.09h-1.652l-.024.065c-.218.637-.903 1.169-1.934 1.169-1.386 0-2.264-.935-2.296-2.538h6.002v-.588c0-2.546-1.458-4.254-3.835-4.254-2.376 0-3.907 1.772-3.907 4.423v.008c0 2.675 1.506 4.375 3.996 4.375zm3.432-18.17h-1.74v-8.475h1.74v8.475zm-3.513 10.79c1.136 0 1.958.717 2.103 2.183h-4.254c.153-1.418 1.023-2.183 2.151-2.183zm12.028 4.77c0 1.546-1.45 2.61-3.448 2.61-2.119 0-3.36-1.048-3.537-2.595l-.008-.072h1.724l.016.08c.161.782.742 1.241 1.813 1.241 1.047 0 1.676-.435 1.676-1.12v-.008c0-.548-.306-.862-1.217-1.08l-1.385-.314c-1.612-.37-2.409-1.144-2.409-2.376v-.008c0-1.515 1.321-2.554 3.271-2.554 2.006 0 3.214 1.12 3.303 2.562l.008.096h-1.636l-.008-.056c-.104-.741-.684-1.257-1.667-1.257-.935 0-1.523.443-1.523 1.12v.008c0 .524.346.878 1.257 1.096l1.377.314c1.733.403 2.393 1.088 2.393 2.304v.008zm5.196 2.61c2.055 0 3.36-1.225 3.634-2.57l.016-.09h-1.652l-.024.065c-.217.637-.902 1.169-1.933 1.169-1.386 0-2.264-.935-2.297-2.538h6.003v-.588c0-2.546-1.459-4.254-3.835-4.254-2.377 0-3.908 1.772-3.908 4.423v.008c0 2.675 1.507 4.375 3.996 4.375zm-.08-7.38c1.136 0 1.957.717 2.102 2.183h-4.253c.153-1.418 1.023-2.183 2.151-2.183zm7.145 7.21h-1.74v-8.475h1.74v1.28h.041c.443-.861 1.313-1.441 2.594-1.441 1.861 0 2.932 1.2 2.932 3.15v5.486H125.1v-5.156c0-1.273-.596-1.99-1.805-1.99-1.224 0-2.014.886-2.014 2.208v4.938zm10.449.17a5.7 5.7 0 00.886-.073v-1.345a3.61 3.61 0 01-.467.032c-.733 0-1.12-.258-1.12-1.12v-4.753h1.587v-1.386h-1.587V33.58h-1.78v2.208h-1.217v1.386h1.217v4.858c0 1.692.805 2.4 2.481 2.4zm7.508-1.507c-.491.91-1.474 1.49-2.594 1.49-1.692 0-2.828-1.039-2.828-2.561v-.017c0-1.474 1.144-2.376 3.15-2.497l2.305-.137v-.637c0-.934-.605-1.498-1.684-1.498-1.007 0-1.628.475-1.773 1.152l-.016.073h-1.643l.008-.09c.121-1.457 1.385-2.577 3.472-2.577 2.071 0 3.384 1.095 3.384 2.795v5.841h-1.748v-1.337h-.033zm-3.665-1.128v.016c0 .741.612 1.209 1.546 1.209 1.225 0 2.152-.83 2.152-1.934v-.66l-2.071.128c-1.047.065-1.627.524-1.627 1.241zm10.336 2.635c.354 0 .685-.04.886-.073v-1.345a3.623 3.623 0 01-.467.032c-.734 0-1.12-.258-1.12-1.12v-4.753h1.587v-1.386h-1.587V33.58h-1.781v2.208h-1.216v1.386h1.216v4.858c0 1.692.806 2.4 2.482 2.4zm4.511-10.95c0 .549-.443 1-1.015 1a1.007 1.007 0 01-1.015-1c0-.555.451-1.006 1.015-1.006.572 0 1.015.45 1.015 1.007zm4.205 10.78h1.869l3.037-8.475h-1.812l-2.127 6.776h-.041l-2.127-6.776h-1.853l3.054 8.475zm13.059-2.4c-.274 1.345-1.579 2.57-3.634 2.57-2.489 0-3.996-1.7-3.996-4.375v-.008c0-2.65 1.531-4.423 3.908-4.423s3.835 1.708 3.835 4.254v.588h-6.002c.032 1.603.91 2.538 2.296 2.538 1.031 0 1.716-.532 1.933-1.169l.025-.064h1.651l-.016.088zm-1.611-2.627c-.145-1.466-.967-2.183-2.103-2.183-1.128 0-1.998.765-2.151 2.183h4.254zm-15.798 5.027h-1.74v-8.475h1.74v8.475z" fill="#E3E3E3"/></svg>