<svg width="54" height="27" fill="none" xmlns="http://www.w3.org/2000/svg"><path d="M.703.8h5.76V26H.703V.8zm18.558 25.704c-2.568 0-4.716-.552-6.444-1.656-1.704-1.128-2.916-2.652-3.636-4.572l4.968-2.88c1.008 2.328 2.772 3.492 5.292 3.492 2.28 0 3.42-.684 3.42-2.052 0-.744-.372-1.32-1.116-1.728-.72-.432-2.088-.924-4.104-1.476-1.056-.288-1.98-.612-2.772-.972a12.594 12.594 0 01-2.34-1.404 6.092 6.092 0 01-1.728-2.232c-.384-.888-.576-1.908-.576-3.06 0-2.328.828-4.188 2.484-5.58C14.39.992 16.381.296 18.685.296c2.064 0 3.888.492 5.472 1.476 1.584.96 2.832 2.364 3.744 4.212l-4.86 2.844c-.456-.96-1.02-1.68-1.692-2.16-.672-.504-1.56-.756-2.664-.756-.864 0-1.536.192-2.016.576-.456.36-.684.804-.684 1.332 0 .624.288 1.164.864 1.62.6.456 1.824.96 3.672 1.512 1.008.312 1.788.564 2.34.756.552.192 1.248.516 2.088.972.864.432 1.512.9 1.944 1.404.456.48.852 1.128 1.188 1.944.36.792.54 1.704.54 2.736 0 2.4-.864 4.296-2.592 5.688-1.728 1.368-3.984 2.052-6.768 2.052zM47.168 26l-1.26-3.96h-9.36L35.288 26h-6.3L37.556.8H44.9L53.468 26h-6.3zm-8.892-9.36h5.904l-2.952-9.252-2.952 9.252z" fill="#fff"/></svg>