<svg width="109" height="37" viewBox="0 0 109 37" fill="none" xmlns="http://www.w3.org/2000/svg">
<mask id="mask0" mask-type="alpha" maskUnits="userSpaceOnUse" x="0" y="0" width="109" height="37">
<rect x="0.813721" y="0.000976562" width="107.373" height="36.0641" rx="4.98971" fill="#C4C4C4"/>
</mask>
<g mask="url(#mask0)">
<path d="M48.8309 36.0869H0.813721V0.000976562H48.8309V36.0869ZM6.15503 26.407C6.59587 26.5926 7.07176 26.6802 7.54979 26.6638C10.3475 26.6638 12.5605 24.8784 14.1274 21.3594L15.9183 17.0153H18.7515L19.3785 15.7859H16.3568L16.4716 15.5126C17.4961 13.0537 18.8171 11.801 20.399 11.801C20.8428 11.8264 21.2779 11.9348 21.6817 12.1207L22.6175 10.7C22.1032 10.4823 21.5516 10.3668 20.9932 10.3598C18.1955 10.3598 15.9811 12.1453 14.4143 15.6684L14.361 15.7859H9.19043L8.56204 17.0153H13.8583L13.1752 18.6409H7.04161L6.41459 19.8554H12.7285L12.0455 21.5124C11.021 23.9713 9.70817 25.224 8.14812 25.224C7.7114 25.2003 7.28311 25.0942 6.88588 24.9112L6.15503 26.407ZM38.483 16.2189C37.7043 15.861 37.0322 15.6816 36.4666 15.6807C35.7119 15.6616 34.9721 15.8931 34.3629 16.3391C34.083 16.5365 33.8525 16.7959 33.6895 17.0971C33.5264 17.3983 33.4352 17.7331 33.423 18.0754C33.4036 18.3783 33.4679 18.6808 33.6088 18.9497C33.762 19.2371 33.9949 19.4743 34.2796 19.6327L35.2727 20.1982C35.543 20.343 35.7902 20.5271 36.0063 20.7447C36.0737 20.8179 36.1254 20.9042 36.1583 20.9981C36.1912 21.0921 36.2045 21.1918 36.1975 21.2911C36.1931 21.4734 36.1481 21.6525 36.0659 21.8153C35.9836 21.978 35.8662 22.1205 35.7221 22.2323C35.4094 22.4721 35.0231 22.5957 34.6293 22.582C34.3172 22.5669 34.0118 22.4859 33.7331 22.3443C33.442 22.2225 33.1764 22.0469 32.9504 21.8266L32.1567 23.1339C32.8031 23.5462 33.5567 23.7586 34.3233 23.7445C35.2522 23.7445 36.035 23.5027 36.6634 23.0178C36.972 22.7866 37.2242 22.4883 37.4007 22.1454C37.5772 21.8025 37.6736 21.4239 37.6824 21.0384C37.7041 20.7369 37.6407 20.4354 37.4994 20.1682C37.3473 19.8889 37.1151 19.6615 36.8327 19.5152L35.8451 18.9688C35.5693 18.8297 35.3171 18.6481 35.0978 18.4306C35.0284 18.3536 34.9756 18.2632 34.9427 18.165C34.9098 18.0667 34.8975 17.9627 34.9066 17.8595C34.9139 17.7105 34.9576 17.5654 35.0337 17.4371C35.1099 17.3088 35.2164 17.201 35.3437 17.1232C35.6267 16.9358 35.9607 16.8404 36.3 16.85C36.5801 16.8539 36.8567 16.9138 37.1133 17.0262C37.37 17.1386 37.6016 17.3012 37.7945 17.5044L38.483 16.2189ZM32.0201 16.0686C31.6103 15.8118 31.0311 15.6807 30.2852 15.6807C29.6832 15.6718 29.0864 15.7937 28.5362 16.0381C27.9859 16.2824 27.4953 16.6433 27.0982 17.0959C26.2303 18.0385 25.7553 19.2502 25.6734 20.731C25.6215 21.6417 25.8368 22.3703 26.3195 22.9167C26.8022 23.4631 27.5226 23.7363 28.4806 23.7363C29.2061 23.7456 29.9256 23.6047 30.5939 23.3224L30.8289 21.9126C30.2214 22.3269 29.5054 22.553 28.7702 22.5629C28.5433 22.5622 28.3193 22.5115 28.1141 22.4144C27.909 22.3174 27.7277 22.1764 27.5831 22.0014C27.2471 21.6262 27.0973 21.1253 27.1337 20.4988C27.1618 19.5498 27.5039 18.637 28.1063 17.9033C28.3701 17.5694 28.7068 17.3004 29.0906 17.1168C29.4745 16.9333 29.8953 16.8402 30.3207 16.8446C30.9095 16.8446 31.3685 16.9812 31.7032 17.2544L32.0201 16.0686ZM24.9931 16.2189C24.2135 15.861 23.5414 15.6816 22.9768 15.6807C22.2215 15.6613 21.4812 15.8928 20.8716 16.3391C20.5932 16.5374 20.3642 16.7972 20.2024 17.0983C20.0406 17.3994 19.9503 17.7337 19.9386 18.0754C19.9197 18.3785 19.9844 18.6809 20.1258 18.9497C20.279 19.2371 20.5119 19.4743 20.7965 19.6327L21.7896 20.1982C22.0603 20.343 22.308 20.5272 22.5246 20.7447C22.591 20.8185 22.642 20.9049 22.6747 20.9987C22.7073 21.0926 22.7208 21.192 22.7145 21.2911C22.7102 21.4733 22.6654 21.6523 22.5834 21.8151C22.5014 21.9778 22.3843 22.1204 22.2404 22.2323C21.9274 22.4714 21.5413 22.595 21.1476 22.582C20.835 22.5669 20.5292 22.4859 20.2501 22.3443C19.9585 22.2225 19.6925 22.0469 19.466 21.8266L18.6736 23.1339C19.3199 23.5464 20.0737 23.7589 20.8402 23.7445C21.7692 23.7445 22.5492 23.5023 23.1803 23.0178C23.4877 22.7859 23.7385 22.4872 23.9139 22.1444C24.0892 21.8015 24.1845 21.4234 24.1925 21.0384C24.2143 20.7369 24.1508 20.4354 24.0095 20.1682C23.8569 19.8888 23.6243 19.6614 23.3415 19.5152L22.3552 18.9688C22.0792 18.8301 21.8269 18.6484 21.608 18.4306C21.5387 18.3535 21.4858 18.2631 21.4527 18.1649C21.4196 18.0667 21.4069 17.9628 21.4153 17.8595C21.4232 17.7106 21.4671 17.5658 21.5433 17.4376C21.6194 17.3093 21.7255 17.2015 21.8525 17.1232C22.1357 16.9363 22.4695 16.8409 22.8087 16.85C23.0896 16.852 23.3672 16.9103 23.625 17.0215C23.8829 17.1328 24.1159 17.2946 24.31 17.4975L24.9931 16.2189ZM26.7184 5.22617C26.1966 5.22617 25.6747 5.2371 25.1502 5.26306C23.6304 5.32476 22.1171 5.49504 20.6217 5.7726C19.1027 6.04561 17.6171 6.47974 16.1901 7.06763C15.4584 7.37068 14.7576 7.74352 14.0973 8.18097C13.7609 8.40857 13.4413 8.66012 13.1411 8.93367C12.8286 9.21676 12.5486 9.53383 12.3064 9.87899C12.0514 10.2407 11.8571 10.6417 11.7313 11.0661C11.606 11.4968 11.5675 11.9482 11.6179 12.3939C11.6682 12.8203 11.7877 13.2355 11.9717 13.6234C11.9909 13.6644 12.0127 13.704 12.0318 13.7436C12.0482 13.7644 12.0689 13.7814 12.0925 13.7934C12.1161 13.8054 12.142 13.8122 12.1684 13.8133C12.2153 13.814 12.2606 13.7962 12.2944 13.7637C12.3281 13.7312 12.3477 13.6866 12.3488 13.6398C12.3486 13.6162 12.3435 13.5929 12.3337 13.5715C12.3174 13.5318 12.2996 13.4922 12.2832 13.4512C12.141 13.0943 12.0562 12.7172 12.0318 12.3338C12.0112 11.9573 12.0627 11.5804 12.1835 11.2232C12.31 10.8703 12.4932 10.5404 12.7258 10.2465C13.1954 9.66146 13.767 9.16625 14.4129 8.78477C15.0531 8.39815 15.7265 8.06945 16.4251 7.80257C17.1213 7.5343 17.8324 7.30624 18.5548 7.11954C19.2747 6.92966 20.0042 6.77666 20.7405 6.65098C22.2056 6.40584 23.6849 6.25436 25.1693 6.19744C26.6515 6.1469 28.1418 6.1551 29.6227 6.22203C30.3644 6.25345 31.1035 6.31219 31.8398 6.38596C32.5761 6.45973 33.3069 6.55809 34.035 6.69469C35.501 6.93511 36.9298 7.36348 38.2862 7.96923C38.9664 8.28411 39.6108 8.6711 40.2083 9.12355C40.5086 9.35544 40.7925 9.60785 41.058 9.87899C41.3268 10.1541 41.5735 10.4501 41.7957 10.7642C42.2485 11.4074 42.5885 12.1229 42.8011 12.8802C43.0149 13.6555 43.1179 14.4571 43.1071 15.2613C43.0678 16.8764 42.7011 18.4667 42.0293 19.936C41.7055 20.6586 41.3279 21.3559 40.8995 22.0219C40.4757 22.6749 40.0074 23.298 39.4979 23.8866C38.9999 24.4647 38.4622 25.0075 37.8887 25.5109C37.6073 25.7622 37.3177 26.0013 37.0226 26.228C36.7276 26.4548 36.427 26.6747 36.1197 26.8783C34.9261 27.6906 33.6116 28.3093 32.225 28.7116L31.975 28.7799C31.9013 28.799 31.7851 28.8277 31.7155 28.8427C31.5488 28.8809 31.3794 28.9151 31.2114 28.9424C30.8735 29.0022 30.5323 29.041 30.1896 29.0585C29.8481 29.0722 29.5065 29.0763 29.1596 29.0585C28.8126 29.0408 28.4765 28.9971 28.1282 28.9438C26.718 28.6906 25.3551 28.2221 24.0874 27.5545C22.7588 26.8671 21.497 26.0576 20.3184 25.1366L20.3061 25.1229C20.2992 25.1191 20.2928 25.1146 20.287 25.1092C20.2628 25.0892 20.2324 25.0781 20.2009 25.0778C20.1647 25.0778 20.1299 25.0922 20.1043 25.1178C20.0787 25.1435 20.0643 25.1782 20.0643 25.2144C20.0647 25.2446 20.0758 25.2737 20.0957 25.2964C21.0889 26.5846 22.4686 27.8673 24.1434 29.0107L24.1352 29.0025C25.2516 29.7675 26.4956 30.3272 27.8085 30.6555C28.2 30.7518 28.5975 30.8216 28.9984 30.8645C29.4014 30.911 29.8072 30.9288 30.2128 30.9177C30.6214 30.9078 31.0289 30.8713 31.4327 30.8085C31.6349 30.7743 31.8425 30.7347 32.0365 30.6882C32.1526 30.6609 32.2195 30.6445 32.3288 30.6158L32.6266 30.5352C34.1961 30.0627 35.6618 29.2969 36.9461 28.2785C38.251 27.2501 39.3932 26.0306 40.334 24.6612C40.8116 23.9745 41.242 23.2561 41.6222 22.511C42.0081 21.7653 42.34 20.9928 42.6153 20.1996C43.1377 18.7181 43.4145 17.1613 43.4349 15.5905V15.5331C43.4349 15.4421 43.4349 15.3478 43.4349 15.2504C43.4181 14.4152 43.2923 13.5858 43.0606 12.7832C42.8278 11.9987 42.4713 11.2562 42.0047 10.5839C41.5501 9.93421 41.0066 9.35158 40.39 8.85307C39.7897 8.36308 39.14 7.93685 38.4515 7.58127C37.0926 6.88645 35.6527 6.36289 34.1648 6.02259C33.4271 5.845 32.6826 5.70566 31.934 5.59091C31.1854 5.47616 30.4314 5.3983 29.6814 5.33682C28.9314 5.27535 28.1787 5.2453 27.4192 5.23164C27.2156 5.23164 27.0094 5.23164 26.8099 5.23164L26.7184 5.22617Z" fill="#E3E3E3"/>
</g>
<path fill-rule="evenodd" clip-rule="evenodd" d="M103.197 0H48.3527V36.0641H103.197C105.952 36.0641 108.186 33.8301 108.186 31.0744V4.98971C108.186 2.23397 105.952 0 103.197 0ZM51.8085 19.305C51.9399 19.309 52.0714 19.313 52.1989 19.313C54.1433 19.313 55.5139 18.2452 55.5298 16.1892C55.5298 15.7271 55.4342 15.2649 55.2111 14.8346C54.5577 13.5277 53.2986 13.3205 51.9758 13.3205C51.3542 13.3205 50.7167 13.3843 50.143 13.4958V22.883H51.418V19.297C51.5454 19.297 51.6768 19.301 51.8083 19.305L51.8085 19.305ZM51.4021 14.4202C51.6571 14.3883 51.9439 14.3724 52.2149 14.3724C53.5217 14.3724 54.207 14.9939 54.207 16.3327C54.207 17.6077 53.4739 18.277 52.1989 18.277C51.9439 18.277 51.6571 18.2611 51.4021 18.2452V14.4202ZM60.0401 17.242C59.8807 17.1942 59.6417 17.1942 59.4186 17.1942H59.4185C58.8129 17.1942 58.287 17.5608 57.9523 18.0708V22.8998H56.7889V16.3336H57.7132L57.8407 17.0189C58.2073 16.493 58.8607 16.1583 59.5142 16.1583C59.7214 16.1583 59.9126 16.1902 60.1357 16.2539L60.0401 17.242ZM60.4226 19.5526C60.4226 21.5448 61.5222 23.0589 63.61 23.0589C65.666 23.0589 66.8294 21.497 66.8135 19.5526C66.8135 17.6402 65.6819 16.0942 63.6419 16.0942C61.6338 16.0942 60.4226 17.6242 60.4226 19.5526ZM61.6976 19.5686C61.6976 18.3414 62.2713 17.0186 63.6579 17.0186C65.0444 17.0186 65.5544 18.3573 65.5703 19.5686C65.5703 20.7798 65.0125 22.1504 63.626 22.1504C62.2394 22.1504 61.6976 20.7798 61.6976 19.5686ZM70.2083 23.0588C69.3637 23.0588 68.8218 22.7241 68.5349 22.0707C68.3915 21.7519 68.3437 21.2419 68.3437 20.4132V17.1141H67.3874V16.3332H68.3437V15.0901L69.523 14.6279V16.3332H71.3558V17.1141H69.523V20.5088C69.523 21.0028 69.5708 21.3853 69.6505 21.6085C69.778 21.9432 70.033 22.1344 70.4633 22.1344C70.814 22.1344 71.1965 21.975 71.6586 21.6563L71.834 22.501C71.308 22.8675 70.7661 23.0588 70.2083 23.0588ZM76.6788 19.843C77.0489 19.8466 77.4261 19.8502 77.8104 19.8395C77.8405 19.5685 77.8564 19.2975 77.8715 19.04V19.0399L77.8741 18.9948C77.8741 17.9908 77.5395 17.0664 76.6948 16.5086C76.2804 16.2536 75.8023 16.0942 75.2763 16.0942C73.2682 16.0942 72.1845 17.672 72.1845 19.5367C72.1845 21.497 73.2364 23.0589 75.3242 23.0589C76.2007 23.0589 77.0135 22.8358 77.7307 22.2939L77.5873 21.3376C76.9338 21.8636 76.2485 22.1186 75.4835 22.1186C74.1767 22.1186 73.5073 21.0508 73.4595 19.8395H76.137C76.3157 19.8395 76.4962 19.8413 76.6784 19.843L76.6788 19.843ZM73.4754 18.9311C73.571 17.943 74.097 17.0505 75.1807 17.0505C76.137 17.0505 76.631 17.8952 76.631 18.8036C76.631 18.8275 76.627 18.8474 76.6231 18.8673C76.6191 18.8873 76.6151 18.9072 76.6151 18.9311H73.4754ZM81.9699 23.0589C80.0256 23.0589 78.7187 21.5767 78.7187 19.6802C78.7187 17.6242 80.0574 16.0942 82.1293 16.0942C82.8465 16.0942 83.5318 16.2695 84.1374 16.7158L83.8983 17.6083C83.3405 17.2417 82.7827 17.0345 82.1612 17.0345C80.7746 17.0345 79.9618 18.2139 79.9618 19.5208C79.9618 20.8436 80.663 22.1186 82.1134 22.1186C82.7668 22.1186 83.3883 21.9273 83.978 21.5448L84.2012 22.4214C83.5158 22.8358 82.7509 23.0589 81.9699 23.0589ZM85.8429 22.0707C86.1298 22.7241 86.6717 23.0588 87.5164 23.0588C88.0901 23.0588 88.6161 22.8675 89.142 22.501L88.9667 21.6563C88.5045 21.975 88.122 22.1344 87.7714 22.1344C87.3411 22.1344 87.0861 21.9432 86.9586 21.6085C86.8789 21.3853 86.8311 21.0028 86.8311 20.5088V17.1141H88.6639V16.3332H86.8311V14.6279L85.6517 15.0901V16.3332H84.6954V17.1141H85.6517V20.4132C85.6517 21.2419 85.6995 21.7519 85.8429 22.0707ZM95.1024 19.8395C94.7181 19.8502 94.3409 19.8466 93.9709 19.843L93.9704 19.843C93.7882 19.8413 93.6077 19.8395 93.429 19.8395H90.7515C90.7993 21.0508 91.4687 22.1186 92.7755 22.1186C93.5405 22.1186 94.2258 21.8636 94.8793 21.3376L95.0227 22.2939C94.3055 22.8358 93.4927 23.0589 92.6162 23.0589C90.5284 23.0589 89.4765 21.497 89.4765 19.5367C89.4765 17.672 90.5602 16.0942 92.5684 16.0942C93.0943 16.0942 93.5724 16.2536 93.9868 16.5086C94.8315 17.0664 95.1662 17.9908 95.1662 18.9948L95.1635 19.04C95.1484 19.2976 95.1325 19.5686 95.1024 19.8395ZM92.4727 17.0505C91.389 17.0505 90.8631 17.943 90.7674 18.9311H93.9071C93.9071 18.9072 93.9111 18.8873 93.9151 18.8674L93.9151 18.8673L93.9151 18.8673C93.9191 18.8474 93.923 18.8275 93.923 18.8036C93.923 17.8952 93.4449 17.0505 92.4727 17.0505ZM100.745 22.31L100.888 22.8837V22.8997H101.78V13.1141H100.617V16.6362C100.235 16.3653 99.5971 16.1581 99.0233 16.1581C97.4455 16.1581 95.9793 17.5925 95.9793 19.6644C95.9793 21.6247 97.0789 23.075 98.848 23.075C99.4696 23.075 100.235 22.804 100.745 22.31ZM99.1508 17.0984C99.7405 17.0984 100.314 17.3375 100.617 17.5766V21.3856C100.282 21.7522 99.6608 22.0709 99.0233 22.0709C97.9555 22.0709 97.2383 21.1784 97.2383 19.5687C97.2383 17.8634 98.2583 17.0984 99.1508 17.0984Z" fill="#E3E3E3"/>
</svg>
