<svg width="109" height="37" fill="none" xmlns="http://www.w3.org/2000/svg"><path fill-rule="evenodd" clip-rule="evenodd" d="M5.072 0A5.072 5.072 0 000 5.072v26.392a5.072 5.072 0 005.072 5.072h98.856A5.072 5.072 0 00109 31.464V5.072A5.072 5.072 0 00103.928 0H5.072zm28.976 14.057l-.57 1.641h-.992l2.23-6.2h1.082l2.23 6.2h-.992l-.566-1.64h-2.422zm1.186-3.433l-.914 2.646h1.877l-.914-2.646h-.049zm4.54 5.074h-.935v-6.2h2.21c1.438 0 2.146.802 2.146 1.944 0 .832-.378 1.465-1.138 1.746l1.374 2.51h-1.065l-1.26-2.346h-1.332v2.346zm0-5.398v2.247h1.187c.911 0 1.293-.406 1.293-1.105 0-.703-.382-1.142-1.305-1.142h-1.175zm5.41 5.398h-.936v-6.2h3.845v.805h-2.91v1.89h2.635v.802h-2.634v2.703zm10.199-2.304c0 1.438-.857 2.398-2.168 2.398-1.31 0-2.167-.96-2.167-2.398 0-1.447.856-2.406 2.167-2.406s2.168.96 2.168 2.406zm-3.421-.003c0 .893.4 1.641 1.256 1.641.851 0 1.25-.748 1.25-1.64 0-.89-.399-1.648-1.25-1.648-.856 0-1.256.757-1.256 1.647zm5.557-2.343h1.002v.727H57.52v3.923h-.908v-3.923h-.718v-.727h.718v-.539c0-.872.645-1.302 1.38-1.302.367 0 .63.076.757.125l-.212.732a1.242 1.242 0 00-.405-.07c-.442 0-.612.225-.612.636v.418zm5.03 4.65h-.936v-6.2h2.21c1.438 0 2.147.802 2.147 1.944 0 .832-.379 1.465-1.138 1.746l1.374 2.51H65.14l-1.26-2.346h-1.33v2.346zm0-5.398v2.247h1.187c.91 0 1.292-.406 1.292-1.105 0-.703-.381-1.142-1.305-1.142H62.55zm5.306 5.398h-.905v-4.65h.905v4.65zm.124-5.906c0 .296-.26.539-.572.539-.314 0-.572-.243-.572-.54 0-.296.258-.541.572-.541.312 0 .573.245.573.542zm2.734 1.196c1.006 0 1.572.472 1.76 1.195l-.821.146c-.106-.312-.366-.624-.93-.624-.514 0-.902.254-.899.611-.003.315.218.488.73.61l.739.169c.853.196 1.271.602 1.271 1.259 0 .842-.778 1.438-1.901 1.438-1.044 0-1.729-.463-1.88-1.287l.875-.133c.109.457.457.69.999.69.593 0 .978-.281.978-.641 0-.291-.21-.49-.657-.59l-.787-.173c-.872-.194-1.272-.633-1.272-1.293 0-.824.745-1.377 1.795-1.377zm3.665 4.71h-.905v-6.2h.905v3.518h.08l1.852-1.968h1.084l-1.883 1.995 2.01 2.655H76.41l-1.58-2.1-.452.45v1.65zm8.112-4.571h-.902c-.067-.572-.572-.905-1.284-.905-.763 0-1.244.39-1.244.917-.003.593.642.82 1.126.944l.605.158c.788.194 1.784.627 1.784 1.744 0 1.05-.839 1.816-2.295 1.816-1.39 0-2.259-.693-2.32-1.816h.94c.054.675.653.996 1.374.996.796 0 1.374-.4 1.374-1.005 0-.551-.511-.77-1.174-.945l-.733-.2c-.996-.27-1.614-.775-1.614-1.638 0-1.068.954-1.78 2.198-1.78 1.26 0 2.138.72 2.165 1.714zm3.772 3.935c-.172.349-.605.74-1.374.74-.884 0-1.571-.503-1.571-1.418 0-1.056.902-1.286 1.783-1.39l.27-.03c.64-.07.904-.098.904-.39v-.021c0-.527-.3-.833-.884-.833-.608 0-.947.318-1.08.648l-.851-.194c.303-.847 1.078-1.186 1.92-1.186.738 0 1.804.269 1.804 1.622v3.088h-.884v-.636h-.037zm-2.058-.666c0 .448.369.678.88.678.754 0 1.193-.502 1.193-1.053v-.6c-.118.119-.7.194-1.027.237l-.093.012c-.523.07-.953.242-.953.726zm6.939-3.348h.972l-1.687 4.65h-.969l-1.689-4.65h.972l1.178 3.578h.048l1.175-3.578zm5.512 3.488c-.206.757-.923 1.256-1.938 1.256-1.37 0-2.213-.945-2.213-2.389 0-1.428.854-2.415 2.15-2.415 1.053 0 2.059.657 2.059 2.337v.32h-3.306c.024.897.545 1.4 1.32 1.4.514 0 .908-.225 1.071-.664l.857.155zm-1.995-2.8c-.736 0-1.214.571-1.25 1.231h2.416c-.003-.711-.464-1.232-1.166-1.232zM34.58 22.302h-1.93v-.805h4.798v.805h-1.935v5.395h-.932v-5.395zm7.037 4.233c-.206.756-.923 1.256-1.937 1.256-1.372 0-2.213-.945-2.213-2.389 0-1.429.854-2.415 2.15-2.415 1.053 0 2.058.657 2.058 2.337v.32h-3.306c.024.897.545 1.4 1.32 1.4.514 0 .908-.225 1.072-.664l.856.155zm-1.995-2.8c-.735 0-1.214.572-1.25 1.231h2.416c-.003-.711-.463-1.232-1.166-1.232zm6.84 2.49c-.099.906-.81 1.566-1.91 1.566-1.35 0-2.167-.996-2.167-2.398 0-1.42.848-2.406 2.159-2.406 1.056 0 1.822.623 1.919 1.562h-.881c-.097-.436-.448-.8-1.023-.8-.757 0-1.26.627-1.26 1.623 0 1.014.494 1.653 1.26 1.653.517 0 .908-.297 1.023-.8h.88zm2.903-2.454c-.645 0-1.114.423-1.114 1.165v2.761h-.905v-6.2h.893v2.307h.057c.218-.503.654-.817 1.378-.817.956 0 1.592.593 1.592 1.752v2.958h-.905V24.85c0-.68-.372-1.077-.996-1.077zm5.013 0c-.63 0-1.084.423-1.084 1.165v2.761h-.905v-4.65h.869v.757h.057c.215-.494.672-.817 1.372-.817.95 0 1.583.602 1.583 1.752v2.958h-.905V24.85c0-.675-.373-1.077-.987-1.077zm7.147 1.622c0 1.438-.857 2.398-2.168 2.398-1.31 0-2.167-.96-2.167-2.398 0-1.447.857-2.406 2.167-2.406 1.311 0 2.168.96 2.168 2.406zm-3.42-.003c0 .893.399 1.641 1.255 1.641.851 0 1.25-.748 1.25-1.64 0-.89-.399-1.648-1.25-1.648-.856 0-1.256.757-1.256 1.647zm4.345-3.893h.905v6.2h-.905v-6.2zm6.164 3.896c0 1.438-.857 2.398-2.167 2.398-1.311 0-2.168-.96-2.168-2.398 0-1.447.857-2.406 2.168-2.406 1.31 0 2.167.96 2.167 2.406zm-3.42-.003c0 .893.399 1.641 1.256 1.641.85 0 1.25-.748 1.25-1.64 0-.89-.4-1.648-1.25-1.648-.857 0-1.257.757-1.257 1.647zm8.393 2.41c0 1.187-.914 1.729-2.098 1.729-1.111 0-1.732-.485-1.977-1.045l.778-.32c.16.257.454.635 1.208.635.687 0 1.187-.318 1.187-1.035v-.915h-.058c-.163.297-.493.778-1.347.778-1.099 0-1.944-.79-1.944-2.273 0-1.48.827-2.367 1.95-2.367.866 0 1.187.526 1.347.814h.067v-.754h.887V27.8zm-3.336-2.458c0 .914.42 1.535 1.229 1.535.781 0 1.214-.576 1.214-1.535 0-.942-.424-1.587-1.214-1.587-.818 0-1.23.694-1.23 1.587zm5.37 2.355h-.905v-4.65h.905v4.65zm.124-5.906c0 .296-.26.539-.572.539-.315 0-.572-.243-.572-.54 0-.296.257-.541.572-.541.312 0 .572.245.572.542zm4.95 4.744c-.206.756-.923 1.256-1.937 1.256-1.372 0-2.213-.945-2.213-2.389 0-1.429.853-2.415 2.149-2.415 1.053 0 2.059.657 2.059 2.337v.32h-3.306c.024.897.545 1.4 1.32 1.4.514 0 .908-.225 1.071-.664l.857.155zm-1.995-2.8c-.736 0-1.214.572-1.25 1.231h2.416c-.004-.711-.464-1.232-1.166-1.232zm4.697-.748c1.005 0 1.572.472 1.76 1.195l-.821.146c-.106-.312-.367-.624-.93-.624-.514 0-.902.254-.899.612-.003.314.218.487.73.608l.739.17c.853.196 1.271.602 1.271 1.259 0 .842-.778 1.438-1.901 1.438-1.045 0-1.729-.463-1.88-1.287l.875-.133c.109.457.457.69.999.69.593 0 .978-.281.978-.641 0-.291-.21-.49-.657-.59l-.787-.173c-.872-.194-1.272-.633-1.272-1.293 0-.823.745-1.377 1.795-1.377zm8.748 4.71h-3.744v-6.2h.935v5.395h2.81v.805zm1.935-4.65h.954v.727h-.954v2.558c0 .524.264.62.557.62.129 0 .232-.021.295-.034l.023-.005.164.748c-.106.04-.3.094-.588.097-.714.015-1.359-.394-1.356-1.239v-2.745h-.681v-.727h.681v-1.114h.905v1.114zm4.905 3.927c-.164.296-.497.814-1.344.814-1.13 0-1.944-.902-1.944-2.407 0-1.508.827-2.395 1.95-2.395.866 0 1.174.527 1.338.815h.054v-2.304h.906v6.2h-.884v-.723h-.076zm-2.373-1.602c0 .932.42 1.644 1.229 1.644.78 0 1.214-.666 1.214-1.644 0-.972-.424-1.617-1.214-1.617-.818 0-1.23.694-1.23 1.617zM12.048 8.201c1.526-.398 3.146-.758 4.117-.758.968 0 2.59.36 4.117.758 1.361.36 2.714.753 4.057 1.176a2.11 2.11 0 011.468 1.71c.838 6.056-1.107 10.545-3.465 13.515a16.284 16.284 0 01-3.539 3.32c-.466.322-.959.605-1.473.846-.396.179-.817.324-1.165.324-.349 0-.77-.145-1.165-.324a10.142 10.142 0 01-1.474-.846 16.285 16.285 0 01-3.538-3.32c-2.36-2.97-4.304-7.459-3.465-13.516.056-.392.223-.761.483-1.064a2.13 2.13 0 01.985-.645 90.432 90.432 0 014.056-1.176zm9.2 8.919a5.166 5.166 0 11-10.332 0 5.166 5.166 0 0110.333 0zm-2.113-1.51a1.543 1.543 0 11-3.086 0 1.543 1.543 0 013.086 0z" fill="#E3E3E3"/></svg>