<svg width="47" height="46" fill="none" xmlns="http://www.w3.org/2000/svg"><path d="M23.5 15.334c9.527 0 17.25-2.575 17.25-5.75 0-3.176-7.723-5.75-17.25-5.75-9.527 0-17.25 2.574-17.25 5.75 0 3.175 7.723 5.75 17.25 5.75z" stroke="url(#paint0_linear)" stroke-width="3" stroke-linecap="round" stroke-linejoin="round"/><path d="M40.75 23c0 3.182-7.667 5.75-17.25 5.75S6.25 26.182 6.25 23" stroke="url(#paint1_linear)" stroke-width="3" stroke-linecap="round" stroke-linejoin="round"/><path d="M6.25 9.584v26.833c0 3.181 7.667 5.75 17.25 5.75s17.25-2.569 17.25-5.75V9.583" stroke="url(#paint2_linear)" stroke-width="3" stroke-linecap="round" stroke-linejoin="round"/><defs><linearGradient id="paint0_linear" x1="4.497" y1="3.833" x2="11.65" y2="25.637" gradientUnits="userSpaceOnUse"><stop stop-color="#23F952"/><stop offset="1" stop-color="#385AD3"/></linearGradient><linearGradient id="paint1_linear" x1="4.497" y1="23" x2="6.426" y2="34.759" gradientUnits="userSpaceOnUse"><stop stop-color="#23F952"/><stop offset="1" stop-color="#385AD3"/></linearGradient><linearGradient id="paint2_linear" x1="4.497" y1="9.584" x2="38.618" y2="46.294" gradientUnits="userSpaceOnUse"><stop stop-color="#23F952"/><stop offset="1" stop-color="#385AD3"/></linearGradient></defs></svg>