<svg width="46" height="46" fill="none" xmlns="http://www.w3.org/2000/svg"><path d="M30.667 7.667H34.5a3.833 3.833 0 013.833 3.833v26.833a3.833 3.833 0 01-3.833 3.834h-23a3.833 3.833 0 01-3.833-3.834V11.5A3.833 3.833 0 0111.5 7.667h3.833" stroke="url(#paint0_linear)" stroke-width="3" stroke-linecap="round" stroke-linejoin="round"/><path d="M28.75 3.833h-11.5a1.917 1.917 0 00-1.917 1.917v3.834c0 1.058.858 1.916 1.917 1.916h11.5a1.917 1.917 0 001.917-1.916V5.75a1.917 1.917 0 00-1.917-1.917z" stroke="url(#paint1_linear)" stroke-width="3" stroke-linecap="round" stroke-linejoin="round"/><defs><linearGradient id="paint0_linear" x1="6.109" y1="7.667" x2="42.147" y2="40.217" gradientUnits="userSpaceOnUse"><stop stop-color="#23F952"/><stop offset="1" stop-color="#385AD3"/></linearGradient><linearGradient id="paint1_linear" x1="14.554" y1="3.833" x2="20.932" y2="16.795" gradientUnits="userSpaceOnUse"><stop stop-color="#23F952"/><stop offset="1" stop-color="#385AD3"/></linearGradient></defs></svg>