<svg width="28" height="28" viewBox="0 0 28 28" fill="none" xmlns="http://www.w3.org/2000/svg">
<path fill-rule="evenodd" clip-rule="evenodd" d="M14 0C6.26801 0 0 6.26801 0 14C0 21.732 6.26801 28 14 28C21.732 28 28 21.732 28 14C28 6.26801 21.732 0 14 0ZM10.9218 6.57849C11.7183 6.54224 11.9728 6.53337 14.0006 6.53337H13.9983C16.0268 6.53337 16.2803 6.54224 17.0768 6.57849C17.8717 6.61489 18.4146 6.74073 18.8906 6.92538C19.3821 7.11594 19.7975 7.37105 20.2128 7.78639C20.6281 8.20141 20.8832 8.618 21.0746 9.10909C21.2581 9.58385 21.3841 10.1264 21.4215 10.9213C21.4573 11.7178 21.4666 11.9723 21.4666 14.0001C21.4666 16.028 21.4573 16.2818 21.4215 17.0783C21.3841 17.8729 21.2581 18.4156 21.0746 18.8905C20.8832 19.3815 20.6281 19.798 20.2128 20.2131C19.7979 20.6284 19.382 20.8841 18.891 21.0749C18.416 21.2595 17.8727 21.3854 17.0779 21.4218C16.2814 21.458 16.0277 21.4669 13.9997 21.4669C11.972 21.4669 11.7177 21.458 10.9212 21.4218C10.1265 21.3854 9.58373 21.2595 9.10866 21.0749C8.61787 20.8841 8.20129 20.6284 7.78642 20.2131C7.37124 19.798 7.11612 19.3815 6.92526 18.8904C6.74077 18.4156 6.61492 17.873 6.57836 17.0781C6.54227 16.2817 6.53325 16.028 6.53325 14.0001C6.53325 11.9723 6.54259 11.7176 6.57821 10.9212C6.61399 10.1266 6.73999 9.58385 6.9251 9.10893C7.11644 8.618 7.37155 8.20141 7.78689 7.78639C8.20191 7.3712 8.6185 7.11609 9.10959 6.92538C9.58435 6.74073 10.1269 6.61489 10.9218 6.57849Z" fill="white"/>
<path fill-rule="evenodd" clip-rule="evenodd" d="M13.3307 7.87882C13.4608 7.87862 13.6007 7.87868 13.7517 7.87875L14.0006 7.87882C15.9942 7.87882 16.2305 7.88598 17.0178 7.92175C17.7458 7.95504 18.1409 8.07669 18.4041 8.17889C18.7525 8.31422 19.001 8.476 19.2621 8.73734C19.5235 8.99868 19.6853 9.24757 19.8209 9.59602C19.9231 9.85891 20.0449 10.254 20.078 10.982C20.1138 11.7691 20.1216 12.0056 20.1216 13.9983C20.1216 15.991 20.1138 16.2274 20.078 17.0145C20.0447 17.7425 19.9231 18.1377 19.8209 18.4006C19.6856 18.749 19.5235 18.9971 19.2621 19.2583C19.0008 19.5196 18.7527 19.6814 18.4041 19.8167C18.1412 19.9194 17.7458 20.0407 17.0178 20.074C16.2306 20.1098 15.9942 20.1176 14.0006 20.1176C12.0068 20.1176 11.7705 20.1098 10.9834 20.074C10.2554 20.0404 9.86026 19.9188 9.5969 19.8166C9.24845 19.6813 8.99956 19.5195 8.73823 19.2581C8.47689 18.9968 8.31511 18.7485 8.17946 18.3999C8.07726 18.137 7.95546 17.7419 7.92233 17.0139C7.88655 16.2268 7.87939 15.9903 7.87939 13.9964C7.87939 12.0025 7.88655 11.7673 7.92233 10.9802C7.95562 10.2522 8.07726 9.85704 8.17946 9.59384C8.3148 9.24539 8.47689 8.9965 8.73823 8.73516C8.99956 8.47383 9.24845 8.31205 9.5969 8.1764C9.8601 8.07373 10.2554 7.9524 10.9834 7.91895C11.6722 7.88784 11.9391 7.87851 13.3307 7.87695V7.87882ZM17.9863 9.11865C17.4916 9.11865 17.0902 9.51952 17.0902 10.0143C17.0902 10.509 17.4916 10.9104 17.9863 10.9104C18.4809 10.9104 18.8823 10.509 18.8823 10.0143C18.8823 9.51968 18.4809 9.11834 17.9863 9.11834V9.11865ZM10.1661 14C10.1661 11.8824 11.8829 10.1656 14.0005 10.1655C16.1181 10.1655 17.8345 11.8824 17.8345 14C17.8345 16.1176 16.1182 17.8337 14.0006 17.8337C11.883 17.8337 10.1661 16.1176 10.1661 14Z" fill="white"/>
<path d="M14.0006 11.5112C15.3751 11.5112 16.4896 12.6255 16.4896 14.0001C16.4896 15.3746 15.3751 16.4891 14.0006 16.4891C12.626 16.4891 11.5117 15.3746 11.5117 14.0001C11.5117 12.6255 12.626 11.5112 14.0006 11.5112Z" fill="white"/>
</svg>
