<svg width="54" height="54" viewBox="0 0 54 54" fill="none" xmlns="http://www.w3.org/2000/svg">
<path d="M27 18C38.1838 18 47.25 14.9779 47.25 11.25C47.25 7.52208 38.1838 4.5 27 4.5C15.8162 4.5 6.75 7.52208 6.75 11.25C6.75 14.9779 15.8162 18 27 18Z" stroke="url(#paint0_linear)" stroke-width="4" stroke-linecap="round" stroke-linejoin="round"/>
<path d="M47.25 27C47.25 30.735 38.25 33.75 27 33.75C15.75 33.75 6.75 30.735 6.75 27" stroke="url(#paint1_linear)" stroke-width="4" stroke-linecap="round" stroke-linejoin="round"/>
<path d="M6.75 11.25V42.75C6.75 46.485 15.75 49.5 27 49.5C38.25 49.5 47.25 46.485 47.25 42.75V11.25" stroke="url(#paint2_linear)" stroke-width="4" stroke-linecap="round" stroke-linejoin="round"/>
<defs>
<linearGradient id="paint0_linear" x1="4.69235" y1="4.5" x2="13.0887" y2="30.0955" gradientUnits="userSpaceOnUse">
<stop stop-color="#23F952"/>
<stop offset="1" stop-color="#385AD3"/>
</linearGradient>
<linearGradient id="paint1_linear" x1="4.69235" y1="27" x2="6.95642" y2="40.8036" gradientUnits="userSpaceOnUse">
<stop stop-color="#23F952"/>
<stop offset="1" stop-color="#385AD3"/>
</linearGradient>
<linearGradient id="paint2_linear" x1="4.69235" y1="11.25" x2="44.7474" y2="54.3453" gradientUnits="userSpaceOnUse">
<stop stop-color="#23F952"/>
<stop offset="1" stop-color="#385AD3"/>
</linearGradient>
</defs>
</svg>
