<svg width="28" height="28" viewBox="0 0 28 28" fill="none" xmlns="http://www.w3.org/2000/svg">
<path fill-rule="evenodd" clip-rule="evenodd" d="M6.72101 11.5954H9.89372V21.128H6.72101V11.5954ZM10.1025 8.64657C10.082 7.7119 9.41356 7 8.3282 7C7.24284 7 6.53326 7.7119 6.53326 8.64657C6.53326 9.56189 7.22186 10.2943 8.28702 10.2943H8.30729C9.41356 10.2943 10.1025 9.56189 10.1025 8.64657ZM17.6826 11.3716C19.7704 11.3716 21.3356 12.7343 21.3356 15.6623L21.3354 21.1281H18.1629V16.0281C18.1629 14.7471 17.7038 13.873 16.5552 13.873C15.6787 13.873 15.1566 14.4622 14.9273 15.0314C14.8434 15.2354 14.8228 15.5196 14.8228 15.8045V21.1283H11.6497C11.6497 21.1283 11.6916 12.4901 11.6497 11.5957H14.8228V12.9459C15.2439 12.2968 15.9981 11.3716 17.6826 11.3716Z" fill="white"/>
</svg>
