<svg width="28" height="28" viewBox="0 0 28 28" fill="none" xmlns="http://www.w3.org/2000/svg">
<path fill-rule="evenodd" clip-rule="evenodd" d="M10.9236 16.7947C10.5531 16.7966 10.197 16.6514 9.93347 16.3909C9.66995 16.1304 9.5206 15.776 9.51821 15.4055C9.51821 14.6269 10.145 14.0001 10.9236 14.0001C11.6914 14.0001 12.3128 14.6269 12.3128 15.4055C12.3128 16.1733 11.686 16.7947 10.9236 16.7947ZM20.5312 11.6743C20.001 11.6743 19.5323 11.8947 19.1872 12.2388C17.9227 11.3636 16.2183 10.7991 14.327 10.7367L15.3088 6.31636L18.4367 7.02178C18.4367 7.78952 19.0635 8.41094 19.8249 8.41094C20.6044 8.41094 21.2303 7.77326 21.2303 7.00552C21.2303 6.23778 20.6035 5.6001 19.8249 5.6001C19.2776 5.6001 18.8088 5.92797 18.5776 6.37958L15.1227 5.61184C14.9529 5.56668 14.7786 5.69132 14.7334 5.86023L13.655 10.7376C11.7808 10.8171 10.0927 11.3753 8.82814 12.2505C8.65236 12.0673 8.4411 11.9218 8.20723 11.8229C7.97337 11.7239 7.72181 11.6737 7.46789 11.6752C5.49795 11.6752 4.85395 14.3225 6.65498 15.2204C6.59144 15.5078 6.55934 15.8012 6.55924 16.0956C6.55924 19.0645 9.90118 21.4698 14.0109 21.4698C18.1377 21.4698 21.4796 19.0645 21.4796 16.0956C21.4796 15.7966 21.4453 15.4859 21.3721 15.2032C23.1389 14.3 22.4894 11.6743 20.5312 11.6743ZM17.0764 14.0001C16.3087 14.0001 15.6872 14.6269 15.6872 15.4055C15.6887 15.6821 15.7721 15.9521 15.927 16.1813C16.0819 16.4104 16.3013 16.5885 16.5575 16.6929C16.8136 16.7974 17.095 16.8235 17.3659 16.768C17.6369 16.7125 17.8854 16.5779 18.0798 16.3812C18.2743 16.1844 18.406 15.9345 18.4583 15.6628C18.5107 15.3912 18.4813 15.1102 18.3739 14.8553C18.2665 14.6004 18.0858 14.3831 17.8549 14.2308C17.6239 14.0786 17.353 13.9983 17.0764 14.0001ZM11.3581 18.2344C12.3462 19.2451 15.615 19.2614 16.6419 18.2344C16.7055 18.175 16.7893 18.1419 16.8763 18.1419C16.9634 18.1419 17.0471 18.175 17.1107 18.2344C17.2516 18.3762 17.2516 18.5957 17.1107 18.7204C15.8173 20.0075 12.1764 20.0075 10.8893 18.7204C10.7484 18.5957 10.7484 18.3753 10.8893 18.2344C10.9529 18.175 11.0367 18.1419 11.1237 18.1419C11.2107 18.1419 11.2945 18.175 11.3581 18.2344Z" fill="white"/>
</svg>
