<svg width="36" height="34" viewBox="0 0 36 34" fill="none" xmlns="http://www.w3.org/2000/svg">
<path d="M9.70559 32.8334H4.68893C3.80193 32.8334 2.95125 32.4998 2.32405 31.9059C1.69684 31.3121 1.34448 30.5066 1.34448 29.6667V18.5834C1.34448 17.7436 1.69684 16.9381 2.32405 16.3442C2.95125 15.7504 3.80193 15.4167 4.68893 15.4167H9.70559M21.4111 12.2501V5.91675C21.4111 4.65697 20.8826 3.44879 19.9418 2.55799C19.001 1.66719 17.725 1.16675 16.3945 1.16675L9.70559 15.4167V32.8334H28.5683C29.3748 32.842 30.1575 32.5744 30.7721 32.0798C31.3867 31.5851 31.7918 30.8968 31.9127 30.1417L34.2204 15.8917C34.2931 15.4379 34.2608 14.9745 34.1256 14.5336C33.9905 14.0928 33.7557 13.685 33.4375 13.3386C33.1194 12.9922 32.7255 12.7155 32.2832 12.5275C31.8409 12.3395 31.3607 12.2449 30.8759 12.2501H21.4111Z" stroke="url(#paint0_linear)" stroke-width="2" stroke-linecap="round" stroke-linejoin="round"/>
<defs>
<linearGradient id="paint0_linear" x1="-0.327739" y1="1.16675" x2="32.8727" y2="36.2311" gradientUnits="userSpaceOnUse">
<stop stop-color="#23F952"/>
<stop offset="1" stop-color="#385AD3"/>
</linearGradient>
</defs>
</svg>
