<svg width="64" height="50" viewBox="0 0 64 50" fill="none" xmlns="http://www.w3.org/2000/svg">
<path opacity="0.04" d="M27.3138 3.56506L24.993 0C8.92608 10.7843 0 23.8859 0 34.6702C0 45.098 7.67643 50 14.1925 50C22.4045 50 28.2064 43.0481 28.2064 35.7397C28.2064 29.59 24.2789 24.3316 19.0126 22.3708C17.4951 21.836 16.0669 21.3904 16.0669 18.8057C16.0669 15.508 18.477 10.6061 27.3138 3.56506ZM62.7503 3.56506L60.4296 0C44.5411 10.7843 35.4365 23.8859 35.4365 34.6702C35.4365 45.098 43.2915 50 49.8075 50C58.1088 50 64 43.0481 64 35.7397C64 29.59 59.9833 24.3316 54.5384 22.3708C53.0209 21.836 51.682 21.3904 51.682 18.8057C51.682 15.508 54.1813 10.6061 62.7503 3.56506Z" fill="white"/>
</svg>
