<svg width="28" height="28" viewBox="0 0 28 28" fill="none" xmlns="http://www.w3.org/2000/svg">
<path fill-rule="evenodd" clip-rule="evenodd" d="M10.9218 6.57856C11.7183 6.54231 11.9728 6.53345 14.0006 6.53345H13.9983C16.0268 6.53345 16.2803 6.54231 17.0768 6.57856C17.8717 6.61496 18.4146 6.74081 18.8906 6.92545C19.3821 7.11601 19.7975 7.37112 20.2128 7.78646C20.6281 8.20149 20.8833 8.61807 21.0746 9.10916C21.2582 9.58392 21.3842 10.1265 21.4215 10.9214C21.4573 11.7179 21.4666 11.9723 21.4666 14.0002C21.4666 16.028 21.4573 16.2819 21.4215 17.0784C21.3842 17.8729 21.2582 18.4157 21.0746 18.8906C20.8833 19.3815 20.6281 19.7981 20.2128 20.2131C19.7979 20.6285 19.382 20.8842 18.891 21.0749C18.416 21.2596 17.8728 21.3854 17.0779 21.4218C16.2814 21.4581 16.0277 21.4669 13.9997 21.4669C11.972 21.4669 11.7177 21.4581 10.9212 21.4218C10.1265 21.3854 9.58374 21.2596 9.10867 21.0749C8.61789 20.8842 8.2013 20.6285 7.78643 20.2131C7.37125 19.7981 7.11614 19.3815 6.92527 18.8904C6.74078 18.4157 6.61493 17.8731 6.57838 17.0782C6.54229 16.2818 6.53326 16.028 6.53326 14.0002C6.53326 11.9723 6.5426 11.7177 6.57822 10.9212C6.614 10.1267 6.74 9.58392 6.92511 9.10901C7.11645 8.61807 7.37156 8.20149 7.7869 7.78646C8.20193 7.37128 8.61851 7.11616 9.1096 6.92545C9.58436 6.74081 10.1269 6.61496 10.9218 6.57856ZM13.7518 7.87893L14.0007 7.87901C15.9943 7.87901 16.2306 7.88616 17.0179 7.92194C17.7459 7.95523 18.141 8.07688 18.4042 8.17908C18.7527 8.31441 19.0011 8.47619 19.2623 8.73753C19.5236 8.99886 19.6854 9.24775 19.821 9.5962C19.9232 9.85909 20.045 10.2542 20.0782 10.9822C20.1139 11.7693 20.1217 12.0058 20.1217 13.9985C20.1217 15.9912 20.1139 16.2276 20.0782 17.0147C20.0449 17.7427 19.9232 18.1378 19.821 18.4007C19.6857 18.7492 19.5236 18.9973 19.2623 19.2585C19.0009 19.5198 18.7528 19.6816 18.4042 19.8169C18.1413 19.9196 17.7459 20.0409 17.0179 20.0742C16.2308 20.11 15.9943 20.1178 14.0007 20.1178C12.0069 20.1178 11.7706 20.11 10.9835 20.0742C10.2555 20.0406 9.86038 19.919 9.59702 19.8168C9.24857 19.6814 8.99968 19.5197 8.73835 19.2583C8.47701 18.997 8.31523 18.7487 8.17958 18.4001C8.07738 18.1372 7.95558 17.7421 7.92245 17.0141C7.88667 16.227 7.87951 15.9905 7.87951 13.9966C7.87951 12.0027 7.88667 11.7675 7.92245 10.9803C7.95574 10.2523 8.07738 9.85723 8.17958 9.59402C8.31492 9.24558 8.47701 8.99668 8.73835 8.73535C8.99968 8.47401 9.24857 8.31223 9.59702 8.17659C9.86022 8.07392 10.2555 7.95258 10.9835 7.91914C11.6723 7.88803 11.9392 7.8787 13.3309 7.87714V7.87901C13.4039 7.87889 13.4801 7.87886 13.5596 7.87887C13.6215 7.87887 13.6858 7.8789 13.7518 7.87893Z" fill="white"/>
<path fill-rule="evenodd" clip-rule="evenodd" d="M14.0006 10.1657C11.8831 10.1657 10.1663 11.8826 10.1663 14.0001C10.1663 16.1177 11.8831 17.8338 14.0007 17.8338C16.1183 17.8338 17.8346 16.1177 17.8346 14.0001C17.8346 11.8825 16.1182 10.1657 14.0006 10.1657ZM16.4897 14.0002C16.4897 12.6255 15.3753 11.5112 14.0008 11.5112C12.6261 11.5112 11.5118 12.6255 11.5118 14.0002C11.5118 15.3747 12.6261 16.4891 14.0008 16.4891C15.3753 16.4891 16.4897 15.3747 16.4897 14.0002Z" fill="white"/>
</svg>
