<svg width="54" height="54" viewBox="0 0 54 54" fill="none" xmlns="http://www.w3.org/2000/svg">
<path d="M33.0749 14.175C32.6627 14.5955 32.4317 15.161 32.4317 15.75C32.4317 16.3389 32.6627 16.9044 33.0749 17.325L36.6749 20.925C37.0955 21.3372 37.661 21.5681 38.2499 21.5681C38.8389 21.5681 39.4043 21.3372 39.8249 20.925L48.3074 12.4425C49.4388 14.9426 49.7814 17.7282 49.2894 20.428C48.7975 23.1278 47.4945 25.6136 45.554 27.5541C43.6136 29.4946 41.1278 30.7976 38.428 31.2895C35.7282 31.7814 32.9426 31.4388 30.4424 30.3075L14.8949 45.855C13.9998 46.7501 12.7858 47.2529 11.5199 47.2529C10.254 47.2529 9.04002 46.7501 8.14492 45.855C7.24981 44.9598 6.74695 43.7458 6.74695 42.48C6.74695 41.2141 7.24981 40.0001 8.14492 39.105L23.6924 23.5575C22.561 21.0573 22.2185 18.2717 22.7104 15.5719C23.2023 12.8721 24.5053 10.3863 26.4458 8.44583C28.3863 6.50535 30.872 5.20233 33.5718 4.71042C36.2716 4.21851 39.0572 4.56108 41.5574 5.69245L33.0974 14.1525L33.0749 14.175Z" stroke="url(#paint0_linear)" stroke-width="4" stroke-linecap="round" stroke-linejoin="round"/>
<defs>
<linearGradient id="paint0_linear" x1="12.4999" y1="-0.999939" x2="35.7259" y2="47.3717" gradientUnits="userSpaceOnUse">
<stop stop-color="#23F952"/>
<stop offset="1" stop-color="#385AD3"/>
</linearGradient>
</defs>
</svg>
