<svg width="153" height="29" viewBox="0 0 153 29" fill="none" xmlns="http://www.w3.org/2000/svg">
<path d="M0.000976562 0.157715H11.1753C13.3037 0.157715 14.9 0.689824 16.0825 1.57667C17.3832 2.64089 18.0927 4.17809 18.0927 6.07003C18.0927 8.25759 17.2058 9.61743 15.4321 10.4452V10.5634C17.7971 11.332 19.1569 13.4604 19.1569 16.0027C19.1569 18.4268 18.2109 20.3187 16.6737 21.5012C15.373 22.4472 13.7176 22.861 11.4709 22.861H0.000976562V0.157715ZM10.0519 9.02619C11.2344 9.02619 12.1212 8.37584 12.1212 7.01601C12.1212 5.7153 11.2344 5.06494 9.99279 5.06494H6.14979V8.96707H10.0519V9.02619ZM10.584 17.8356C11.9439 17.8356 12.949 17.0078 12.949 15.5297C12.949 13.9334 11.8847 13.2239 10.584 13.2239H6.20891V17.8947H10.584V17.8356Z" fill="#5C5C5C"/>
<path d="M20.1646 0.157715H26.0178V22.9201H20.1646V0.157715Z" fill="#5C5C5C"/>
<path d="M27.199 14.8204C27.199 9.6767 30.5099 6.24756 35.6536 6.24756C40.7973 6.24756 44.0491 9.73583 44.0491 14.8204C44.0491 19.9641 40.7973 23.3933 35.6536 23.3933C30.5099 23.3933 27.199 19.9641 27.199 14.8204ZM38.1959 14.8204C38.1959 11.9825 37.309 10.2088 35.5353 10.2088C33.7617 10.2088 32.9339 11.9825 32.9339 14.8204C32.9339 17.6583 33.7617 19.4912 35.5353 19.4912C37.309 19.432 38.1959 17.6583 38.1959 14.8204Z" fill="#5C5C5C"/>
<path d="M44.6991 14.8204C44.6991 9.6767 48.01 6.24756 53.1537 6.24756C58.2974 6.24756 61.4901 9.6767 61.4901 14.8204C61.4901 19.9641 58.2383 23.3933 53.0946 23.3933C48.01 23.3933 44.6991 19.9641 44.6991 14.8204ZM55.696 14.8204C55.696 11.9825 54.8092 10.2088 53.0355 10.2088C51.2618 10.2088 50.434 11.9825 50.434 14.8204C50.434 17.6583 51.2618 19.4912 53.0355 19.4912C54.8092 19.432 55.696 17.6583 55.696 14.8204Z" fill="#5C5C5C"/>
<path d="M62.6718 6.66146H68.1111V9.08551H68.2293C69.2935 7.19357 70.7716 6.18848 73.1366 6.18848C75.2059 6.18848 76.7431 7.19357 77.5117 8.96727H77.6299C78.9306 6.83883 80.6452 6.18848 82.6554 6.18848C86.4393 6.18848 88.0356 8.96727 88.0356 12.692V22.8612H82.3598V13.6971C82.3598 12.0417 81.8277 10.9775 80.4087 10.9775C78.9898 10.9775 78.2803 12.2782 78.2803 14.0519V22.8612H72.6045V13.6971C72.6045 12.0417 72.0723 10.9775 70.6534 10.9775C69.2344 10.9775 68.5249 12.2782 68.5249 14.0519V22.8612H62.6718V6.66146Z" fill="#5C5C5C"/>
<path d="M95.1901 20.7326H95.131V22.861H89.6917V0.157715H95.3675V8.31672H95.4857C96.5499 6.89776 98.028 6.12916 100.097 6.12916C104.177 6.12916 106.542 9.7948 106.542 14.702C106.542 20.2005 103.999 23.3931 99.7426 23.3931C97.9689 23.3931 96.1361 22.5654 95.1901 20.7326ZM100.689 14.6429C100.689 12.0415 99.7426 10.3269 98.028 10.3269C96.2543 10.3269 95.1901 12.0415 95.1901 14.6429C95.1901 17.2443 96.3134 18.9589 98.028 18.9589C99.7426 18.9589 100.689 17.3034 100.689 14.6429Z" fill="#5C5C5C"/>
<path d="M107.192 14.7613C107.192 9.67675 110.562 6.18848 115.41 6.18848C117.834 6.18848 119.667 6.95708 121.086 8.31691C122.978 10.1497 123.806 12.9876 123.746 16.2985H112.868C113.104 18.3087 114.05 19.3729 115.765 19.3729C116.77 19.3729 117.657 18.9 118.011 17.8357H123.51C122.564 21.5605 119.667 23.3933 115.587 23.3933C110.562 23.3342 107.192 19.9051 107.192 14.7613ZM112.868 13.0468H118.071C117.952 11.0957 116.888 10.0906 115.528 10.0906C113.932 10.0315 113.045 11.1548 112.868 13.0468Z" fill="#5C5C5C"/>
<path d="M130.191 9.44017H130.309C131.491 7.19349 133.029 6.30664 134.98 6.30664C135.453 6.30664 135.748 6.36576 135.926 6.48401V11.4504H135.807C132.437 10.8591 130.486 12.4555 130.486 16.1211V22.9203H124.751V6.66138H130.191V9.44017Z" fill="#5C5C5C"/>
<path d="M136.516 22.9204H142.014C142.251 23.6299 142.96 24.2802 144.32 24.2802C146.153 24.2802 146.803 23.1569 146.803 21.4423V20.2598H146.685C145.798 21.3241 144.557 22.0927 142.783 22.0927C139.295 22.0927 136.22 19.4912 136.22 14.4066C136.22 9.73591 138.704 6.12939 142.487 6.12939C144.675 6.12939 145.976 7.01624 146.863 8.37608H146.981V6.60238H152.42V20.6737C152.42 23.2751 151.533 25.2853 150.173 26.4678C148.754 27.7094 146.744 28.2415 144.438 28.2415C140.063 28.3006 137.048 26.5269 136.516 22.9204ZM147.04 14.1701C147.04 12.16 146.094 10.5045 144.438 10.5045C142.842 10.5045 141.837 11.9235 141.837 14.1701C141.837 16.3577 142.842 17.8949 144.438 17.8949C146.035 17.8949 147.04 16.2986 147.04 14.1701Z" fill="#5C5C5C"/>
</svg>
