<svg width="24" height="25" viewBox="0 0 24 25" fill="none" xmlns="http://www.w3.org/2000/svg">
<path d="M20.0005 9.67606H11.0005C9.89592 9.67606 9.00049 10.5715 9.00049 11.6761V20.6761C9.00049 21.7806 9.89592 22.6761 11.0005 22.6761H20.0005C21.1051 22.6761 22.0005 21.7806 22.0005 20.6761V11.6761C22.0005 10.5715 21.1051 9.67606 20.0005 9.67606Z" stroke="white" stroke-width="2.05634" stroke-linecap="round" stroke-linejoin="round"/>
<path d="M5.00049 15.6761H4.00049C3.47006 15.6761 2.96135 15.4653 2.58627 15.0903C2.2112 14.7152 2.00049 14.2065 2.00049 13.6761V4.67606C2.00049 4.14562 2.2112 3.63692 2.58627 3.26184C2.96135 2.88677 3.47006 2.67606 4.00049 2.67606H13.0005C13.5309 2.67606 14.0396 2.88677 14.4147 3.26184C14.7898 3.63692 15.0005 4.14562 15.0005 4.67606V5.67606" stroke="white" stroke-width="2.05634" stroke-linecap="round" stroke-linejoin="round"/>
</svg>
