<svg width="114" height="116" viewBox="0 0 114 116" fill="none" xmlns="http://www.w3.org/2000/svg">
<path d="M47.6215 8.15942C49.1047 6.58216 51.5204 6.33168 53.2957 7.57109L57.8282 10.7355C59.0876 11.6148 60.7167 11.7668 62.1171 11.1357L67.1568 8.86436C69.1307 7.97475 71.4584 8.6678 72.6242 10.4922L75.6007 15.1503C76.4278 16.4446 77.8747 17.2085 79.41 17.1613L84.9353 16.9915C87.0993 16.925 88.9846 18.456 89.3635 20.5877L90.3309 26.0303C90.5997 27.5426 91.6442 28.802 93.0807 29.3459L98.2503 31.3035C100.275 32.0702 101.431 34.2061 100.965 36.3206L99.7763 41.7191C99.4459 43.2191 99.9289 44.7824 101.048 45.8346L105.075 49.6215C106.652 51.1047 106.903 53.5204 105.663 55.2956L102.499 59.8282C101.619 61.0876 101.468 62.7167 102.099 64.1171L104.37 69.1568C105.26 71.1306 104.567 73.4583 102.742 74.6241L98.084 77.6007C96.7897 78.4278 96.0258 79.8747 96.073 81.41L96.2428 86.9352C96.3093 89.0993 94.7783 90.9846 92.6466 91.3635L87.204 92.3309C85.6917 92.5997 84.4323 93.6442 83.8884 95.0806L81.9308 100.25C81.1641 102.275 79.0282 103.431 76.9137 102.965L71.5152 101.776C70.0152 101.446 68.4519 101.929 67.3997 103.048L63.6128 107.075C62.1296 108.652 59.7139 108.903 57.9387 107.663L53.4061 104.499C52.1467 103.619 50.5176 103.467 49.1172 104.099L44.0775 106.37C42.1037 107.26 39.776 106.566 38.6102 104.742L35.6336 100.084C34.8065 98.7897 33.3596 98.0258 31.8243 98.073L26.2991 98.2428C24.135 98.3093 22.2497 96.7783 21.8708 94.6466L20.9034 89.204C20.6346 87.6917 19.5902 86.4323 18.1537 85.8884L12.984 83.9308C10.9592 83.1641 9.80334 81.0281 10.269 78.9137L11.4581 73.5152C11.7885 72.0152 11.3055 70.4519 10.1865 69.3997L6.15945 65.6128C4.58219 64.1296 4.33171 61.7139 5.57112 59.9386L8.73556 55.4061C9.61484 54.1467 9.76683 52.5176 9.13572 51.1172L6.86439 46.0775C5.97479 44.1036 6.66783 41.7759 8.49225 40.6101L13.1503 37.6336C14.4447 36.8065 15.2085 35.3596 15.1613 33.8243L14.9915 28.299C14.925 26.135 16.456 24.2497 18.5877 23.8708L24.0303 22.9034C25.5426 22.6346 26.802 21.5901 27.346 20.1537L29.3035 14.984C30.0702 12.9592 32.2062 11.8033 34.3206 12.269L39.7191 13.458C41.2191 13.7884 42.7824 13.3054 43.8346 12.1865L47.6215 8.15942Z" fill="url(#paint0_linear)"/>
<path d="M25.6203 64.0115L31.7749 63.3733L32.1381 66.8758L21.1043 68.0198L20.7412 64.5174L21.9964 64.3872L21.7886 62.3829L20.7358 62.4921L20.4419 59.6577L21.4947 59.5486L21.3352 58.0099C21.1826 56.5388 21.524 55.3574 22.3592 54.466C23.2079 53.5731 24.2599 53.0616 25.5151 52.9314C27.8096 52.6935 29.5181 53.5804 30.6407 55.5922L27.6832 57.6587C27.2734 56.7326 26.7176 56.3059 26.0158 56.3787C25.6514 56.4165 25.3738 56.568 25.183 56.8334C25.0043 57.0838 24.9367 57.4182 24.9801 57.8366L25.1186 59.1728L28.945 58.7761L29.2389 61.6104L25.4125 62.0072L25.6203 64.0115ZM42.3611 64.0969C41.4739 65.5395 40.1057 66.3566 38.2567 66.5483C36.4076 66.7401 34.8941 66.2217 33.7163 64.9933C32.5506 63.7499 31.8516 62.008 31.6193 59.7675C31.387 57.527 31.7144 55.6855 32.6017 54.2429C33.501 52.7855 34.8752 51.9609 36.7243 51.7692C38.5734 51.5774 40.0808 52.1033 41.2465 53.3466C42.4243 54.575 43.1293 56.3095 43.3616 58.55C43.594 60.7905 43.2604 62.6395 42.3611 64.0969ZM35.2432 59.3918C35.5105 61.9697 36.3932 63.181 37.8914 63.0256C39.3896 62.8703 40.005 61.5037 39.7377 58.9257C39.4704 56.3478 38.5877 55.1365 37.0895 55.2919C35.5914 55.4472 34.9759 56.8138 35.2432 59.3918ZM57.8997 53.4206L52.8181 53.9475L53.0574 56.2555L58.0378 55.7391L58.401 59.2416L53.4206 59.758L53.9244 64.6169L50.3005 64.9926L48.8311 50.8208L57.5366 49.9182L57.8997 53.4206ZM64.0503 60.1291L69.5369 59.5603L69.8895 62.9615L60.7791 63.9061L59.3097 49.7343L68.3189 48.8002L68.6694 52.1812L63.2841 52.7396L63.4878 54.7034L68.3669 54.1975L68.7133 57.538L63.8341 58.0439L64.0503 60.1291ZM74.8848 59.0058L80.3713 58.4369L80.724 61.8381L71.6135 62.7828L70.1441 48.6109L79.1533 47.6768L79.5039 51.0578L74.1186 51.6162L74.3222 53.58L79.2014 53.0741L79.5478 56.4146L74.6686 56.9205L74.8848 59.0058ZM86.9652 55.9729L85.7828 51.082L85.363 47.033L89.4931 46.6047L89.9129 50.6538L89.7591 55.6832L86.9652 55.9729ZM90.3418 60.5135C89.9789 60.9604 89.5072 61.2139 88.9268 61.2741C88.3465 61.3343 87.8261 61.1836 87.3657 60.8221C86.9188 60.4591 86.6646 59.9807 86.603 59.3869C86.5428 58.8065 86.6942 58.2929 87.0571 57.846C87.4321 57.3842 87.9098 57.1232 88.4902 57.063C89.0706 57.0029 89.5849 57.161 90.0332 57.5374C90.4936 57.8989 90.7539 58.3699 90.8141 58.9502C90.8756 59.5441 90.7182 60.0652 90.3418 60.5135Z" fill="black"/>
<defs>
<linearGradient id="paint0_linear" x1="15.4122" y1="25.5881" x2="89.1007" y2="103.359" gradientUnits="userSpaceOnUse">
<stop stop-color="#8FFF00"/>
<stop offset="0.309604" stop-color="#EBFF00"/>
<stop offset="1" stop-color="#8FFF00"/>
</linearGradient>
</defs>
</svg>
