<svg width="110" height="59" viewBox="0 0 110 59" fill="none" xmlns="http://www.w3.org/2000/svg">
<path fill-rule="evenodd" clip-rule="evenodd" d="M16.2601 32.3436C25.2403 32.3436 32.5201 25.1033 32.5201 16.1718C32.5201 7.24037 25.2403 0 16.2601 0C7.27988 0 0 7.24037 0 16.1718C0 25.1033 7.27988 32.3436 16.2601 32.3436ZM21.0114 16.2768C23.6938 16.2768 25.8683 14.1141 25.8683 11.4463C25.8683 8.77844 23.6938 6.61574 21.0114 6.61574C18.329 6.61574 16.1545 8.77844 16.1545 11.4463C16.1545 14.1141 18.329 16.2768 21.0114 16.2768Z" fill="white"/>
<path d="M53.4317 26.1817C59.3936 26.1817 64.2284 21.5207 64.2284 15.4437C64.2284 9.3666 59.3936 4.70557 53.4317 4.70557C47.4698 4.70557 42.635 9.3666 42.635 15.4437C42.635 21.5207 47.4698 26.1817 53.4317 26.1817ZM53.4317 21.5797C50.0503 21.5797 47.3808 19.1312 47.3808 15.4437C47.3808 11.7561 50.0503 9.3076 53.4317 9.3076C56.8131 9.3076 59.4826 11.7561 59.4826 15.4437C59.4826 19.1312 56.8131 21.5797 53.4317 21.5797Z" fill="white"/>
<path d="M71.2013 13.6441V11.0186H66.7521V25.7687H71.2013V19.1017C71.2013 16.1812 73.8115 15.4437 75.6505 15.7387V10.7236C73.7819 10.7236 71.7945 11.6676 71.2013 13.6441Z" fill="white"/>
<path d="M84.4145 26.1817C87.3213 26.1817 89.8425 24.6772 91.1179 22.3762L87.2323 20.1637C86.7577 21.1962 85.6602 21.8157 84.3552 21.8157C82.4272 21.8157 81.0034 20.4292 81.0034 18.3937C81.0034 16.3582 82.4272 14.9716 84.3552 14.9716C85.6602 14.9716 86.7281 15.5912 87.2323 16.6237L91.1179 14.3816C89.8425 12.1101 87.2916 10.6056 84.4145 10.6056C79.906 10.6056 76.5542 13.9981 76.5542 18.3937C76.5542 22.7892 79.906 26.1817 84.4145 26.1817Z" fill="white"/>
<path d="M103.386 11.0186V12.4051C102.407 11.2841 100.954 10.6056 98.9663 10.6056C95.0807 10.6056 91.8773 13.9981 91.8773 18.3937C91.8773 22.7892 95.0807 26.1817 98.9663 26.1817C100.954 26.1817 102.407 25.5032 103.386 24.3822V25.7687H107.835V11.0186H103.386ZM99.8562 21.9927C97.8095 21.9927 96.3265 20.6062 96.3265 18.3937C96.3265 16.1812 97.8095 14.7946 99.8562 14.7946C101.903 14.7946 103.386 16.1812 103.386 18.3937C103.386 20.6062 101.903 21.9927 99.8562 21.9927Z" fill="white"/>
<rect x="81.2849" y="46.3857" width="28.7149" height="12.3695" rx="2.11015" fill="white"/>
<path d="M88.3966 55.3047C89.38 55.3047 89.9336 54.8053 90.1543 54.3601H90.2008V55.1731H91.3313V51.2241C91.3313 49.4935 89.9685 49.1489 89.0238 49.1489C87.9475 49.1489 86.9564 49.5825 86.5692 50.6665L87.6571 50.9143C87.8275 50.4923 88.2611 50.0858 89.0393 50.0858C89.7865 50.0858 90.1698 50.4768 90.1698 51.1505V51.1776C90.1698 51.5996 89.7362 51.5919 88.6676 51.7158C87.541 51.8474 86.3872 52.1416 86.3872 53.4928C86.3872 54.662 87.2661 55.3047 88.3966 55.3047ZM88.6482 54.3755C87.9939 54.3755 87.5216 54.0813 87.5216 53.5083C87.5216 52.8888 88.0714 52.6682 88.7412 52.5791C89.1167 52.5288 90.0072 52.4281 90.1737 52.2616V53.0282C90.1737 53.7329 89.6123 54.3755 88.6482 54.3755ZM92.8731 57.4031H94.0307V54.2478H94.1004C94.3095 54.6272 94.7354 55.2892 95.8194 55.2892C97.2597 55.2892 98.305 54.1355 98.305 52.2113C98.305 50.2833 97.2442 49.1489 95.8078 49.1489C94.7044 49.1489 94.3056 49.8225 94.1004 50.1903H94.0036V49.2263H92.8731V57.4031ZM94.0075 52.1997C94.0075 50.9569 94.5495 50.1323 95.56 50.1323C96.6092 50.1323 97.1358 51.0189 97.1358 52.1997C97.1358 53.3922 96.5937 54.302 95.56 54.302C94.565 54.302 94.0075 53.4502 94.0075 52.1997ZM99.602 57.4031H100.76V54.2478H100.829C101.038 54.6272 101.464 55.2892 102.548 55.2892C103.989 55.2892 105.034 54.1355 105.034 52.2113C105.034 50.2833 103.973 49.1489 102.537 49.1489C101.433 49.1489 101.034 49.8225 100.829 50.1903H100.732V49.2263H99.602V57.4031ZM100.736 52.1997C100.736 50.9569 101.278 50.1323 102.289 50.1323C103.338 50.1323 103.865 51.0189 103.865 52.1997C103.865 53.3922 103.323 54.302 102.289 54.302C101.294 54.302 100.736 53.4502 100.736 52.1997Z" fill="black"/>
<rect x="42.4094" y="32.6909" width="67.5905" height="12.3695" rx="2.11015" fill="white"/>
<path d="M49.32 34.4928H48.1237V42.4219H49.32V34.4928ZM52.127 38.891C52.127 37.9424 52.7077 37.4004 53.513 37.4004C54.2989 37.4004 54.7751 37.9153 54.7751 38.7787V42.4219H55.9328V38.6393C55.9328 37.1681 55.1236 36.3977 53.9079 36.3977C53.0136 36.3977 52.4289 36.8119 52.1541 37.443H52.0805V36.4751H50.9694V42.4219H52.127V38.891ZM62.3596 36.4751H61.1168L59.6146 41.0513H59.5527L58.0466 36.4751H56.8039L58.9642 42.4219H60.2031L62.3596 36.4751ZM65.7976 42.5419C67.0946 42.5419 68.0122 41.9031 68.2754 40.9352L67.1798 40.7377C66.9707 41.2991 66.4674 41.5856 65.8092 41.5856C64.8181 41.5856 64.1522 40.9429 64.1212 39.7969H68.349V39.3865C68.349 37.2378 67.0636 36.3977 65.7163 36.3977C64.0592 36.3977 62.9675 37.6598 62.9675 39.4872C62.9675 41.334 64.0438 42.5419 65.7976 42.5419ZM64.1251 38.9297C64.1715 38.0857 64.7832 37.3539 65.724 37.3539C66.6222 37.3539 67.2107 38.0199 67.2146 38.9297H64.1251ZM74.0896 37.9269C73.8496 37.0016 73.1256 36.3977 71.8402 36.3977C70.4968 36.3977 69.5443 37.1062 69.5443 38.1592C69.5443 39.0032 70.0554 39.5646 71.1704 39.8124L72.177 40.0331C72.75 40.1609 73.0172 40.4164 73.0172 40.7881C73.0172 41.2488 72.5255 41.6088 71.7666 41.6088C71.0736 41.6088 70.6284 41.3107 70.489 40.7261L69.3701 40.8965C69.5637 41.9495 70.4387 42.5419 71.7744 42.5419C73.2108 42.5419 74.2058 41.7792 74.2058 40.7029C74.2058 39.8627 73.6715 39.3439 72.5797 39.0923L71.635 38.8755C70.9807 38.7206 70.6981 38.4999 70.702 38.0973C70.6981 37.6404 71.1936 37.3152 71.8518 37.3152C72.5719 37.3152 72.9049 37.714 73.0404 38.1128L74.0896 37.9269ZM78.2545 36.4751H77.0349V35.0503H75.8773V36.4751H75.0062V37.4043H75.8773V40.9158C75.8734 41.996 76.6981 42.5187 77.6118 42.4993C77.9796 42.4954 78.2274 42.4257 78.3629 42.3754L78.1538 41.4191C78.0764 41.4346 77.9331 41.4695 77.7473 41.4695C77.3718 41.4695 77.0349 41.3456 77.0349 40.6758V37.4043H78.2545V36.4751ZM79.535 42.4219H80.6926V38.7555C80.6926 37.954 81.254 37.3965 81.9122 37.3965C82.5549 37.3965 83.0001 37.8224 83.0001 38.469V42.4219H84.1538V38.6316C84.1538 37.9153 84.5913 37.3965 85.3463 37.3965C85.958 37.3965 86.4613 37.7372 86.4613 38.5425V42.4219H87.6189V38.4341C87.6189 37.0752 86.8601 36.3977 85.7838 36.3977C84.9282 36.3977 84.2855 36.808 83.999 37.443H83.937C83.6776 36.7926 83.1317 36.3977 82.3381 36.3977C81.5521 36.3977 80.9675 36.7887 80.7197 37.443H80.6462V36.4751H79.535V42.4219ZM91.7335 42.5419C93.0305 42.5419 93.948 41.9031 94.2113 40.9352L93.1156 40.7377C92.9066 41.2991 92.4033 41.5856 91.7451 41.5856C90.754 41.5856 90.088 40.9429 90.0571 39.7969H94.2849V39.3865C94.2849 37.2378 92.9995 36.3977 91.6522 36.3977C89.9951 36.3977 88.9033 37.6598 88.9033 39.4872C88.9033 41.334 89.9796 42.5419 91.7335 42.5419ZM90.0609 38.9297C90.1074 38.0857 90.7191 37.3539 91.6599 37.3539C92.5581 37.3539 93.1466 38.0199 93.1505 38.9297H90.0609ZM96.7269 38.891C96.7269 37.9424 97.3076 37.4004 98.1129 37.4004C98.8988 37.4004 99.3751 37.9153 99.3751 38.7787V42.4219H100.533V38.6393C100.533 37.1681 99.7235 36.3977 98.5078 36.3977C97.6135 36.3977 97.0289 36.8119 96.754 37.443H96.6804V36.4751H95.5693V42.4219H96.7269V38.891ZM104.861 36.4751H103.642V35.0503H102.484V36.4751H101.613V37.4043H102.484V40.9158C102.48 41.996 103.305 42.5187 104.218 42.4993C104.586 42.4954 104.834 42.4257 104.97 42.3754L104.76 41.4191C104.683 41.4346 104.54 41.4695 104.354 41.4695C103.978 41.4695 103.642 41.3456 103.642 40.6758V37.4043H104.861V36.4751Z" fill="black"/>
</svg>
