<svg width="229" height="28" viewBox="0 0 229 28" fill="none" xmlns="http://www.w3.org/2000/svg">
<path d="M10.5361 19.9336C10.5361 21.2997 11.1155 21.4928 12.91 21.4928C15.347 21.4928 15.628 20.3164 16.397 18.1814H17.2082L16.9518 22.4761H5.42322V21.6614C6.94375 21.5982 7.1123 21.4893 7.1123 20.4007V9.757C7.1123 8.66489 6.94375 8.55954 5.42322 8.49282V7.68164H12.4816V8.49282C10.7047 8.55954 10.5361 8.6684 10.5361 9.757V19.9336Z" fill="#5C5C5C"/>
<path d="M28.6505 16.9281C28.6505 20.5521 26.856 22.7153 23.1759 22.7153C19.4957 22.7153 17.6837 20.5521 17.6837 16.9281C17.6837 13.3042 19.4781 11.127 23.1759 11.127C26.8736 11.127 28.6505 13.3042 28.6505 16.9281ZM25.8131 16.9281C25.7815 14.8774 25.4935 11.8784 23.1689 11.8784C20.8442 11.8784 20.5527 14.8774 20.5211 16.9281C20.5527 19.1088 20.8407 21.9813 23.1689 21.9813C25.4971 21.9813 25.7815 19.1088 25.8131 16.9281Z" fill="#5C5C5C"/>
<path d="M33.2848 11.3794C34.9388 13.9288 36.6384 16.4642 38.338 19.0136H38.4012V15.4213C38.4218 14.587 38.3949 13.7522 38.3204 12.921C38.2748 12.3591 38.0957 12.1028 37.6497 12.0712L36.7508 11.9904V11.3794H40.6135V11.9904L40.0552 12.0712C39.683 12.1168 39.5249 12.3591 39.4758 12.921C39.4029 13.7523 39.3759 14.587 39.395 15.4213V22.4761H37.6392C35.7242 19.4936 33.7811 16.511 31.8099 13.5285H31.7467V18.4448C31.7279 19.279 31.7549 20.1137 31.8275 20.945C31.8766 21.5069 32.0522 21.7632 32.5017 21.7948L33.3972 21.8756V22.4831H29.5344V21.8686L30.0962 21.7878C30.4474 21.7387 30.623 21.4999 30.6722 20.938C30.7451 20.1067 30.772 19.272 30.7529 18.4377V12.935C30.7529 12.1168 30.623 12.0361 29.4852 11.9904V11.3794H33.2848Z" fill="#5C5C5C"/>
<path d="M46.9617 11.3794C49.0476 11.397 50.3961 11.8464 51.3231 12.7595C52.2502 13.6725 52.7278 15.0209 52.7278 16.8154C52.7278 22.1425 48.7667 22.4761 46.2629 22.4761H41.4625V21.8686C42.6003 21.8194 42.7302 21.7386 42.7302 20.9204V12.935C42.7302 12.1168 42.6003 12.0396 41.4625 11.9904V11.3794H46.9617ZM45.3007 21.0328C45.3007 21.5455 45.5746 21.7351 46.586 21.7351C48.1557 21.7351 49.8869 21.0328 49.8869 16.8189C49.8869 13.7251 48.7807 12.1203 46.6316 12.1203C45.6238 12.1203 45.3007 12.2011 45.3007 12.5698V21.0328Z" fill="#5C5C5C"/>
<path d="M64.8747 16.9281C64.8747 20.5521 63.0767 22.7188 59.3896 22.7188C55.7024 22.7188 53.9044 20.5521 53.9044 16.9281C53.9044 13.3042 55.7024 11.127 59.3896 11.127C63.0767 11.127 64.8747 13.2901 64.8747 16.9141V16.9281ZM62.0338 16.9141C62.0022 14.8633 61.7142 11.8644 59.3896 11.8644C57.0649 11.8644 56.7769 14.8633 56.7418 16.9141C56.7769 19.0948 57.0649 21.9673 59.3896 21.9673C61.7142 21.9673 62.0022 19.0948 62.0338 16.9141Z" fill="#5C5C5C"/>
<path d="M69.5843 11.3794C71.2347 13.9288 72.9343 16.4642 74.6339 19.0136H74.7007V15.4213C74.7195 14.587 74.6925 13.7523 74.6199 12.921C74.5707 12.3591 74.3952 12.1028 73.9457 12.0712L73.0397 11.9904V11.3794H76.9024V11.9904L76.3406 12.0712C75.9719 12.1168 75.8103 12.3591 75.7647 12.921C75.6899 13.7522 75.663 14.587 75.6839 15.4213V22.4761H73.9281C72.0225 19.4936 70.0876 16.511 68.1234 13.5285H68.0567V18.4448C68.0379 19.279 68.0649 20.1137 68.1375 20.945C68.1866 21.5069 68.3622 21.7632 68.8117 21.7948L69.7107 21.8756V22.4831H65.8479V21.8686L66.4098 21.7878C66.7785 21.7387 66.94 21.4999 66.9857 20.938C67.0604 20.1068 67.0874 19.272 67.0664 18.4377V12.935C67.0664 12.1168 66.94 12.0361 65.8022 11.9904V11.3794H69.5843Z" fill="#5C5C5C"/>
<path d="M129.088 7.68164C132.466 7.68164 134.538 8.62275 134.538 11.2319C134.538 12.9877 133.485 14.0938 131.378 14.5433V14.589C133.365 14.8875 135.121 16.0639 135.121 18.4518C135.121 19.6071 134.77 20.636 133.903 21.3418C133.035 22.0476 131.529 22.4936 129.092 22.4936H122.03V21.6614C123.55 21.5982 123.719 21.4893 123.719 20.4007V9.757C123.719 8.66489 123.55 8.55954 122.03 8.49282V7.68164H129.088ZM127.143 14.1606H128.196C130.25 14.1606 131.083 12.9842 131.083 11.4004C131.083 9.8167 130.307 8.6684 128.382 8.6684C127.525 8.6684 127.143 8.73161 127.143 9.45852V14.1606ZM127.143 20.1022C127.143 21.1557 127.613 21.5069 128.681 21.5069C130.177 21.5069 131.374 20.7589 131.374 18.4728C131.374 16.6749 130.37 15.1579 128.231 15.1579H127.143V20.1022Z" fill="#5C5C5C"/>
<path d="M146.083 18.8697C146.052 21.6438 144.433 22.7324 141.466 22.7324C138.26 22.7324 136.848 21.6579 136.848 18.8697V12.935C136.848 12.1168 136.718 12.0361 135.629 11.9904V11.3794H140.633V11.9904C139.541 12.0361 139.415 12.1168 139.415 12.935V19.0944C139.415 20.9204 140.022 21.9809 141.466 21.9809C142.909 21.9809 143.52 20.9275 143.52 19.0944V12.935C143.52 12.1168 143.39 12.0361 142.301 11.9904V11.3794H147.305V11.9904C146.213 12.0361 146.083 12.1168 146.083 12.935V18.8697Z" fill="#5C5C5C"/>
<path d="M154.863 14.4766C154.413 12.5979 153.458 11.878 152.426 11.878C152.206 11.8646 151.986 11.8974 151.779 11.9745C151.573 12.0515 151.385 12.171 151.228 12.3253C151.071 12.4795 150.948 12.6651 150.867 12.87C150.786 13.0748 150.749 13.2944 150.758 13.5145C150.758 14.733 152.089 15.3089 153.149 15.7408C154.607 16.3518 156.18 17.17 156.18 19.2875C156.18 20.9556 155.218 22.6868 152.008 22.7184C150.955 22.7184 149.364 22.4761 148.546 21.7246L148.296 18.8521H148.893C149.501 20.8572 150.719 21.9809 151.938 21.9809C152.991 21.9809 153.75 21.4191 153.767 20.2251C153.767 19.1998 153.093 18.4693 151.632 17.8689C150.171 17.2684 148.444 16.408 148.444 14.4204C148.444 12.5277 149.743 11.1336 152.436 11.1336C153.48 11.1052 154.513 11.3472 155.435 11.8359V14.4661L154.863 14.4766Z" fill="#5C5C5C"/>
<path d="M160.837 20.9204C160.837 21.7386 160.963 21.8194 162.101 21.8686V22.4761H156.974V21.8686C158.115 21.8194 158.242 21.7386 158.242 20.9204V12.935C158.242 12.1168 158.115 12.0396 156.974 11.9904V11.3794H162.073V11.9904C160.935 12.0396 160.809 12.1168 160.809 12.935L160.837 20.9204Z" fill="#5C5C5C"/>
<path d="M166.8 11.3794C168.454 13.9288 170.154 16.4642 171.853 19.0136H171.917V15.4213C171.935 14.587 171.908 13.7523 171.836 12.921C171.787 12.3591 171.611 12.1028 171.162 12.0712L170.266 11.9904V11.3794H174.129V11.9904L173.567 12.0712C173.198 12.1168 173.04 12.3591 172.991 12.921C172.918 13.7523 172.891 14.587 172.91 15.4213V22.4761H171.155C169.244 19.4936 167.303 16.511 165.332 13.5285H165.269V18.4448C165.25 19.279 165.277 20.1137 165.35 20.945C165.395 21.5069 165.575 21.7632 166.024 21.7948L166.92 21.8756V22.4831H163.057V21.8686L163.615 21.7878C163.987 21.7387 164.145 21.4999 164.194 20.938C164.267 20.1067 164.294 19.272 164.275 18.4377V12.935C164.275 12.1168 164.145 12.0361 163.008 11.9904V11.3794H166.8Z" fill="#5C5C5C"/>
<path d="M176.096 12.935C176.096 12.1168 175.966 12.0396 174.828 11.9904V11.3794H183.47V14.3467H182.863C182.364 12.7595 182.076 12.1168 180.426 12.1168H179.221C178.772 12.1168 178.659 12.2292 178.659 12.6962V16.2395H180.183C181.195 16.2395 181.402 15.9656 181.658 14.7962H182.269V18.5185H181.658C181.402 17.3456 181.195 17.0717 180.183 17.0717H178.659V20.5833C178.659 21.6087 179.158 21.7527 180.633 21.7527C182.526 21.7527 182.799 20.8713 183.375 19.1576H183.986L183.793 22.4901H174.828V21.8686C175.966 21.8194 176.096 21.7386 176.096 20.9204V12.935Z" fill="#5C5C5C"/>
<path d="M191.622 14.4768C191.172 12.598 190.217 11.8782 189.185 11.8782C188.965 11.8657 188.746 11.8993 188.54 11.9768C188.335 12.0543 188.148 12.174 187.991 12.3282C187.835 12.4823 187.712 12.6675 187.632 12.8718C187.551 13.0762 187.514 13.2951 187.524 13.5146C187.524 14.7331 188.855 15.309 189.912 15.7409C191.372 16.352 192.942 17.1702 192.942 19.2877C192.942 20.9557 191.98 22.6869 188.774 22.7185C187.72 22.7185 186.13 22.4762 185.311 21.7247L185.066 18.8522H185.659C186.27 20.8574 187.489 21.9811 188.707 21.9811C189.761 21.9811 190.519 21.4192 190.533 20.2253C190.533 19.1999 189.862 18.4695 188.402 17.869C186.941 17.2685 185.21 16.4081 185.21 14.4206C185.21 12.5278 186.509 11.1337 189.202 11.1337C190.246 11.1046 191.279 11.3465 192.201 11.836V14.4662L191.622 14.4768Z" fill="#5C5C5C"/>
<path d="M200.615 14.4769C200.166 12.5982 199.211 11.8783 198.178 11.8783C197.958 11.8648 197.738 11.8977 197.532 11.9747C197.325 12.0517 197.138 12.1713 196.98 12.3255C196.823 12.4798 196.7 12.6653 196.619 12.8702C196.538 13.075 196.501 13.2946 196.51 13.5147C196.51 14.7332 197.841 15.3091 198.902 15.741C200.359 16.3521 201.932 17.1703 201.932 19.2878C201.932 20.9558 200.97 22.687 197.764 22.7186C196.71 22.7186 195.116 22.4763 194.298 21.7248L194.059 18.8523H194.649C195.26 20.8575 196.479 21.9812 197.697 21.9812C198.751 21.9812 199.509 21.4193 199.527 20.2254C199.527 19.2 198.852 18.4696 197.392 17.8691C195.931 17.2686 194.196 16.4153 194.196 14.4277C194.196 12.5314 195.499 11.1268 198.192 11.1268C199.237 11.0982 200.271 11.3401 201.195 11.8291V14.4593L200.615 14.4769Z" fill="#5C5C5C"/>
<path d="M202.619 21.7845C202.621 21.6292 202.668 21.4778 202.755 21.3494C202.843 21.221 202.966 21.1212 203.11 21.0628C203.254 21.0043 203.412 20.9897 203.564 21.0209C203.716 21.052 203.855 21.1275 203.965 21.2378C204.074 21.348 204.148 21.4882 204.178 21.6406C204.208 21.793 204.192 21.9508 204.132 22.0941C204.072 22.2374 203.972 22.3599 203.842 22.446C203.713 22.5321 203.561 22.5781 203.406 22.5781C203.301 22.5826 203.196 22.5652 203.098 22.5268C203 22.4884 202.911 22.43 202.837 22.3553C202.763 22.2806 202.705 22.1912 202.668 22.0929C202.63 21.9946 202.614 21.8895 202.619 21.7845Z" fill="#5C5C5C"/>
<path d="M210.03 20.5271L209.928 22.1951C209.302 22.4871 208.617 22.6279 207.926 22.606C205.732 22.606 204.798 21.4085 204.798 19.579C204.758 18.7652 205.02 17.9653 205.531 17.3315C206.037 16.7662 206.852 16.4326 208.056 16.4326C208.689 16.416 209.317 16.5445 209.893 16.8083V18.3394H209.57C209.373 17.7248 209.075 16.8259 207.979 16.8259C206.43 16.8259 206.311 18.817 206.311 19.442C206.311 20.4077 206.525 22.2127 208.046 22.2127C209.011 22.2127 209.38 21.4682 209.707 20.5271H210.03Z" fill="#5C5C5C"/>
<path d="M216.485 19.5188C216.485 21.4502 215.526 22.6055 213.56 22.6055C211.593 22.6055 210.638 21.4502 210.638 19.5188C210.638 17.5874 211.593 16.4321 213.56 16.4321C215.526 16.4321 216.485 17.5874 216.485 19.5188ZM214.971 19.5188C214.971 18.4232 214.803 16.8254 213.567 16.8254C212.331 16.8254 212.162 18.4232 212.162 19.5188C212.18 20.6812 212.331 22.2122 213.567 22.2122C214.803 22.2122 214.971 20.6812 214.971 19.5188Z" fill="#5C5C5C"/>
<path d="M221.763 22.4765V22.1535C222.367 22.1289 222.437 22.0832 222.437 21.6478V17.4093H222.413L220.625 22.3255H220.113L218.272 17.4093H218.248V20.3239C218.237 20.768 218.251 21.2123 218.29 21.6548C218.315 21.9568 218.409 22.0938 218.641 22.1113L219.105 22.1535V22.4765H217.061V22.1535L217.359 22.1113C217.556 22.0832 217.644 21.9568 217.668 21.6548C217.708 21.2123 217.722 20.768 217.711 20.3239V17.3917C217.711 16.9563 217.644 16.9106 217.036 16.8861V16.563H219.294C219.403 16.9141 219.6 17.4339 219.747 17.8166L220.762 20.4433H220.787L221.517 18.4417C221.745 17.8096 222.037 16.9738 222.181 16.563H224.404V16.8861C223.8 16.9106 223.729 16.9563 223.729 17.3917V21.6618C223.729 22.0973 223.8 22.1429 224.404 22.1675V22.4906L221.763 22.4765Z" fill="#5C5C5C"/>
<path d="M81.0517 21.2016C81.3607 21.2016 81.8839 20.4993 82.4072 19.7021C83.1446 18.5363 83.0744 18.2518 83.3342 18.2518C83.3629 18.2497 83.3917 18.2539 83.4186 18.2639C83.4456 18.2739 83.47 18.2896 83.4904 18.3099C83.5107 18.3303 83.5264 18.3547 83.5364 18.3817C83.5464 18.4086 83.5505 18.4374 83.5484 18.466C83.5484 18.9893 81.5258 22.7221 79.7454 22.7221C79.1028 22.7221 78.6919 22.2937 78.6919 21.4404C78.6919 19.3931 82.6881 8.44742 82.6881 7.24294C82.6881 7.0498 82.7092 6.89178 82.2597 6.86018L81.7821 6.8356C81.4485 6.81453 81.3783 6.76536 81.3783 6.57574C81.3783 6.26672 81.6136 6.22458 82.2351 6.22458C82.6411 6.23366 83.047 6.2019 83.4466 6.12976C84.5001 5.94014 84.8267 5.51172 85.0865 5.51172C85.1147 5.51172 85.1425 5.51726 85.1685 5.52802C85.1945 5.53879 85.2181 5.55457 85.238 5.57446C85.2579 5.59435 85.2737 5.61796 85.2844 5.64395C85.2952 5.66994 85.3007 5.6978 85.3007 5.72593C85.3007 5.77509 85.1849 6.17892 84.8513 7.24997C83.1622 12.6473 80.7357 19.6143 80.7357 20.875C80.7357 21.0892 80.8059 21.2086 81.0447 21.2086" fill="#888888"/>
<path d="M90.5693 11.2109C92.6131 11.2109 93.9931 12.9246 93.9931 15.7304C93.9931 18.4449 91.6158 22.722 87.6722 22.722C85.6285 22.722 84.2484 21.0118 84.2484 18.2061C84.2484 15.4951 86.6258 11.2109 90.5693 11.2109ZM87.9532 22.0969C90.2357 22.0969 91.9494 16.675 91.9494 14.0589C91.9494 12.4435 91.3313 11.8255 90.2849 11.8255C88.0023 11.8255 86.2887 17.2474 86.2887 19.8635C86.2887 21.4789 86.9067 22.0969 87.9532 22.0969Z" fill="#888888"/>
<path d="M96.7719 22.7148C95.6307 22.7148 95.1531 22.0511 95.1531 20.8607C95.1531 18.7221 97.5796 13.4407 97.5796 12.9666C97.5796 12.7032 97.5094 12.5382 97.3162 12.5382C97.0564 12.5382 96.4629 13.1808 95.9608 13.8445C95.1285 14.9156 95.1531 15.2948 94.9073 15.2948C94.7633 15.2948 94.7177 15.1789 94.7177 15.0104C94.7177 14.8418 96.5718 11.2073 98.5453 11.2073C99.3038 11.2073 99.5988 11.7516 99.5988 12.5136C99.5988 13.9639 96.937 19.291 96.937 20.9415C96.9287 21.0386 96.9407 21.1364 96.9723 21.2286C97.0039 21.3208 97.0543 21.4055 97.1203 21.4772C97.1864 21.5488 97.2666 21.606 97.356 21.6449C97.4453 21.6839 97.5418 21.7038 97.6393 21.7035C99.6831 21.7035 102.633 16.8996 102.633 14.5925C102.633 13.8902 101.93 13.6408 101.93 12.4855C101.93 11.6076 102.454 11.1792 102.984 11.1792C103.514 11.1792 103.886 11.5128 103.886 12.7489C103.886 15.9831 100.438 22.6867 96.7544 22.6867" fill="#888888"/>
<path d="M109.913 17.1841C108.8 17.4841 107.662 17.6827 106.514 17.7776C106.37 17.8021 106.345 18.1287 106.299 19.0593C106.299 20.6079 106.868 21.391 107.795 21.391C108.849 21.391 109.793 20.6079 110.506 19.6563C111.388 18.515 111.318 18.2516 111.56 18.2516C111.593 18.247 111.628 18.2497 111.66 18.2597C111.692 18.2697 111.722 18.2867 111.747 18.3095C111.772 18.3323 111.792 18.3603 111.805 18.3915C111.818 18.4228 111.825 18.4565 111.823 18.4904C111.823 18.9434 110.015 22.7219 106.907 22.7219C105.028 22.7465 103.887 21.082 103.887 19.0839C103.887 15.1614 107.097 11.2144 110.52 11.2144C112.234 11.2144 113.115 12.2678 113.115 13.5917C113.115 15.5161 111.711 16.6363 109.927 17.1841H109.913ZM110.162 11.8289C109.544 11.8289 108.902 12.1133 108.164 13.2792C107.412 14.4696 106.858 15.7741 106.524 17.142C110.187 16.7908 111.04 14.6452 111.04 12.8613C111.04 12.159 110.636 11.8078 110.162 11.8078" fill="#888888"/>
<path d="M119.958 14.3995C119.256 14.3995 119.221 11.8325 117.606 11.8325C116.903 11.8325 116.32 12.3557 116.32 13.3074C116.32 15.1123 119.365 16.9208 119.365 19.1085C119.335 20.0906 118.919 21.0211 118.205 21.6969C117.492 22.3726 116.54 22.7386 115.558 22.715C113.894 22.715 112.609 22.0969 112.609 21.2893C112.617 20.7539 112.673 20.2203 112.777 19.695C112.918 19.0313 113.037 18.8627 113.346 18.8627C113.655 18.8627 113.75 19.1472 114.048 20.0988C114.347 21.0505 114.93 22.0969 115.952 22.0969C116.714 22.0969 117.402 21.528 117.402 20.3411C117.402 18.3922 114.501 17.0613 114.501 14.7752C114.501 12.5875 116.285 11.2109 118.188 11.2109C119.544 11.2109 120.829 11.7342 120.829 12.1837C120.829 12.6331 120.446 14.396 119.948 14.396" fill="#888888"/>
</svg>
