<svg width="187" height="27" viewBox="0 0 187 27" fill="none" xmlns="http://www.w3.org/2000/svg">
<path d="M45.0414 11.4318L44.7314 13.0128H44.6384C44.2354 12.1448 43.1194 10.9048 40.6393 10.9048C36.6403 10.9048 32.5483 14.0048 31.6493 18.8718C30.8743 23.1499 32.9203 26.9009 37.6633 26.9009C39.3993 26.9009 41.3833 26.2189 42.4374 24.7619H42.5304L42.2514 26.3739H46.6844L49.4434 11.4318H45.0414ZM43.5844 18.8718C43.3054 20.3289 41.9104 22.7159 39.1203 22.7159C36.3923 22.7159 35.8343 20.3289 36.0823 18.9339C36.3923 17.2288 37.9113 15.0898 40.5153 15.0898C43.0574 15.1208 43.9254 17.1358 43.5844 18.8718Z" fill="#3D3D3D"/>
<path d="M51.9556 11.4318H56.1096L55.8306 13.0128H55.9236C56.4506 12.2998 57.5046 10.9048 60.0466 10.9048L59.2096 15.4308C57.1016 15.4618 55.5826 15.8958 55.1796 18.1898L53.6606 26.3739H49.1965L51.9556 11.4318Z" fill="#3D3D3D"/>
<path d="M63.0218 5.604H67.5168L65.4088 16.8571H65.4708L70.6478 11.4321H75.9179L69.0978 18.0041L73.0038 26.3742H67.9508L65.0678 19.1821H64.9748L63.6728 26.3742H59.1777L63.0218 5.604Z" fill="#3D3D3D"/>
<path d="M83.0796 10.9048C78.5535 10.9048 74.5235 14.8108 73.7795 18.9649C72.9425 23.3979 75.9495 26.8699 80.2275 26.8699C81.7466 26.8699 83.3276 26.4049 84.6916 25.5059C86.1176 24.6379 87.4196 23.3669 88.4116 21.6929H83.8546C83.1106 22.4679 82.2426 23.0879 80.8786 23.0879C79.1425 23.0879 77.8405 22.0339 77.9335 20.2669H89.1246C89.2486 19.9259 89.3416 19.6469 89.4346 19.0889C90.3026 14.5318 87.6366 10.9048 83.0796 10.9048ZM78.5535 17.2598C78.8945 16.3918 80.1345 14.6868 82.4596 14.6868C84.7846 14.6868 85.3426 16.3608 85.3426 17.2598H78.5535Z" fill="#3D3D3D"/>
<path d="M25.7302 5.604L17.8562 17.4461H17.7941V5.604H13.9811L0 26.3742H5.42505L13.2681 14.5321H13.3301V26.3742H17.1741L25.0172 14.5321H25.0792V26.3742H29.5742V5.604H25.7302Z" fill="#3D3D3D"/>
<path d="M100.781 11.4321H97.9599L98.7969 6.99902H94.8908L94.5808 8.70404C94.2398 10.6571 92.9998 11.2461 91.3878 11.4321H91.3568L90.6748 14.8111H92.8758L90.7368 26.3432H95.2008L97.3399 14.8111H100.192L100.781 11.4321Z" fill="#3D3D3D"/>
<path d="M169.884 20.7319C168.427 24.1109 164.924 26.901 160.894 26.901C156.368 26.901 153.547 23.3359 154.353 18.8719C155.19 14.5009 159.22 10.9358 163.715 10.9358C167.652 10.9358 170.38 13.5708 170.473 17.2289H165.947C165.668 16.1749 164.986 15.1209 163.095 15.1209C160.987 15.0279 159.251 16.7329 158.848 18.9029C158.445 21.1039 159.561 22.7159 161.7 22.7159C163.529 22.7159 164.645 21.6619 165.296 20.7009L169.884 20.7319ZM132.901 0.302734L124.221 5.60378H126.67L118.796 17.4459H118.703V5.60378H114.859L107.016 17.4459H106.923V5.60378H102.458V26.374H106.365L114.239 14.5319H114.332V26.374H118.176L132.095 5.60378H134.296L132.901 0.302734ZM141.364 26.374H136.931L137.21 24.7619H137.117C136.063 26.219 134.079 26.901 132.343 26.901C127.6 26.901 125.554 23.1809 126.329 18.8719C127.197 14.0048 131.32 10.9048 135.319 10.9048C137.768 10.9048 138.915 12.1138 139.318 13.0128H139.411L139.721 11.4318H144.154L141.364 26.374ZM133.862 22.7469C136.621 22.7469 138.016 20.3599 138.326 18.9029C138.636 17.1049 137.799 15.1209 135.257 15.1209C132.684 15.1209 131.165 17.2599 130.824 18.9649C130.576 20.3599 131.134 22.7469 133.862 22.7469ZM155.314 11.4318H152.524L153.361 6.99879H149.455L149.145 8.70381C148.804 10.6568 147.564 11.2458 145.952 11.4318H145.89L145.239 14.8109H147.44L145.301 26.343H149.765L151.904 14.8109H154.756L155.314 11.4318ZM174.1 5.60378H178.564L177.2 13.0128H177.293C178.254 11.6178 179.525 10.9048 181.509 10.9048C182.935 10.9048 184.547 11.4318 185.291 12.5788C186.252 14.0359 186.159 15.3379 185.632 18.0039L184.113 26.343H179.649L181.137 18.2209C181.261 17.5079 181.695 15.0899 179.339 15.0899C176.828 15.0899 176.394 17.3219 176.27 18.0659L174.751 26.343H170.287L174.1 5.60378Z" fill="#5C5C5C"/>
</svg>
