<svg width="75" height="18" viewBox="0 0 75 18" fill="none" xmlns="http://www.w3.org/2000/svg">
<path d="M19.8724 6.37883H27.3204V7.75968H24.3878V15.5438H22.7804V7.75968H19.8601L19.8724 6.37883ZM27.0014 8.90836H28.3756V10.1915H28.4002C28.4493 10.0082 28.5352 9.83707 28.6579 9.66599C28.7806 9.49492 28.9278 9.33605 29.1119 9.20163C29.2836 9.055 29.48 8.94502 29.7008 8.85948C29.9094 8.77394 30.1303 8.72506 30.3511 8.72506C30.5229 8.72506 30.6456 8.73728 30.707 8.73728C30.7683 8.7495 30.842 8.76172 30.9033 8.76172V10.167C30.8051 10.1426 30.6947 10.1304 30.5843 10.1181C30.4738 10.1059 30.3757 10.0937 30.2653 10.0937C30.0198 10.0937 29.7867 10.1426 29.5659 10.2403C29.345 10.3381 29.1609 10.4847 28.9892 10.668C28.8296 10.8635 28.6947 11.0957 28.5965 11.3768C28.4983 11.6578 28.4493 11.9878 28.4493 12.3544V15.5071H26.9768L27.0014 8.90836ZM37.6519 15.5438H36.204V14.6151H36.1795C35.9954 14.9572 35.7255 15.2139 35.3697 15.4216C35.0138 15.6293 34.6457 15.7271 34.2776 15.7271C33.4064 15.7271 32.7684 15.5193 32.3757 15.0794C31.9831 14.6517 31.7868 13.9919 31.7868 13.1242V8.90836H33.2592V12.9776C33.2592 13.5642 33.3696 13.9796 33.6028 14.2118C33.8236 14.4562 34.1426 14.5784 34.5476 14.5784C34.8543 14.5784 35.112 14.5295 35.3206 14.4318C35.5292 14.334 35.701 14.2118 35.8237 14.053C35.9586 13.8941 36.0445 13.6986 36.1059 13.4786C36.1672 13.2587 36.1918 13.0143 36.1918 12.7576V8.90836H37.6642V15.5438H37.6519ZM40.1551 13.4175C40.2041 13.8452 40.3636 14.1385 40.6459 14.3218C40.9281 14.4929 41.2716 14.5784 41.6643 14.5784C41.7993 14.5784 41.9588 14.5662 42.1306 14.5418C42.3023 14.5173 42.4741 14.4807 42.6214 14.4196C42.7809 14.3585 42.9036 14.2729 43.0017 14.1507C43.0999 14.0285 43.149 13.8819 43.1367 13.6986C43.1244 13.5153 43.0631 13.3564 42.9281 13.2342C42.7931 13.112 42.6336 13.0265 42.4373 12.9409C42.241 12.8676 42.0079 12.8065 41.7502 12.7576C41.4925 12.7088 41.2348 12.6477 40.9649 12.5866C40.6949 12.5255 40.425 12.4521 40.1673 12.3666C39.9096 12.2811 39.6888 12.1711 39.4802 12.0122C39.2839 11.8656 39.1121 11.6823 39.0017 11.4501C38.8789 11.2179 38.8176 10.9491 38.8176 10.6069C38.8176 10.2403 38.9035 9.94705 39.0875 9.70265C39.2593 9.45825 39.4925 9.26274 39.7624 9.1161C40.0323 8.96946 40.3391 8.85948 40.6704 8.79838C41.0017 8.73728 41.3207 8.71284 41.6152 8.71284C41.9588 8.71284 42.2901 8.7495 42.5968 8.82282C42.9036 8.89614 43.1981 9.00612 43.4435 9.1772C43.7011 9.33606 43.9097 9.55601 44.0693 9.81263C44.241 10.0693 44.3392 10.387 44.3883 10.7536H42.8545C42.7809 10.3992 42.6214 10.167 42.376 10.0448C42.1183 9.92261 41.8361 9.86151 41.5048 9.86151C41.4066 9.86151 41.2716 9.87373 41.1367 9.88595C40.9894 9.91039 40.8667 9.93483 40.7318 9.98371C40.6091 10.0326 40.4986 10.1059 40.4127 10.1915C40.3268 10.277 40.2778 10.3992 40.2778 10.5458C40.2778 10.7291 40.3391 10.8635 40.4618 10.9735C40.5845 11.0835 40.744 11.169 40.9526 11.2546C41.1489 11.3279 41.3821 11.389 41.6397 11.4379C41.8974 11.4868 42.1674 11.5479 42.4373 11.609C42.7073 11.6701 42.9649 11.7434 43.2226 11.8289C43.4803 11.9145 43.7134 12.0244 43.9097 12.1833C44.1061 12.3299 44.2778 12.5132 44.4005 12.7332C44.5233 12.9532 44.5846 13.2342 44.5846 13.5519C44.5846 13.943 44.4987 14.2729 44.3147 14.554C44.1306 14.8228 43.8975 15.055 43.6153 15.2261C43.333 15.3972 43.0017 15.5194 42.6582 15.6049C42.3023 15.6782 41.9588 15.7271 41.6152 15.7271C41.198 15.7271 40.8054 15.6782 40.4495 15.5804C40.0937 15.4827 39.7747 15.336 39.517 15.1528C39.2593 14.9572 39.0507 14.7251 38.9035 14.4318C38.7562 14.1507 38.6704 13.8086 38.6581 13.4053H40.1428V13.4175H40.1551ZM45.0018 8.90836H46.1184V6.90429H47.5908V8.89614H48.916V9.98371H47.5908V13.5275C47.5908 13.6864 47.6031 13.8086 47.6153 13.9308C47.6276 14.0407 47.6644 14.1385 47.7012 14.2118C47.7503 14.2851 47.8239 14.3462 47.9098 14.3829C48.008 14.4196 48.1307 14.444 48.3025 14.444C48.4006 14.444 48.5111 14.444 48.6092 14.4318C48.7074 14.4196 48.8178 14.4073 48.916 14.3829V15.5193C48.7565 15.5438 48.597 15.556 48.4375 15.5682C48.2779 15.5927 48.1307 15.5927 47.9589 15.5927C47.5663 15.5927 47.2595 15.556 47.0264 15.4827C46.7932 15.4094 46.6092 15.2994 46.4742 15.165C46.3392 15.0183 46.2533 14.8472 46.2043 14.6395C46.1552 14.4318 46.1306 14.1752 46.1184 13.9063V9.99593H45.0018V8.88392V8.90836ZM49.9467 8.90836H51.3332V9.81263H51.3578C51.5664 9.42159 51.8486 9.15276 52.2167 8.98168C52.5848 8.8106 52.9774 8.72506 53.4192 8.72506C53.9468 8.72506 54.4008 8.8106 54.7934 9.00612C55.1861 9.18942 55.5051 9.43381 55.7628 9.76375C56.0204 10.0815 56.2168 10.4603 56.3395 10.888C56.4622 11.3157 56.5358 11.78 56.5358 12.2566C56.5358 12.7088 56.4744 13.1365 56.364 13.5519C56.2413 13.9674 56.0695 14.3462 55.8364 14.664C55.6033 14.9817 55.3088 15.2383 54.9407 15.4338C54.5726 15.6293 54.1554 15.7271 53.6646 15.7271C53.456 15.7271 53.2351 15.7026 53.0265 15.666C52.8179 15.6293 52.6093 15.5682 52.413 15.4827C52.2167 15.3972 52.0326 15.2872 51.8731 15.1528C51.7013 15.0183 51.5664 14.8595 51.4559 14.6884H51.4314V18H49.959V8.90836H49.9467ZM55.0879 12.2322C55.0879 11.9389 55.0511 11.6456 54.9652 11.3646C54.8916 11.0835 54.7689 10.8391 54.6094 10.6191C54.4499 10.3992 54.2535 10.2281 54.0327 10.0937C53.7995 9.95927 53.5296 9.89817 53.2351 9.89817C52.6216 9.89817 52.1553 10.1059 51.8363 10.5336C51.5295 10.9613 51.37 11.5356 51.37 12.2444C51.37 12.5866 51.4068 12.8921 51.4927 13.1731C51.5786 13.4542 51.6891 13.6986 51.8608 13.9063C52.0204 14.1141 52.2167 14.2729 52.4498 14.3951C52.6829 14.5173 52.9406 14.5784 53.2474 14.5784C53.5909 14.5784 53.8609 14.5051 54.094 14.3707C54.3272 14.2363 54.5112 14.053 54.6707 13.8452C54.818 13.6253 54.9284 13.3809 54.9897 13.0998C55.0511 12.8065 55.0879 12.5255 55.0879 12.2322ZM57.6769 6.37883H59.1493V7.75968H57.6769V6.37883ZM57.6769 8.90836H59.1493V15.5438H57.6769V8.90836ZM60.4623 6.37883H61.9347V15.5438H60.4623V6.37883ZM66.4256 15.7271C65.898 15.7271 65.4194 15.6415 65.0022 15.4582C64.5851 15.275 64.2415 15.0428 63.947 14.7373C63.6648 14.4318 63.4439 14.053 63.2967 13.6253C63.1494 13.1976 63.0636 12.721 63.0636 12.22C63.0636 11.7189 63.1372 11.2546 63.2967 10.8269C63.4439 10.3992 63.6648 10.0326 63.947 9.71487C64.2292 9.40938 64.5851 9.16498 65.0022 8.9939C65.4194 8.82282 65.898 8.72506 66.4256 8.72506C66.9532 8.72506 67.4318 8.8106 67.8489 8.9939C68.2661 9.16498 68.6097 9.40938 68.9042 9.71487C69.1864 10.0204 69.4073 10.3992 69.5545 10.8269C69.7017 11.2546 69.7876 11.7189 69.7876 12.22C69.7876 12.7332 69.714 13.1976 69.5545 13.6253C69.395 14.053 69.1864 14.4196 68.9042 14.7373C68.622 15.0428 68.2661 15.2872 67.8489 15.4582C67.4318 15.6293 66.9655 15.7271 66.4256 15.7271ZM66.4256 14.5662C66.7446 14.5662 67.0391 14.4929 67.2722 14.3585C67.5176 14.224 67.7017 14.0407 67.8612 13.8208C68.0207 13.6008 68.1311 13.3442 68.2048 13.0754C68.2784 12.7943 68.3152 12.5132 68.3152 12.22C68.3152 11.9389 68.2784 11.6578 68.2048 11.3768C68.1311 11.0957 68.0207 10.8513 67.8612 10.6314C67.7017 10.4114 67.5054 10.2403 67.2722 10.1059C67.0268 9.97149 66.7446 9.89817 66.4256 9.89817C66.1066 9.89817 65.8121 9.97149 65.5789 10.1059C65.3335 10.2403 65.1495 10.4236 64.99 10.6314C64.8305 10.8513 64.72 11.0957 64.6464 11.3768C64.5728 11.6578 64.536 11.9389 64.536 12.22C64.536 12.5132 64.5728 12.7943 64.6464 13.0754C64.72 13.3564 64.8305 13.6008 64.99 13.8208C65.1495 14.0407 65.3458 14.224 65.5789 14.3585C65.8244 14.5051 66.1066 14.5662 66.4256 14.5662ZM70.2294 8.90836H71.346V6.90429H72.8184V8.89614H74.1436V9.98371H72.8184V13.5275C72.8184 13.6864 72.8307 13.8086 72.8429 13.9308C72.8552 14.0407 72.892 14.1385 72.9288 14.2118C72.9779 14.2851 73.0515 14.3462 73.1374 14.3829C73.2356 14.4196 73.3583 14.444 73.5301 14.444C73.6282 14.444 73.7386 14.444 73.8368 14.4318C73.935 14.4196 74.0454 14.4073 74.1436 14.3829V15.5193C73.984 15.5438 73.8245 15.556 73.665 15.5682C73.5055 15.5927 73.3583 15.5927 73.1865 15.5927C72.7938 15.5927 72.4871 15.556 72.2539 15.4827C72.0208 15.4094 71.8368 15.2994 71.7018 15.165C71.5668 15.0183 71.4809 14.8472 71.4318 14.6395C71.3828 14.4318 71.3582 14.1752 71.346 13.9063V9.99593H70.2294V8.88392V8.90836Z" fill="#FAFAFA"/>
<path d="M18.1545 6.37881H11.4182L9.3445 0L7.25857 6.37881L0.522217 6.36659L5.97019 10.3136L3.88426 16.6924L9.33223 12.7454L14.7802 16.6924L12.7065 10.3136L18.1545 6.37881Z" fill="#00B67A"/>
<path d="M13.1728 11.7555L12.7065 10.3135L9.34448 12.7453L13.1728 11.7555Z" fill="#005128"/>
</svg>
