<svg width="90" height="69" viewBox="0 0 90 69" fill="none" xmlns="http://www.w3.org/2000/svg">
<path d="M90 28.2338C90 33.932 85.2923 38.5941 79.483 38.5941C73.6737 38.5941 68.9631 33.932 68.9631 28.2338C68.9631 22.5084 73.6737 17.8735 79.483 17.8735C85.2923 17.8735 90 22.5084 90 28.2338Z" fill="#FFF7E3"/>
<path d="M21.0369 28.2338C21.0369 33.932 16.3291 38.5941 10.5198 38.5941C4.71052 38.5941 0 33.932 0 28.2338C0 22.5084 4.71052 17.8735 10.5198 17.8735C16.3291 17.8735 21.0369 22.5084 21.0369 28.2338Z" fill="#FFF7E3"/>
<path d="M79.4023 34.4815C79.4023 15.4379 63.9644 0 44.9208 0C25.8771 0 10.4392 15.4379 10.4392 34.4815V62.0035C10.4392 65.8472 13.5551 68.9631 17.3988 68.9631H72.4427C76.2864 68.9631 79.4023 65.8472 79.4023 62.0035V34.4815Z" fill="#F0B151"/>
<path d="M55.3603 21.7487C55.3603 27.4469 50.6525 32.109 44.8432 32.109C39.0339 32.109 34.3234 27.4469 34.3234 21.7487C34.3234 16.0233 39.0339 11.3884 44.8432 11.3884C50.6525 11.3884 55.3603 16.0233 55.3603 21.7487Z" fill="#FFF7E3"/>
</svg>
