<svg width="37" height="34" viewBox="0 0 37 34" fill="none" xmlns="http://www.w3.org/2000/svg">
<path d="M32 8.66675H5.33333C3.49238 8.66675 2 10.1591 2 12.0001V28.6667C2 30.5077 3.49238 32.0001 5.33333 32.0001H32C33.8409 32.0001 35.3333 30.5077 35.3333 28.6667V12.0001C35.3333 10.1591 33.8409 8.66675 32 8.66675Z" stroke="white" stroke-width="3.33333" stroke-linecap="round" stroke-linejoin="round"/>
<path d="M25.3333 32V5.33333C25.3333 4.44928 24.9821 3.60143 24.357 2.97631C23.7319 2.35119 22.8841 2 22 2H15.3333C14.4493 2 13.6014 2.35119 12.9763 2.97631C12.3512 3.60143 12 4.44928 12 5.33333V32" stroke="white" stroke-width="3.33333" stroke-linecap="round" stroke-linejoin="round"/>
</svg>
