<svg width="134" height="40" viewBox="0 0 134 40" fill="none" xmlns="http://www.w3.org/2000/svg">
<path fill-rule="evenodd" clip-rule="evenodd" d="M20 40C31.0457 40 40 31.0457 40 20C40 8.9543 31.0457 0 20 0C8.9543 0 0 8.9543 0 20C0 31.0457 8.9543 40 20 40ZM25.8442 20.1299C29.1435 20.1299 31.8182 17.4552 31.8182 14.1558C31.8182 10.8565 29.1435 8.18181 25.8442 8.18181C22.5448 8.18181 19.8701 10.8565 19.8701 14.1558C19.8701 17.4552 22.5448 20.1299 25.8442 20.1299Z" fill="#363636"/>
<path d="M66.08 32.3794C73.4532 32.3794 79.4325 26.615 79.4325 19.0994C79.4325 11.5838 73.4532 5.8194 66.08 5.8194C58.7068 5.8194 52.7275 11.5838 52.7275 19.0994C52.7275 26.615 58.7068 32.3794 66.08 32.3794ZM66.08 26.688C61.8982 26.688 58.5968 23.6598 58.5968 19.0994C58.5968 14.539 61.8982 11.5108 66.08 11.5108C70.2618 11.5108 73.5633 14.539 73.5633 19.0994C73.5633 23.6598 70.2618 26.688 66.08 26.688Z" fill="#363636"/>
<path d="M88.056 16.8739V13.6269H82.5537V31.8686H88.056V23.6233C88.056 20.0115 91.2841 19.0994 93.5584 19.4642V13.262C91.2474 13.262 88.7897 14.4295 88.056 16.8739Z" fill="#363636"/>
<path d="M104.397 32.3794C107.992 32.3794 111.11 30.5187 112.687 27.673L107.882 24.9368C107.295 26.2137 105.938 26.9798 104.324 26.9798C101.939 26.9798 100.178 25.2651 100.178 22.7477C100.178 20.2304 101.939 18.5157 104.324 18.5157C105.938 18.5157 107.258 19.2818 107.882 20.5587L112.687 17.786C111.11 14.9768 107.955 13.1161 104.397 13.1161C98.8212 13.1161 94.6761 17.3117 94.6761 22.7477C94.6761 28.1838 98.8212 32.3794 104.397 32.3794Z" fill="#363636"/>
<path d="M127.859 13.6269V15.3416C126.649 13.9552 124.851 13.1161 122.394 13.1161C117.588 13.1161 113.626 17.3117 113.626 22.7477C113.626 28.1838 117.588 32.3794 122.394 32.3794C124.851 32.3794 126.649 31.5403 127.859 30.1539V31.8686H133.362V13.6269H127.859ZM123.494 27.1987C120.963 27.1987 119.129 25.484 119.129 22.7477C119.129 20.0115 120.963 18.2968 123.494 18.2968C126.025 18.2968 127.859 20.0115 127.859 22.7477C127.859 25.484 126.025 27.1987 123.494 27.1987Z" fill="#363636"/>
</svg>
