<svg width="44" height="44" viewBox="0 0 44 44" fill="none" xmlns="http://www.w3.org/2000/svg">
<path d="M5.66986 17.2412H38.3471" stroke="#7FFF00" stroke-width="2.5" stroke-linecap="round" stroke-linejoin="round"/>
<path fill-rule="evenodd" clip-rule="evenodd" d="M13.1061 24.4012C13.1061 23.987 13.4419 23.6512 13.8561 23.6512H13.8731C14.2873 23.6512 14.6231 23.987 14.6231 24.4012C14.6231 24.8154 14.2873 25.1512 13.8731 25.1512H13.8561C13.4419 25.1512 13.1061 24.8154 13.1061 24.4012ZM22.0085 23.6512C21.5943 23.6512 21.2585 23.987 21.2585 24.4012C21.2585 24.8154 21.5943 25.1512 22.0085 25.1512H22.0255C22.4397 25.1512 22.7755 24.8154 22.7755 24.4012C22.7755 23.987 22.4397 23.6512 22.0255 23.6512H22.0085ZM30.1438 23.6512C29.7296 23.6512 29.3938 23.987 29.3938 24.4012C29.3938 24.8154 29.7296 25.1512 30.1438 25.1512H30.1608C30.575 25.1512 30.9108 24.8154 30.9108 24.4012C30.9108 23.987 30.575 23.6512 30.1608 23.6512H30.1438ZM30.1438 30.7764C29.7296 30.7764 29.3938 31.1122 29.3938 31.5264C29.3938 31.9406 29.7296 32.2764 30.1438 32.2764H30.1608C30.575 32.2764 30.9108 31.9406 30.9108 31.5264C30.9108 31.1122 30.575 30.7764 30.1608 30.7764H30.1438ZM21.2585 31.5264C21.2585 31.1122 21.5943 30.7764 22.0085 30.7764H22.0255C22.4397 30.7764 22.7755 31.1122 22.7755 31.5264C22.7755 31.9406 22.4397 32.2764 22.0255 32.2764H22.0085C21.5943 32.2764 21.2585 31.9406 21.2585 31.5264ZM13.8561 30.7764C13.4419 30.7764 13.1061 31.1122 13.1061 31.5264C13.1061 31.9406 13.4419 32.2764 13.8561 32.2764H13.8731C14.2873 32.2764 14.6231 31.9406 14.6231 31.5264C14.6231 31.1122 14.2873 30.7764 13.8731 30.7764H13.8561Z" fill="#7FFF00"/>
<path d="M29.4135 3.66669V9.69978" stroke="white" stroke-width="2.5" stroke-linecap="round" stroke-linejoin="round"/>
<path d="M14.6034 3.66669V9.69978" stroke="white" stroke-width="2.5" stroke-linecap="round" stroke-linejoin="round"/>
<path fill-rule="evenodd" clip-rule="evenodd" d="M29.7702 6.56189H14.2468C8.86283 6.56189 5.5 9.5611 5.5 15.0741V31.6651C5.5 37.2648 8.86283 40.3334 14.2468 40.3334H29.7532C35.1541 40.3334 38.4999 37.3168 38.4999 31.8038V15.0741C38.5169 9.5611 35.1711 6.56189 29.7702 6.56189Z" stroke="white" stroke-width="2.5" stroke-linecap="round" stroke-linejoin="round"/>
</svg>
