<svg width="14" height="8" viewBox="0 0 14 8" xmlns="http://www.w3.org/2000/svg">
<path d="M0.651249 6.14737C0.238466 6.51428 0.201285 7.14636 0.568203 7.55914C0.935122 7.97192 1.56719 8.0091 1.97998 7.64218L0.651249 6.14737ZM6.99982 1.84214L7.66419 1.09473C7.2853 0.757947 6.71434 0.757947 6.33546 1.09473L6.99982 1.84214ZM12.0197 7.64218C12.4325 8.0091 13.0645 7.97192 13.4314 7.55914C13.7984 7.14636 13.7612 6.51428 13.3484 6.14737L12.0197 7.64218ZM1.97998 7.64218L7.66419 2.58955L6.33546 1.09473L0.651249 6.14737L1.97998 7.64218ZM6.33546 2.58955L12.0197 7.64218L13.3484 6.14737L7.66419 1.09473L6.33546 2.58955Z"/>
</svg>
