<svg width="120" height="40" viewBox="0 0 120 40" fill="none" xmlns="http://www.w3.org/2000/svg">
<path fill-rule="evenodd" clip-rule="evenodd" d="M8 0H112C116.418 0 120 3.58172 120 8V32C120 36.4183 116.418 40 112 40H8C3.58172 40 0 36.4183 0 32V8C0 3.58172 3.58172 0 8 0ZM7.47116 29.5727C6.94097 29.5909 6.41315 29.4937 5.92419 29.2878L6.7348 27.6287C7.17538 27.8317 7.65042 27.9495 8.1348 27.9757C9.8651 27.9757 11.3212 26.5863 12.4575 23.859L13.2151 22.0212H6.21207L6.90753 20.6742H13.7106L14.4681 18.8712H8.59389L9.29086 17.5075H15.0257L15.0848 17.3772C16.8227 13.4697 19.2787 11.4893 22.3818 11.4893C23.0011 11.4971 23.6129 11.6252 24.1833 11.8666L23.1454 13.4424C22.6975 13.2362 22.2149 13.1159 21.7227 13.0878C19.9681 13.0878 18.503 14.4772 17.3666 17.2045L17.2393 17.5075H20.5909L19.8954 18.8712H16.753L14.7666 23.6894C13.0287 27.5924 10.5742 29.5727 7.47116 29.5727ZM39.5439 17.3909C40.1712 17.3919 40.9166 17.5909 41.7803 17.9878L41.0166 19.4136C40.8027 19.1882 40.5458 19.0079 40.2612 18.8833C39.9765 18.7586 39.6698 18.6922 39.359 18.6878C38.9827 18.6772 38.6123 18.783 38.2984 18.9909C38.1572 19.0771 38.0391 19.1967 37.9546 19.339C37.8701 19.4813 37.8217 19.6422 37.8136 19.8075C37.8035 19.922 37.8172 20.0373 37.8537 20.1463C37.8902 20.2553 37.9487 20.3555 38.0257 20.4409C38.2689 20.6822 38.5486 20.8836 38.8545 21.0378L39.95 21.6439C40.2631 21.8062 40.5206 22.0584 40.6893 22.3681C40.8461 22.6645 40.9165 22.9989 40.8924 23.3333C40.8825 23.7609 40.7757 24.1808 40.5799 24.5611C40.3841 24.9414 40.1044 25.2723 39.7621 25.5287C39.0651 26.0666 38.1969 26.3348 37.1666 26.3348C36.3164 26.3504 35.4805 26.1148 34.7636 25.6575L35.6439 24.2075C35.8946 24.4519 36.1891 24.6467 36.5121 24.7818C36.8211 24.9388 37.1598 25.0286 37.506 25.0454C37.9428 25.0606 38.3713 24.9234 38.7181 24.6575C38.8779 24.5335 39.0082 24.3755 39.0994 24.195C39.1906 24.0144 39.2404 23.8158 39.2454 23.6136C39.2532 23.5035 39.2384 23.3929 39.2019 23.2887C39.1654 23.1844 39.1081 23.0888 39.0333 23.0075C38.7936 22.7663 38.5194 22.562 38.2197 22.4015L37.1181 21.7742C36.8024 21.5985 36.5441 21.3355 36.3742 21.0166C36.2178 20.7184 36.1465 20.3829 36.1681 20.0469C36.1817 19.6673 36.2828 19.2959 36.4636 18.9619C36.6445 18.6278 36.9001 18.3401 37.2106 18.1212C37.8862 17.6265 38.7068 17.3697 39.5439 17.3909ZM32.6878 17.3909C33.5151 17.3909 34.1575 17.5363 34.6121 17.8212L34.2606 19.1363C33.8893 18.8333 33.3803 18.6818 32.7272 18.6818C32.2553 18.6769 31.7886 18.7802 31.3629 18.9838C30.9371 19.1873 30.5637 19.4857 30.2712 19.856C29.603 20.6698 29.2236 21.6823 29.1924 22.7348C29.152 23.4298 29.3181 23.9853 29.6909 24.4015C29.8512 24.5955 30.0523 24.7519 30.2798 24.8595C30.5074 24.9672 30.7558 25.0234 31.0075 25.0242C31.823 25.0133 32.6171 24.7624 33.2909 24.303L33.0303 25.8666C32.289 26.1797 31.4909 26.336 30.6863 26.3257C29.6237 26.3257 28.8247 26.0227 28.2893 25.4166C27.754 24.8106 27.5151 24.0025 27.5727 22.9924C27.6636 21.35 28.1904 20.006 29.153 18.9606C29.5934 18.4586 30.1376 18.0583 30.7479 17.7873C31.3582 17.5163 32.0201 17.381 32.6878 17.3909ZM24.5818 17.3909C25.208 17.3919 25.9535 17.5909 26.8181 17.9878L26.0606 19.406C25.8452 19.181 25.5868 19.0014 25.3008 18.8781C25.0148 18.7547 24.7069 18.69 24.3954 18.6878C24.0192 18.6778 23.6489 18.7836 23.3348 18.9909C23.194 19.0776 23.0763 19.1973 22.9918 19.3395C22.9074 19.4817 22.8587 19.6423 22.85 19.8075C22.8406 19.9221 22.8547 20.0373 22.8914 20.1462C22.9281 20.2552 22.9867 20.3554 23.0636 20.4409C23.3065 20.6825 23.5862 20.884 23.8924 21.0378L24.9863 21.6439C25.3 21.8061 25.558 22.0583 25.7272 22.3681C25.884 22.6645 25.9543 22.9989 25.9303 23.3333C25.9213 23.7603 25.8156 24.1797 25.6212 24.56C25.4267 24.9403 25.1485 25.2715 24.8075 25.5287C24.1075 26.0661 23.2424 26.3348 22.2121 26.3348C21.3618 26.3507 20.5259 26.1151 19.809 25.6575L20.6878 24.2075C20.9391 24.4519 21.2341 24.6467 21.5575 24.7818C21.8671 24.9388 22.2063 25.0286 22.553 25.0454C22.9897 25.0598 23.4179 24.9228 23.7651 24.6575C23.9246 24.5334 24.0546 24.3753 24.1455 24.1947C24.2364 24.0142 24.2861 23.8157 24.2909 23.6136C24.2979 23.5036 24.2829 23.3934 24.2467 23.2893C24.2105 23.1852 24.1539 23.0894 24.0803 23.0075C23.84 22.7663 23.5653 22.5621 23.2651 22.4015L22.1636 21.7742C21.8479 21.5985 21.5896 21.3355 21.4196 21.0166C21.2628 20.7185 21.191 20.3831 21.2121 20.0469C21.2251 19.668 21.3252 19.2972 21.5047 18.9632C21.6841 18.6293 21.9381 18.3411 22.2469 18.1212C22.923 17.6262 23.7441 17.3694 24.5818 17.3909ZM26.9924 5.83632C27.5742 5.80753 28.153 5.79541 28.7318 5.79541L28.8333 5.80147H29.509C30.3515 5.81662 31.1863 5.84996 32.0181 5.91814C32.85 5.98632 33.6863 6.07268 34.5166 6.19996C35.3469 6.32723 36.1727 6.48177 36.9909 6.67874C38.6411 7.05619 40.2381 7.63688 41.7454 8.40753C42.509 8.80192 43.2296 9.27467 43.8954 9.81814C44.5793 10.3711 45.1821 11.0173 45.6863 11.7378C46.2039 12.4836 46.5992 13.307 46.8575 14.1772C47.1144 15.0674 47.254 15.9873 47.2727 16.9136V17.2272V17.2909C47.25 19.033 46.943 20.7598 46.3636 22.403C46.0582 23.2828 45.6901 24.1395 45.2621 24.9666C44.8404 25.793 44.363 26.5898 43.8333 27.3515C42.7898 28.8704 41.523 30.223 40.0757 31.3636C38.6513 32.4932 37.0256 33.3425 35.2848 33.8666L34.9545 33.956C34.8333 33.9878 34.759 34.006 34.6303 34.0363C34.4151 34.0878 34.1848 34.1318 33.9606 34.1697C33.5127 34.2394 33.0607 34.2799 32.6075 34.2909C32.1577 34.3031 31.7076 34.2833 31.2606 34.2318C30.8159 34.1843 30.375 34.1068 29.9409 34C28.4846 33.6359 27.1049 33.015 25.8666 32.1666L25.8757 32.1757C24.0181 30.9075 22.4878 29.4848 21.3863 28.056C21.3643 28.0308 21.3519 27.9986 21.3515 27.9651C21.3515 27.9249 21.3674 27.8864 21.3958 27.858C21.4243 27.8296 21.4628 27.8136 21.503 27.8136C21.5379 27.8139 21.5716 27.8262 21.5984 27.8484C21.6049 27.8543 21.612 27.8594 21.6196 27.8636L21.6333 27.8787C22.9406 28.9003 24.34 29.7981 25.8136 30.5606C27.2197 31.301 28.7313 31.8207 30.2954 32.1015C30.6818 32.1606 31.0545 32.209 31.4393 32.2287C31.8242 32.2484 32.203 32.2439 32.5818 32.2287C32.9618 32.2093 33.3404 32.1663 33.7151 32.1C33.9015 32.0697 34.0894 32.0318 34.2742 31.9894C34.3515 31.9727 34.4803 31.9409 34.5621 31.9197L34.8393 31.8439C36.3773 31.3978 37.8352 30.7115 39.159 29.8106C39.5 29.5848 39.8333 29.3409 40.1606 29.0894C40.4878 28.8378 40.809 28.5727 41.1212 28.2939C41.7572 27.7356 42.3536 27.1336 42.906 26.4924C43.4711 25.8395 43.9905 25.1485 44.4606 24.4242C44.9357 23.6855 45.3545 22.9121 45.7136 22.1106C46.4588 20.481 46.8655 18.7171 46.909 16.9257C46.921 16.0338 46.8067 15.1447 46.5696 14.2848C46.3338 13.4449 45.9567 12.6512 45.4545 11.9378C45.2081 11.5895 44.9345 11.2612 44.6363 10.956C44.3419 10.6553 44.027 10.3753 43.6939 10.1181C43.0312 9.6163 42.3165 9.18708 41.5621 8.83784C40.0576 8.16598 38.4729 7.69085 36.8469 7.4242C36.0393 7.27268 35.2287 7.16359 34.4121 7.08177C33.5954 6.99996 32.7757 6.9348 31.953 6.89996C30.3106 6.82571 28.6575 6.81662 27.0136 6.87268C25.3672 6.93581 23.7265 7.10383 22.1015 7.37571C21.2848 7.51511 20.4757 7.6848 19.6772 7.89541C18.876 8.10249 18.0873 8.35544 17.3151 8.65299C16.5402 8.94899 15.7933 9.31357 15.0833 9.74238C14.3669 10.1655 13.7329 10.7147 13.2121 11.3636C12.9541 11.6896 12.7509 12.0555 12.6106 12.4469C12.4766 12.8431 12.4195 13.2612 12.4424 13.6787C12.4694 14.104 12.5635 14.5223 12.7212 14.9181C12.7319 14.9449 12.7431 14.9711 12.7542 14.9971C12.762 15.0153 12.7697 15.0334 12.7772 15.0515C12.7881 15.0753 12.7938 15.1011 12.7939 15.1272C12.7927 15.1792 12.771 15.2286 12.7335 15.2646C12.6961 15.3007 12.6459 15.3205 12.5939 15.3197C12.5646 15.3185 12.5358 15.311 12.5097 15.2976C12.4835 15.2843 12.4605 15.2655 12.4424 15.2424C12.433 15.2229 12.423 15.2034 12.4129 15.1838C12.4003 15.1592 12.3875 15.1344 12.3757 15.109C12.1716 14.6789 12.039 14.2183 11.9833 13.7454C11.9273 13.251 11.9701 12.7504 12.109 12.2727C12.2486 11.802 12.464 11.3573 12.7469 10.956C13.0156 10.5732 13.3261 10.2215 13.6727 9.90753C14.0057 9.60413 14.3602 9.32512 14.7333 9.07268C15.4656 8.58749 16.2429 8.17396 17.0545 7.83783C18.6372 7.18579 20.2849 6.70428 21.9697 6.40147C23.6283 6.09362 25.3068 5.90475 26.9924 5.83632ZM110.837 24.7449L110.996 25.3812V25.3989H111.986V14.5454H110.695V18.4519C110.271 18.1514 109.564 17.9216 108.928 17.9216C107.178 17.9216 105.551 19.5125 105.551 21.8105C105.551 23.9848 106.771 25.5933 108.733 25.5933C109.422 25.5933 110.271 25.2928 110.837 24.7449ZM56.993 21.4216C56.8516 21.4216 56.7058 21.4172 56.56 21.4128C56.4141 21.4084 56.2683 21.404 56.1269 21.404V25.3812H54.7127V14.9696C55.3491 14.8459 56.0562 14.7752 56.7456 14.7752C58.2127 14.7752 59.6092 15.005 60.334 16.4545C60.5814 16.9317 60.6875 17.4444 60.6875 17.957C60.6698 20.2373 59.1496 21.4216 56.993 21.4216ZM65.6901 19.1237C65.5133 19.0707 65.2482 19.0707 65.0007 19.0707C64.329 19.0707 63.7456 19.4772 63.3744 20.0429V25.3989H62.084V18.1161H63.1092L63.2507 18.8762C63.6572 18.2929 64.382 17.9217 65.1067 17.9217C65.3365 17.9217 65.5486 17.957 65.7961 18.0277L65.6901 19.1237ZM66.1141 21.6867C66.1141 23.8963 67.3338 25.5756 69.6495 25.5756C71.9298 25.5756 73.2202 23.8433 73.2025 21.6867C73.2025 19.5655 71.9474 17.8509 69.6848 17.8509C67.4575 17.8509 66.1141 19.5478 66.1141 21.6867ZM76.9679 25.5757C76.0311 25.5757 75.4301 25.2045 75.1119 24.4798C74.9528 24.1262 74.8998 23.5606 74.8998 22.6414V18.9823H73.8392V18.1161H74.8998V16.7373L76.2078 16.2247V18.1161H78.2407V18.9823H76.2078V22.7474C76.2078 23.2954 76.2609 23.7197 76.3493 23.9671C76.4907 24.3384 76.7735 24.5505 77.2508 24.5505C77.6397 24.5505 78.0639 24.3737 78.5765 24.0202L78.771 24.957C78.1876 25.3636 77.5866 25.5757 76.9679 25.5757ZM84.1445 22.0088C84.5549 22.0127 84.9733 22.0167 85.3996 22.0049C85.433 21.7044 85.4506 21.4038 85.4673 21.1182L85.4703 21.068C85.4703 19.9544 85.0991 18.9291 84.1622 18.3105C83.7026 18.0276 83.1723 17.8509 82.589 17.8509C80.3617 17.8509 79.1597 19.6009 79.1597 21.669C79.1597 23.8433 80.3263 25.5756 82.642 25.5756C83.6142 25.5756 84.5157 25.3281 85.3112 24.7271L85.1521 23.6665C84.4274 24.2498 83.6672 24.5327 82.8188 24.5327C81.3693 24.5327 80.6269 23.3483 80.5738 22.0049H83.5435C83.7419 22.0049 83.9423 22.0068 84.1445 22.0088ZM90.0131 25.5756C87.8566 25.5756 86.4071 23.9317 86.4071 21.8281C86.4071 19.5478 87.8919 17.8509 90.1899 17.8509C90.9854 17.8509 91.7455 18.0453 92.4172 18.5403L92.152 19.5302C91.5333 19.1236 90.9146 18.8938 90.2253 18.8938C88.6874 18.8938 87.7859 20.2019 87.7859 21.6514C87.7859 23.1185 88.5636 24.5327 90.1722 24.5327C90.897 24.5327 91.5864 24.3206 92.2404 23.8963L92.4879 24.8685C91.7278 25.3281 90.8793 25.5756 90.0131 25.5756ZM94.3089 24.4798C94.627 25.2045 95.2281 25.5757 96.1649 25.5757C96.8013 25.5757 97.3846 25.3636 97.968 24.957L97.7735 24.0202C97.2609 24.3737 96.8366 24.5505 96.4478 24.5505C95.9705 24.5505 95.6877 24.3384 95.5462 23.9671C95.4579 23.7197 95.4048 23.2954 95.4048 22.7474V18.9823H97.4377V18.1161H95.4048V16.2247L94.0967 16.7373V18.1161H93.0361V18.9823H94.0967V22.6414C94.0967 23.5606 94.1498 24.1262 94.3089 24.4798ZM104.579 22.0049C104.152 22.0167 103.734 22.0127 103.324 22.0088C103.121 22.0068 102.921 22.0049 102.723 22.0049H99.753C99.806 23.3483 100.548 24.5327 101.998 24.5327C102.846 24.5327 103.607 24.2498 104.331 23.6665L104.49 24.7271C103.695 25.3281 102.793 25.5756 101.821 25.5756C99.5055 25.5756 98.3389 23.8433 98.3389 21.669C98.3389 19.6009 99.5409 17.8509 101.768 17.8509C102.352 17.8509 102.882 18.0276 103.341 18.3105C104.278 18.9291 104.649 19.9544 104.649 21.068L104.647 21.118C104.63 21.4037 104.612 21.7043 104.579 22.0049Z" fill="#E3E3E3"/>
<path fill-rule="evenodd" clip-rule="evenodd" d="M57.0107 15.9418C56.7102 15.9418 56.392 15.9595 56.1092 15.9949V20.2373C56.392 20.255 56.7102 20.2727 56.993 20.2727C58.4072 20.2727 59.2203 19.5302 59.2203 18.1161C59.2203 16.6312 58.4602 15.9418 57.0107 15.9418ZM67.5282 21.7044C67.5282 20.3433 68.1646 18.8761 69.7025 18.8761C71.2404 18.8761 71.806 20.361 71.8237 21.7044C71.8237 23.0478 71.205 24.568 69.6671 24.568C68.1293 24.568 67.5282 23.0478 67.5282 21.7044ZM80.5915 20.9973C80.6976 19.9014 81.2809 18.9115 82.4829 18.9115C83.5435 18.9115 84.0915 19.8483 84.0915 20.8559C84.0915 20.8824 84.0871 20.9045 84.0827 20.9266C84.0782 20.9487 84.0738 20.9708 84.0738 20.9973H80.5915ZM99.7707 20.9973C99.8768 19.9014 100.46 18.9115 101.662 18.9115C102.74 18.9115 103.271 19.8483 103.271 20.8559C103.271 20.869 103.27 20.8811 103.268 20.8926C103.266 20.9043 103.264 20.9155 103.262 20.9267C103.257 20.9488 103.253 20.9708 103.253 20.9973H99.7707ZM109.069 18.9646C109.723 18.9646 110.359 19.2297 110.695 19.4949V23.7196C110.324 24.1262 109.635 24.4797 108.928 24.4797C107.743 24.4797 106.948 23.4898 106.948 21.7045C106.948 19.813 108.079 18.9646 109.069 18.9646Z" fill="#E3E3E3"/>
</svg>
