<svg width="61" height="31" viewBox="0 0 61 31" fill="none" xmlns="http://www.w3.org/2000/svg">
<path d="M0 1.57542H7.35616V30.3425H0V1.57542Z" fill="white"/>
<path d="M21.7108 30.959C18.6697 30.959 16.1492 30.3151 14.1492 29.0275C12.1492 27.7398 10.7519 26.0001 9.95741 23.8083L16.2451 20.1508C17.3136 22.6987 19.204 23.9727 21.9163 23.9727C24.1629 23.9727 25.2862 23.3288 25.2862 22.0412C25.2862 21.1919 24.6423 20.5069 23.3547 19.9864C22.8067 19.7672 21.6012 19.3973 19.7382 18.8768C17.1081 18.1097 15.0259 17.0412 13.4917 15.6713C11.9574 14.2741 11.1903 12.3425 11.1903 9.87679C11.1903 7.21926 12.1355 5.06857 14.0259 3.42474C15.9437 1.7809 18.3273 0.958984 21.1766 0.958984C23.5875 0.958984 25.7245 1.52063 27.5875 2.64392C29.4506 3.7672 30.8752 5.39734 31.8615 7.53433L25.6971 11.1508C24.793 9.01378 23.2999 7.94529 21.2177 7.94529C20.341 7.94529 19.6697 8.12337 19.204 8.47953C18.7656 8.8357 18.5464 9.28775 18.5464 9.8357C18.5464 10.4658 18.8752 11.0001 19.5327 11.4384C20.2177 11.8768 21.5327 12.3836 23.478 12.959C24.8752 13.3699 25.9985 13.7535 26.8478 14.1097C27.6971 14.4658 28.6286 14.9864 29.6423 15.6713C30.656 16.3288 31.4095 17.1919 31.9026 18.2604C32.3958 19.3015 32.6423 20.5343 32.6423 21.959C32.6423 24.7809 31.6423 26.9864 29.6423 28.5754C27.6423 30.1645 24.9985 30.959 21.7108 30.959Z" fill="white"/>
<path d="M52.6641 30.3425L51.4312 26.1919H41.8558L40.623 30.3425H32.6504L42.1435 1.57542H51.1024L60.5956 30.3425H52.6641ZM43.7463 19.8631H49.5408L46.623 10.0823L43.7463 19.8631Z" fill="white"/>
</svg>
