<svg width="113" height="60" viewBox="0 0 113 60" fill="none" xmlns="http://www.w3.org/2000/svg">
<path fill-rule="evenodd" clip-rule="evenodd" d="M16.6046 33.0289C25.775 33.0289 33.2092 25.6351 33.2092 16.5145C33.2092 7.39378 25.775 0 16.6046 0C7.43412 0 0 7.39378 0 16.5145C0 25.6351 7.43412 33.0289 16.6046 33.0289ZM21.4566 16.6217C24.1958 16.6217 26.4164 14.4132 26.4164 11.6888C26.4164 8.96444 24.1958 6.75591 21.4566 6.75591C18.7174 6.75591 16.4968 8.96444 16.4968 11.6888C16.4968 14.4132 18.7174 16.6217 21.4566 16.6217Z" fill="black"/>
<path d="M54.5639 26.9312C60.6521 26.9312 65.5893 22.1714 65.5893 15.9656C65.5893 9.75979 60.6521 5 54.5639 5C48.4757 5 43.5385 9.75979 43.5385 15.9656C43.5385 22.1714 48.4757 26.9312 54.5639 26.9312ZM54.5639 22.2317C51.1109 22.2317 48.3848 19.7313 48.3848 15.9656C48.3848 12.1999 51.1109 9.69954 54.5639 9.69954C58.0169 9.69954 60.743 12.1999 60.743 15.9656C60.743 19.7313 58.0169 22.2317 54.5639 22.2317Z" fill="black"/>
<path d="M72.71 14.128V11.4468H68.1666V26.5094H72.71V19.7011C72.71 16.7187 75.3755 15.9656 77.2535 16.2669V11.1456C75.3452 11.1456 73.3158 12.1096 72.71 14.128Z" fill="black"/>
<path d="M86.2031 26.9312C89.1715 26.9312 91.7461 25.3948 93.0486 23.045L89.0806 20.7856C88.596 21.84 87.4753 22.4727 86.1425 22.4727C84.1737 22.4727 82.7198 21.0568 82.7198 18.9781C82.7198 16.8995 84.1737 15.4836 86.1425 15.4836C87.4753 15.4836 88.5657 16.1162 89.0806 17.1706L93.0486 14.8811C91.7461 12.5614 89.1412 11.0251 86.2031 11.0251C81.5991 11.0251 78.1764 14.4895 78.1764 18.9781C78.1764 23.4668 81.5991 26.9312 86.2031 26.9312Z" fill="black"/>
<path d="M105.576 11.4468V12.8627C104.577 11.7179 103.093 11.0251 101.063 11.0251C97.0953 11.0251 93.824 14.4895 93.824 18.9781C93.824 23.4668 97.0953 26.9312 101.063 26.9312C103.093 26.9312 104.577 26.2383 105.576 25.0936V26.5094H110.12V11.4468H105.576ZM101.972 22.6534C99.882 22.6534 98.3675 21.2375 98.3675 18.9781C98.3675 16.7187 99.882 15.3028 101.972 15.3028C104.062 15.3028 105.576 16.7187 105.576 18.9781C105.576 21.2375 104.062 22.6534 101.972 22.6534Z" fill="black"/>
<path fill-rule="evenodd" clip-rule="evenodd" d="M85.1623 47.3683C83.9722 47.3683 83.0074 48.333 83.0074 49.5231V57.845C83.0074 59.0351 83.9722 59.9999 85.1623 59.9999H110.176C111.366 59.9999 112.331 59.0351 112.331 57.845V49.5231C112.331 48.333 111.366 47.3683 110.176 47.3683H85.1623ZM92.0645 55.321C91.8392 55.7757 91.2738 56.2857 90.2696 56.2857C89.1151 56.2857 88.2177 55.6294 88.2177 54.4354C88.2177 53.0555 89.3958 52.7551 90.5463 52.6206C90.6724 52.606 90.7897 52.5932 90.8988 52.5813C91.7339 52.4901 92.0804 52.4523 92.0804 52.0711V52.0434C92.0804 51.3555 91.6889 50.9562 90.9259 50.9562C90.1312 50.9562 89.6884 51.3713 89.5144 51.8022L88.4035 51.5492C88.7988 50.4422 89.811 49.9994 90.9101 49.9994C91.8748 49.9994 93.2664 50.3513 93.2664 52.1185V56.1512H92.112V55.321H92.0645ZM89.3761 54.4512C89.3761 55.0363 89.8584 55.3368 90.5266 55.3368C91.511 55.3368 92.0843 54.6805 92.0843 53.9609V53.1781C91.9303 53.3322 91.1691 53.431 90.7422 53.4865C90.6981 53.4922 90.6574 53.4975 90.6215 53.5023C89.9375 53.5932 89.3761 53.8186 89.3761 54.4512ZM96.0231 58.4285H94.841V50.0785H95.9954V51.0629H96.0943C96.3038 50.6873 96.711 49.9994 97.8378 49.9994C99.3046 49.9994 100.388 51.1578 100.388 53.1267C100.388 55.0917 99.3204 56.2699 97.8497 56.2699C96.7427 56.2699 96.3078 55.5938 96.0943 55.2063H96.0231V58.4285ZM97.5848 51.0036C96.5529 51.0036 95.9994 51.8457 95.9994 53.1149C95.9994 54.3919 96.5687 55.2617 97.5848 55.2617C98.6404 55.2617 99.1939 54.3326 99.1939 53.1149C99.1939 51.909 98.6562 51.0036 97.5848 51.0036ZM102.895 58.4285H101.712V50.0785H102.867V51.0629H102.966C103.175 50.6873 103.582 49.9994 104.709 49.9994C106.176 49.9994 107.259 51.1578 107.259 53.1267C107.259 55.0917 106.192 56.2699 104.721 56.2699C103.614 56.2699 103.179 55.5938 102.966 55.2063H102.895V58.4285ZM104.456 51.0036C103.424 51.0036 102.871 51.8457 102.871 53.1149C102.871 54.3919 103.44 55.2617 104.456 55.2617C105.512 55.2617 106.065 54.3326 106.065 53.1149C106.065 51.909 105.528 51.0036 104.456 51.0036Z" fill="black"/>
<path fill-rule="evenodd" clip-rule="evenodd" d="M45.463 33.3834C44.2729 33.3834 43.3081 34.3482 43.3081 35.5383V43.8601C43.3081 45.0502 44.2729 46.015 45.463 46.015H110.176C111.366 46.015 112.331 45.0502 112.331 43.8601V35.5383C112.331 34.3482 111.366 33.3834 110.176 33.3834H45.463ZM49.1431 35.0331H50.3647V43.1301H49.1431V35.0331ZM54.6465 38.0023C53.8242 38.0023 53.2311 38.5558 53.2311 39.5244V43.1301H52.049V37.0573H53.1837V38.0458H53.2588C53.5395 37.4013 54.1365 36.9783 55.0498 36.9783C56.2912 36.9783 57.1175 37.765 57.1175 39.2674V43.1301H55.9354V39.4098C55.9354 38.5281 55.4491 38.0023 54.6465 38.0023ZM62.4114 37.0573H63.6806L61.4784 43.1301H60.2132L58.0071 37.0573H59.2762L60.8142 41.7305H60.8774L62.4114 37.0573ZM69.7217 41.6119C69.4529 42.6003 68.5159 43.2527 67.1914 43.2527C65.4004 43.2527 64.3013 42.0192 64.3013 40.1333C64.3013 38.2672 65.4162 36.9783 67.1084 36.9783C68.4842 36.9783 69.7968 37.8362 69.7968 40.0305V40.4496H65.4795C65.5111 41.6198 66.1911 42.2761 67.2033 42.2761C67.8754 42.2761 68.3893 41.9836 68.6028 41.4103L69.7217 41.6119ZM67.1163 37.9548C66.1555 37.9548 65.5309 38.7021 65.4834 39.5639H68.6384C68.6345 38.6348 68.0335 37.9548 67.1163 37.9548ZM73.362 36.9783C74.6746 36.9783 75.414 37.595 75.6591 38.54L74.5877 38.7297C74.4493 38.3225 74.1093 37.9153 73.3739 37.9153C72.7018 37.9153 72.1957 38.2474 72.1997 38.7139C72.1957 39.1251 72.4843 39.3505 73.1525 39.5086L74.1172 39.73C75.2321 39.987 75.7777 40.5168 75.7777 41.3747C75.7777 42.4738 74.7616 43.2527 73.2948 43.2527C71.9308 43.2527 71.0373 42.6478 70.8396 41.5724L71.9822 41.3984C72.1245 41.9954 72.5792 42.2999 73.2869 42.2999C74.0618 42.2999 74.5639 41.9322 74.5639 41.4617C74.5639 41.0821 74.2911 40.8212 73.706 40.6907L72.678 40.4654C71.5394 40.2123 71.0175 39.6391 71.0175 38.7772C71.0175 37.7018 71.9901 36.9783 73.362 36.9783ZM78.6668 37.0573H79.9122V38.0062H78.6668V41.347C78.6668 42.031 79.0108 42.1575 79.3943 42.1575C79.5624 42.1575 79.6963 42.1296 79.7797 42.1123C79.7904 42.11 79.8004 42.1079 79.8094 42.1061L80.0229 43.0827C79.8845 43.1341 79.6315 43.2052 79.2559 43.2092C78.3228 43.229 77.4807 42.6952 77.4847 41.5922V38.0062H76.5951V37.0573H77.4847V35.6024H78.6668V37.0573ZM82.402 43.1301H81.2199V37.0573H82.3546V38.0458H82.4297C82.6827 37.3776 83.2797 36.9783 84.0823 36.9783C84.8928 36.9783 85.4503 37.3815 85.7152 38.0458H85.7784C86.071 37.3974 86.7273 36.9783 87.601 36.9783C88.7001 36.9783 89.4751 37.6702 89.4751 39.0579V43.1301H88.2929V39.1686C88.2929 38.3462 87.779 37.9983 87.1543 37.9983C86.3833 37.9983 85.9366 38.5281 85.9366 39.2595V43.1301H84.7584V39.0935C84.7584 38.4332 84.3037 37.9983 83.6474 37.9983C82.9753 37.9983 82.402 38.5676 82.402 39.386V43.1301ZM96.2071 41.6119C95.9383 42.6003 95.0013 43.2527 93.6768 43.2527C91.8858 43.2527 90.7867 42.0192 90.7867 40.1333C90.7867 38.2672 91.9016 36.9783 93.5938 36.9783C94.9696 36.9783 96.2822 37.8362 96.2822 40.0305V40.4496H91.9649C91.9965 41.6198 92.6765 42.2761 93.6886 42.2761C94.3608 42.2761 94.8747 41.9836 95.0882 41.4103L96.2071 41.6119ZM93.6017 37.9548C92.6409 37.9548 92.0163 38.7021 91.9688 39.5639H95.1238C95.1199 38.6348 94.5189 37.9548 93.6017 37.9548ZM100.191 38.0023C99.369 38.0023 98.776 38.5558 98.776 39.5244V43.1301H97.5939V37.0573H98.7285V38.0458H98.8037C99.0844 37.4013 99.6814 36.9783 100.595 36.9783C101.836 36.9783 102.662 37.765 102.662 39.2674V43.1301H101.48V39.4098C101.48 38.5281 100.994 38.0023 100.191 38.0023ZM105.837 37.0573H107.083V38.0062H105.837V41.347C105.837 42.031 106.181 42.1575 106.565 42.1575C106.733 42.1575 106.867 42.1296 106.95 42.1123C106.961 42.11 106.971 42.1079 106.98 42.1061L107.193 43.0827C107.055 43.1341 106.802 43.2052 106.426 43.2092C105.493 43.229 104.651 42.6952 104.655 41.5922V38.0062H103.765V37.0573H104.655V35.6024H105.837V37.0573Z" fill="black"/>
</svg>
