<svg width="36" height="15" viewBox="0 0 36 15" fill="none" xmlns="http://www.w3.org/2000/svg">
<path fill-rule="evenodd" clip-rule="evenodd" d="M0.71936 7.5C0.71936 7.21589 0.83129 6.94342 1.03052 6.74252C1.22976 6.54163 1.49998 6.42877 1.78174 6.42877H31.3726L26.8107 1.83102C26.6112 1.62987 26.4992 1.35706 26.4992 1.07259C26.4992 0.788121 26.6112 0.515303 26.8107 0.314154C27.0102 0.113005 27.2808 0 27.5629 0C27.845 0 28.1156 0.113005 28.3151 0.314154L34.6894 6.74157C34.7883 6.84107 34.8668 6.95929 34.9203 7.08943C34.9739 7.21958 35.0015 7.3591 35.0015 7.5C35.0015 7.64091 34.9739 7.78042 34.9203 7.91057C34.8668 8.04071 34.7883 8.15893 34.6894 8.25844L28.3151 14.6858C28.1156 14.887 27.845 15 27.5629 15C27.2808 15 27.0102 14.887 26.8107 14.6858C26.6112 14.4847 26.4992 14.2119 26.4992 13.9274C26.4992 13.6429 26.6112 13.3701 26.8107 13.169L31.3726 8.57124H1.78174C1.49998 8.57124 1.22976 8.45837 1.03052 8.25748C0.83129 8.05658 0.71936 7.78411 0.71936 7.5Z" fill="#363636"/>
</svg>
