<svg width="35" height="15" viewBox="0 0 35 15" fill="none" xmlns="http://www.w3.org/2000/svg">
<path fill-rule="evenodd" clip-rule="evenodd" d="M34.2821 7.5C34.2821 7.21589 34.1702 6.94342 33.9709 6.74252C33.7717 6.54163 33.5015 6.42877 33.2197 6.42877H3.62886L8.19073 1.83102C8.39021 1.62987 8.50229 1.35706 8.50229 1.07259C8.50229 0.788121 8.39021 0.515303 8.19073 0.314154C7.99124 0.113005 7.72068 0 7.43856 0C7.15644 0 6.88588 0.113005 6.68639 0.314154L0.312107 6.74157C0.213173 6.84107 0.134678 6.95929 0.0811195 7.08943C0.0275612 7.21958 -7.62939e-06 7.3591 -7.62939e-06 7.5C-7.62939e-06 7.64091 0.0275612 7.78042 0.0811195 7.91057C0.134678 8.04071 0.213173 8.15893 0.312107 8.25844L6.68639 14.6858C6.88588 14.887 7.15644 15 7.43856 15C7.72068 15 7.99124 14.887 8.19073 14.6858C8.39021 14.4847 8.50229 14.2119 8.50229 13.9274C8.50229 13.6429 8.39021 13.3701 8.19073 13.169L3.62886 8.57124H33.2197C33.5015 8.57124 33.7717 8.45837 33.9709 8.25748C34.1702 8.05658 34.2821 7.78411 34.2821 7.5Z" fill="#363636"/>
</svg>
