<svg width="28" height="29" viewBox="0 0 28 29" xmlns="http://www.w3.org/2000/svg">
<path d="M10.9236 17.7626C10.5531 17.7646 10.197 17.6189 9.93345 17.3577C9.66994 17.0965 9.52058 16.7411 9.51819 16.3695C9.51819 15.5887 10.145 14.96 10.9236 14.96C11.6914 14.96 12.3128 15.5887 12.3128 16.3695C12.3128 17.1394 11.6859 17.7626 10.9236 17.7626ZM28 14.96C28 22.7165 21.7334 29.0002 14 29.0002C6.26658 29.0002 0 22.7156 0 14.96C0 7.20355 6.26658 0.919922 14 0.919922C21.7334 0.919922 28 7.20446 28 14.96ZM20.5312 12.6276C20.001 12.6276 19.5323 12.8486 19.1872 13.1937C17.9227 12.316 16.2183 11.7498 14.327 11.6873L15.3088 7.25428L18.4366 7.96172C18.4366 8.73166 19.0635 9.35486 19.8249 9.35486C20.6044 9.35486 21.2303 8.71536 21.2303 7.94541C21.2303 7.17547 20.6035 6.53597 19.8249 6.53597C19.2775 6.53597 18.8088 6.86478 18.5775 7.31769L15.1227 6.54774C14.9529 6.50245 14.7786 6.62745 14.7334 6.79684L13.655 11.6882C11.7808 11.7679 10.0926 12.3277 8.82813 13.2055C8.65235 13.0217 8.44108 12.8758 8.20722 12.7766C7.97335 12.6774 7.72179 12.627 7.46787 12.6285C5.49793 12.6285 4.85394 15.2834 6.65497 16.1838C6.59143 16.472 6.55933 16.7663 6.55923 17.0615C6.55923 20.0389 9.90116 22.4511 14.0108 22.4511C18.1377 22.4511 21.4796 20.0389 21.4796 17.0615C21.4796 16.7617 21.4453 16.4501 21.3721 16.1666C23.1388 15.2608 22.4894 12.6285 20.5312 12.6285V12.6276ZM16.6419 19.2065C15.615 20.2364 12.3462 20.2201 11.3581 19.2065C11.2945 19.1469 11.2107 19.1137 11.1237 19.1137C11.0366 19.1137 10.9529 19.1469 10.8893 19.2065C10.7484 19.3478 10.7484 19.5688 10.8893 19.6938C12.1764 20.9846 15.8173 20.9846 17.1107 19.6938C17.2516 19.5688 17.2516 19.3487 17.1107 19.2065C17.0471 19.1469 16.9634 19.1137 16.8763 19.1137C16.7893 19.1137 16.7055 19.1469 16.6419 19.2065ZM17.0764 14.96C16.3086 14.96 15.6872 15.5887 15.6872 16.3695C15.6887 16.6469 15.7721 16.9176 15.927 17.1474C16.0819 17.3773 16.3013 17.5559 16.5575 17.6606C16.8136 17.7653 17.0949 17.7916 17.3659 17.7359C17.6369 17.6802 17.8854 17.5452 18.0798 17.3479C18.2743 17.1506 18.406 16.8999 18.4583 16.6275C18.5107 16.3551 18.4813 16.0733 18.3739 15.8177C18.2664 15.562 18.0858 15.3441 17.8549 15.1914C17.6239 15.0388 17.353 14.9582 17.0764 14.96Z"/>
</svg>
