<svg width="72" height="72" viewBox="0 0 72 72" fill="none" xmlns="http://www.w3.org/2000/svg">
<rect width="72" height="72" rx="36" fill="url(#paint0_radial)"/>
<path d="M36.0899 46C34.9099 46 33.848 45.7472 32.904 45.2415C31.9769 44.7189 31.2437 44.011 30.7043 43.1176C30.1649 42.2242 30 41.5246 30 40.3952C30 40.1087 30.0843 39.8643 30.2528 39.662C30.4214 39.4597 30.649 39.3586 30.9355 39.3586C31.2221 39.3586 31.4496 39.4597 31.6182 39.662C31.7868 39.8643 31.871 40.1087 31.871 40.3952C31.871 41.1706 31.9516 41.5584 32.3225 42.182C32.6933 42.7889 33.199 43.2777 33.8395 43.6485C34.4969 44.0025 35.2218 44.1795 36.014 44.1795C37.3288 44.1795 38.357 43.8171 39.0987 43.0923C39.8404 42.3506 40.2112 41.3982 40.2112 40.2351C40.2112 39.4092 40.0342 38.6928 39.6803 38.086C39.3263 37.4623 38.8459 36.9819 38.239 36.6448C37.6322 36.2908 36.9495 36.1138 36.191 36.1138C35.9213 36.1138 35.6937 36.0211 35.5083 35.8357C35.3229 35.6502 35.2302 35.4142 35.2302 35.1277C35.2302 34.858 35.3229 34.6304 35.5083 34.445C35.6937 34.2596 35.9213 34.1669 36.191 34.1669C36.781 34.1669 37.3204 34.0236 37.8092 33.737C38.3149 33.4336 38.7194 33.0375 39.0229 32.5487C39.3263 32.0598 39.478 31.5204 39.478 30.9305C39.478 30.0371 39.1746 29.2954 38.5677 28.7054C37.9609 28.0986 37.1518 27.7952 36.1404 27.7952C35.0785 27.7952 34.202 28.0986 33.5109 28.7054C32.8197 29.2954 32.4742 30.0287 32.4742 30.9052C32.4742 31.1917 32.3815 31.4362 32.1961 31.6384C32.0275 31.8239 31.8084 31.9166 31.5387 31.9166C31.2521 31.9166 31.0245 31.8239 30.856 31.6384C30.6874 31.4362 30.6031 31.2002 30.6031 30.9305C30.6031 30.0034 30.8391 29.169 31.3111 28.4273C31.7999 27.6688 32.4573 27.0788 33.2833 26.6574C34.1092 26.2191 35.0616 26 36.1404 26C37.1181 26 37.9946 26.2191 38.77 26.6574C39.5623 27.0788 40.1859 27.6688 40.6411 28.4273C41.113 29.169 41.349 30.0034 41.349 30.9305C41.349 31.5036 41.2058 32.0598 40.9192 32.5992C40.6495 33.1386 40.2871 33.6275 39.832 34.0657C39.3768 34.4871 38.8796 34.8158 38.3402 35.0518C39.6381 35.4395 40.5989 36.1138 41.2226 37.0746C41.8463 38.0354 42.1581 39.0889 42.1581 40.2351C42.1581 41.3477 41.8884 42.3422 41.349 43.2187C40.8265 44.0784 40.1017 44.7611 39.1746 45.2668C38.2475 45.7556 37.2192 46 36.0899 46Z" fill="white"/>
<defs>
<radialGradient id="paint0_radial" cx="0" cy="0" r="1" gradientUnits="userSpaceOnUse" gradientTransform="translate(24 22) rotate(70.4633) scale(49.3407)">
<stop stop-color="#EE49A0"/>
<stop offset="1" stop-color="#802576"/>
</radialGradient>
</defs>
</svg>
