<svg width="72" height="72" viewBox="0 0 72 72" fill="none" xmlns="http://www.w3.org/2000/svg">
<rect width="72" height="72" rx="36" fill="url(#paint0_radial)"/>
<path d="M42.0205 32.2482C43.6774 32.2482 45.0205 30.905 45.0205 29.2482C45.0205 27.5913 43.6774 26.2482 42.0205 26.2482C40.3637 26.2482 39.0205 27.5913 39.0205 29.2482C39.0205 30.905 40.3637 32.2482 42.0205 32.2482Z" stroke="white" stroke-width="1.5" stroke-linecap="round" stroke-linejoin="round"/>
<path d="M30.0205 39.2482C31.6774 39.2482 33.0205 37.905 33.0205 36.2482C33.0205 34.5913 31.6774 33.2482 30.0205 33.2482C28.3637 33.2482 27.0205 34.5913 27.0205 36.2482C27.0205 37.905 28.3637 39.2482 30.0205 39.2482Z" stroke="white" stroke-width="1.5" stroke-linecap="round" stroke-linejoin="round"/>
<path d="M42.0205 46.2482C43.6774 46.2482 45.0205 44.905 45.0205 43.2482C45.0205 41.5913 43.6774 40.2482 42.0205 40.2482C40.3637 40.2482 39.0205 41.5913 39.0205 43.2482C39.0205 44.905 40.3637 46.2482 42.0205 46.2482Z" stroke="white" stroke-width="1.5" stroke-linecap="round" stroke-linejoin="round"/>
<path d="M32.6104 37.7582L39.4404 41.7382" stroke="white" stroke-width="1.5" stroke-linecap="round" stroke-linejoin="round"/>
<path d="M39.4304 30.7582L32.6104 34.7382" stroke="white" stroke-width="1.5" stroke-linecap="round" stroke-linejoin="round"/>
<defs>
<radialGradient id="paint0_radial" cx="0" cy="0" r="1" gradientUnits="userSpaceOnUse" gradientTransform="translate(24 22) rotate(70.4633) scale(49.3407)">
<stop stop-color="#EE49A0"/>
<stop offset="1" stop-color="#802576"/>
</radialGradient>
</defs>
</svg>
