<svg width="120" height="40" viewBox="0 0 120 40" fill="none" xmlns="http://www.w3.org/2000/svg">
<path fill-rule="evenodd" clip-rule="evenodd" d="M8.33 0C3.72947 0 0 3.72947 0 8.33V31.67C0 36.2705 3.72947 40 8.33 40H111.67C116.271 40 120 36.2705 120 31.67V8.33C120 3.72947 116.271 0 111.67 0H8.33ZM19.5124 33.2143C18.7068 32.8383 17.9249 32.4086 17.1728 31.927C13.9358 29.8539 11.3491 26.8819 9.74769 23.3875C8.14417 19.8884 7.58188 15.9974 8.13152 12.1879C8.24279 11.4167 8.39892 10.6549 8.59815 9.90621L19.5121 6.39072L30.4266 9.90638C30.6258 10.655 30.7819 11.4167 30.8932 12.1879C31.4428 15.9974 30.8805 19.8884 29.277 23.3875C27.6756 26.8819 25.0889 29.8539 21.8519 31.927C21.0998 32.4086 20.3179 32.8383 19.5124 33.2143ZM19.6861 24.6159C23.4291 24.6159 26.4635 21.5815 26.4635 17.8385C26.4635 14.0954 23.4291 11.061 19.6861 11.061C15.943 11.061 12.9086 14.0954 12.9086 17.8385C12.9086 21.5815 15.943 24.6159 19.6861 24.6159ZM23.6909 15.858C23.6909 16.9761 22.7846 17.8825 21.6665 17.8825C20.5484 17.8825 19.6421 16.9761 19.6421 15.858C19.6421 14.74 20.5484 13.8336 21.6665 13.8336C22.7846 13.8336 23.6909 14.74 23.6909 15.858ZM66.4233 10.9796C66.8046 10.9796 67.1001 10.6789 67.1001 10.3136C67.1001 9.94302 66.8046 9.64224 66.4233 9.64224C66.0473 9.64224 65.7465 9.94302 65.7465 10.3136C65.7465 10.6789 66.0473 10.9796 66.4233 10.9796ZM40.4019 17.5001H39.1397L41.938 9.74966H43.2379L46.0362 17.5001H44.7686L44.065 15.4054H41.1055L40.4019 17.5001ZM42.5987 11.0334H42.5718L41.4278 14.4386H43.7427L42.5987 11.0334ZM48.0607 19.38H46.9005V11.8498H48.0607V12.8219H48.0876C48.4259 12.1505 49.049 11.7423 49.8546 11.7423C51.2941 11.7423 52.2179 12.8703 52.2179 14.675V14.6803C52.2179 16.4796 51.2887 17.6129 49.8708 17.6129C49.0705 17.6129 48.4206 17.2047 48.0876 16.5495H48.0607V19.38ZM48.0553 14.6803C48.0553 15.8512 48.6784 16.6139 49.5539 16.6139C50.4669 16.6139 51.0363 15.8727 51.0363 14.6803V14.675C51.0363 13.4718 50.4616 12.736 49.5539 12.736C48.673 12.736 48.0553 13.4987 48.0553 14.675V14.6803ZM53.2703 19.38H54.4304V16.5495H54.4573C54.7903 17.2047 55.4402 17.6129 56.2405 17.6129C57.6585 17.6129 58.5877 16.4796 58.5877 14.6803V14.675C58.5877 12.8703 57.6638 11.7423 56.2244 11.7423C55.4187 11.7423 54.7957 12.1505 54.4573 12.8219H54.4304V11.8498H53.2703V19.38ZM55.9236 16.6139C55.0481 16.6139 54.4251 15.8512 54.4251 14.6803V14.675C54.4251 13.4987 55.0427 12.736 55.9236 12.736C56.8313 12.736 57.406 13.4718 57.406 14.675V14.6803C57.406 15.8727 56.8367 16.6139 55.9236 16.6139ZM64.7479 14.675C64.7479 16.4958 63.6844 17.6129 62.0677 17.6129C60.4457 17.6129 59.3876 16.4904 59.3876 14.675V14.6642C59.3876 12.8595 60.4564 11.7423 62.0624 11.7423C63.6737 11.7423 64.7479 12.8542 64.7479 14.6642V14.675ZM60.5746 14.675C60.5746 15.9264 61.1654 16.6408 62.0731 16.6408C62.9808 16.6408 63.5609 15.921 63.5609 14.675V14.6642C63.5609 13.4289 62.9701 12.7145 62.0624 12.7145C61.1708 12.7145 60.5746 13.4289 60.5746 14.6642V14.675ZM69.5113 17.5001H68.3511V11.8498H69.5113V12.7038H69.5381C69.8336 12.1291 70.4136 11.7423 71.2676 11.7423C72.5084 11.7423 73.2227 12.5426 73.2227 13.8424V17.5001H72.0572V14.0626C72.0572 13.214 71.6597 12.736 70.8541 12.736C70.0377 12.736 69.5113 13.3268 69.5113 14.2077V17.5001ZM76.4772 17.6129C76.7135 17.6129 76.9337 17.5861 77.068 17.5646V16.6676C76.9821 16.6784 76.88 16.6891 76.7565 16.6891C76.2677 16.6891 76.0099 16.5172 76.0099 15.9425V12.7736H77.068V11.8498H76.0099V10.3781H74.8229V11.8498H74.0119V12.7736H74.8229V16.0124C74.8229 17.1403 75.36 17.6129 76.4772 17.6129ZM82.8738 15.8996C82.6912 16.7965 81.821 17.6129 80.4514 17.6129C78.7917 17.6129 77.7874 16.4796 77.7874 14.6964V14.6911C77.7874 12.924 78.8079 11.7423 80.3923 11.7423C81.9768 11.7423 82.949 12.881 82.949 14.5783V14.9704H78.9475C78.969 16.0392 79.5544 16.6623 80.4783 16.6623C81.1658 16.6623 81.6223 16.3078 81.7673 15.8834L81.7834 15.8405H82.8845L82.8738 15.8996ZM81.7996 14.1486C81.7029 13.171 81.155 12.693 80.3977 12.693C79.6458 12.693 79.0657 13.2033 78.9636 14.1486H81.7996ZM86.1122 17.6129C86.9232 17.6129 87.5462 17.2047 87.8846 16.5441H87.9061V17.5001H89.0716V9.74966H87.9061V12.8112H87.8846C87.5462 12.1452 86.9017 11.7423 86.1014 11.7423C84.6835 11.7423 83.7489 12.8703 83.7489 14.6696V14.675C83.7489 16.4743 84.6727 17.6129 86.1122 17.6129ZM86.4183 16.6139C85.4999 16.6139 84.9359 15.8781 84.9359 14.675V14.6696C84.9359 13.4772 85.5052 12.736 86.4183 12.736C87.2884 12.736 87.9115 13.4987 87.9115 14.6696V14.675C87.9115 15.8512 87.2938 16.6139 86.4183 16.6139ZM40.9175 29.5001H39.7144V21.7497H42.7222C44.3067 21.7497 45.3057 22.6681 45.3057 24.1237V24.1344C45.3057 25.1872 44.731 26.0251 43.8018 26.3419L45.5367 29.5001H44.1509L42.5718 26.5246H40.9175V29.5001ZM40.9175 22.7594V25.5363H42.6041C43.5333 25.5363 44.065 25.026 44.065 24.1452V24.1344C44.065 23.2751 43.4957 22.7594 42.5718 22.7594H40.9175ZM48.8717 29.6129C50.2414 29.6129 51.1115 28.7965 51.2941 27.8996L51.3048 27.8405H50.2038L50.1877 27.8834C50.0426 28.3078 49.5861 28.6623 48.8986 28.6623C47.9748 28.6623 47.3893 28.0392 47.3678 26.9704H51.3693V26.5783C51.3693 24.881 50.3971 23.7423 48.8127 23.7423C47.2282 23.7423 46.2077 24.924 46.2077 26.6911V26.6964C46.2077 28.4796 47.2121 29.6129 48.8717 29.6129ZM48.818 24.693C49.5753 24.693 50.1232 25.171 50.2199 26.1486H47.3839C47.486 25.2033 48.0661 24.693 48.818 24.693ZM53.5818 31.38H52.4216V23.8498H53.5818V24.8219H53.6087C53.947 24.1505 54.5701 23.7423 55.3757 23.7423C56.8152 23.7423 57.739 24.8703 57.739 26.675V26.6803C57.739 28.4796 56.8098 29.6129 55.3919 29.6129C54.5916 29.6129 53.9417 29.2047 53.6087 28.5495H53.5818V31.38ZM53.5764 26.6803C53.5764 27.8512 54.1995 28.6139 55.075 28.6139C55.988 28.6139 56.5574 27.8727 56.5574 26.6803V26.675C56.5574 25.4718 55.9827 24.736 55.075 24.736C54.1941 24.736 53.5764 25.4987 53.5764 26.675V26.6803ZM58.7914 29.5001H59.9515V26.1002C59.9515 25.3 60.4134 24.8004 61.16 24.8004C61.3856 24.8004 61.5897 24.8273 61.681 24.8649V23.7853L61.6702 23.7834C61.5784 23.7672 61.4382 23.7423 61.2782 23.7423C60.6122 23.7423 60.1073 24.1398 59.9354 24.7843H59.9086V23.8498H58.7914V29.5001ZM67.1376 27.8996C66.955 28.7965 66.0849 29.6129 64.7153 29.6129C63.0556 29.6129 62.0512 28.4796 62.0512 26.6964V26.6911C62.0512 24.924 63.0717 23.7423 64.6562 23.7423C66.2407 23.7423 67.2128 24.881 67.2128 26.5783V26.9704H63.2114C63.2329 28.0392 63.8183 28.6623 64.7421 28.6623C65.4296 28.6623 65.8862 28.3078 66.0312 27.8834L66.0473 27.8405H67.1484L67.1376 27.8996ZM65.8432 17.5001H67.0034V11.8498H65.8432V17.5001ZM66.0634 26.1486C65.9668 25.171 65.4189 24.693 64.6616 24.693C63.9096 24.693 63.3295 25.2033 63.2275 26.1486H66.0634ZM70.3814 29.6129C71.7134 29.6129 72.6802 28.904 72.6802 27.8727V27.8673C72.6802 27.0563 72.2398 26.5998 71.085 26.3312L70.1666 26.1217C69.5596 25.9767 69.3287 25.7404 69.3287 25.3913V25.3859C69.3287 24.9347 69.7208 24.6393 70.3438 24.6393C70.9991 24.6393 71.3858 24.9831 71.4556 25.4772L71.461 25.5148H72.5513L72.546 25.4503C72.4869 24.4889 71.6812 23.7423 70.3438 23.7423C69.044 23.7423 68.1631 24.4352 68.1631 25.445V25.4503C68.1631 26.2721 68.6949 26.7877 69.7691 27.0348L70.6929 27.2443C71.2999 27.3893 71.504 27.5988 71.504 27.964V27.9694C71.504 28.4259 71.085 28.716 70.3868 28.716C69.6724 28.716 69.2857 28.4098 69.1783 27.8888L69.1675 27.8351H68.0181L68.0235 27.8834C68.1417 28.9147 68.9688 29.6129 70.3814 29.6129ZM78.5666 27.8996C78.3839 28.7965 77.5138 29.6129 76.1442 29.6129C74.4845 29.6129 73.4801 28.4796 73.4801 26.6964V26.6911C73.4801 24.924 74.5006 23.7423 76.0851 23.7423C77.6696 23.7423 78.6418 24.881 78.6418 26.5783V26.9704H74.6403C74.6618 28.0392 75.2472 28.6623 76.1711 28.6623C76.8586 28.6623 77.3151 28.3078 77.4601 27.8834L77.4762 27.8405H78.5773L78.5666 27.8996ZM77.4923 26.1486C77.3957 25.171 76.8478 24.693 76.0905 24.693C75.3385 24.693 74.7585 25.2033 74.6564 26.1486H77.4923ZM79.6941 29.5001H80.8542V26.2077C80.8542 25.3268 81.3806 24.736 82.197 24.736C83.0027 24.736 83.4001 25.214 83.4001 26.0626V29.5001H84.5657V25.8424C84.5657 24.5426 83.8513 23.7423 82.6106 23.7423C81.7566 23.7423 81.1765 24.1291 80.8811 24.7038H80.8542V23.8498H79.6941V29.5001ZM88.411 29.5646C88.2767 29.5861 88.0565 29.6129 87.8202 29.6129C86.703 29.6129 86.1659 29.1403 86.1659 28.0124V24.7736H85.3548V23.8498H86.1659V22.3781H87.3529V23.8498H88.411V24.7736H87.3529V27.9425C87.3529 28.5172 87.6107 28.6891 88.0995 28.6891C88.223 28.6891 88.3251 28.6784 88.411 28.6676V29.5646ZM91.0961 29.6022C91.8427 29.6022 92.498 29.2155 92.8256 28.6085H92.8471V29.5001H94.0126V25.6061C94.0126 24.4728 93.1372 23.7423 91.7568 23.7423C90.3657 23.7423 89.5224 24.4889 89.4418 25.4611L89.4365 25.5202H90.5322L90.5429 25.4718C90.6396 25.0207 91.0532 24.7038 91.7246 24.7038C92.4443 24.7038 92.8471 25.0797 92.8471 25.7028V26.1271L91.311 26.2184C89.9736 26.299 89.2109 26.9005 89.2109 27.8834V27.8942C89.2109 28.9093 89.9682 29.6022 91.0961 29.6022ZM90.3818 27.8673V27.8566C90.3818 27.3786 90.7685 27.0724 91.4668 27.0294L92.8471 26.9435V27.3839C92.8471 28.1198 92.2294 28.673 91.413 28.673C90.79 28.673 90.3818 28.3615 90.3818 27.8673ZM97.8633 29.5646C97.7291 29.5861 97.5089 29.6129 97.2725 29.6129C96.1553 29.6129 95.6182 29.1403 95.6182 28.0124V24.7736H94.8072V23.8498H95.6182V22.3781H96.8052V23.8498H97.8633V24.7736H96.8052V27.9425C96.8052 28.5172 97.063 28.6891 97.5518 28.6891C97.6754 28.6891 97.7774 28.6784 97.8633 28.6676V29.5646ZM99.6032 22.9796C99.9845 22.9796 100.28 22.6789 100.28 22.3136C100.28 21.943 99.9845 21.6422 99.6032 21.6422C99.2272 21.6422 98.9264 21.943 98.9264 22.3136C98.9264 22.6789 99.2272 22.9796 99.6032 22.9796ZM104.329 29.5001H103.083L101.048 23.8498H102.283L103.701 28.3668H103.728L105.146 23.8498H106.354L104.329 29.5001ZM109.367 29.6129C110.737 29.6129 111.607 28.7965 111.789 27.8996L111.8 27.8405H110.699L110.683 27.8834C110.538 28.3078 110.081 28.6623 109.394 28.6623C108.47 28.6623 107.885 28.0392 107.863 26.9704H111.865V26.5783C111.865 24.881 110.892 23.7423 109.308 23.7423C107.723 23.7423 106.703 24.924 106.703 26.6911V26.6964C106.703 28.4796 107.707 29.6129 109.367 29.6129ZM109.313 24.693C110.071 24.693 110.619 25.171 110.715 26.1486H107.879C107.981 25.2033 108.561 24.693 109.313 24.693ZM99.0231 29.5001H100.183V23.8498H99.0231V29.5001Z" fill="#E3E3E3"/>
</svg>
