<svg width="73" height="91" viewBox="0 0 73 91" fill="none" xmlns="http://www.w3.org/2000/svg">
<path d="M66.8246 51.0406C66.8246 29.4985 59.1469 12.0352 36.5056 12.0352C13.8643 12.0352 6.18665 29.4985 6.18665 51.0406V82.1733C6.18665 86.5213 8.92641 90.046 12.3061 90.046H60.7052C64.0849 90.046 66.8246 86.5213 66.8246 82.1733V51.0406Z" fill="#3A8B3D"/>
<path d="M28 39.5C28 43.625 24.6432 47 20.501 47C16.3588 47 13 43.625 13 39.5C13 35.3553 16.3588 32 20.501 32C24.6432 32 28 35.3553 28 39.5Z" fill="#FFF7E3"/>
<path d="M61 39.5C61 43.625 57.6432 47 53.501 47C49.3588 47 46 43.625 46 39.5C46 35.3553 49.3588 32 53.501 32C57.6432 32 61 35.3553 61 39.5Z" fill="#FFF7E3"/>
<path opacity="0.4" d="M12.1994 11.5621C25.5823 -1.78087 43.335 -2.458 59.3579 8.64889C74.0919 18.8623 68.3709 48.8884 68.3709 48.8884L36.6891 51.1644L5.00727 49.3436C5.00727 49.3436 -1.84955 25.5692 12.1994 11.5621Z" fill="white"/>
<path fill-rule="evenodd" clip-rule="evenodd" d="M67.6852 31.4816C67.6852 15.7152 54.9026 2.92742 39.1311 2.92742H33.7361C17.9671 2.92742 5.18191 15.7152 5.18191 31.4816V45.1167C5.43355 45.0653 5.69285 44.9882 5.96247 44.9369C5.66204 45.0396 5.40274 45.1423 5.18191 45.2451V46.8886C8.56373 48.4549 21.2872 49.6104 36.4708 49.6104C51.5464 49.6104 64.1981 48.4548 67.6852 46.9141V45.2195C67.4618 45.1168 67.1999 45.014 66.8994 44.9113C67.1716 44.9627 67.431 45.0397 67.6852 45.0911V31.4816ZM72.98 47.7101C72.98 50.5347 56.6436 52.7946 36.4913 52.7946C16.3365 52.7946 0 50.5347 0 47.7101C0 47.0168 1.00401 46.3749 2.81689 45.7586V30.7113C2.81689 13.738 16.5676 0 33.5332 0H39.3339C56.2995 0 70.0502 13.738 70.0502 30.7113V45.733C71.9349 46.3493 72.98 47.0168 72.98 47.7101Z" fill="#C2E8F9"/>
</svg>
