<svg width="179" height="60" viewBox="0 0 179 60" fill="none" xmlns="http://www.w3.org/2000/svg">
<path fill-rule="evenodd" clip-rule="evenodd" d="M8.33 0C3.72947 0 0 3.72947 0 8.33V51.67C0 56.2705 3.72947 60 8.33 60H170.67C175.271 60 179 56.2705 179 51.67V8.33C179 3.72947 175.271 0 170.67 0H8.33ZM68.1251 6.01709C68.434 6.01709 68.6813 6.01709 68.8665 6.14075C69.1391 6.37933 69.1109 6.7119 69.0827 7.04519C69.0598 7.31613 69.0369 7.58755 69.1754 7.80935C69.2004 7.98458 69.3373 8.11929 69.4665 8.24639C69.6557 8.43265 69.8284 8.60255 69.6079 8.85965C69.3904 8.77797 69.2448 8.63667 69.1025 8.4987C68.9213 8.32289 68.7456 8.15248 68.434 8.11769C68.2228 8.03852 68.1357 7.84638 68.0521 7.66197C67.9402 7.41495 67.8345 7.18181 67.4452 7.25261C67.3842 7.06739 67.1369 7.00583 67.0132 7.06739C66.9808 7.13232 66.9503 7.19914 66.9197 7.26618L66.9196 7.26631L66.9195 7.26651C66.7752 7.58242 66.6285 7.90338 66.2718 8.05613C66.1871 8.14105 66.0804 8.19681 65.9769 8.25094C65.779 8.35445 65.5925 8.45197 65.5925 8.73599C65.5309 8.98277 65.4688 9.29165 65.7161 9.41531C65.8312 9.30009 65.8948 9.15074 65.9581 9.00226C66.0648 8.75198 66.1704 8.50418 66.5191 8.42657C66.6642 8.4025 66.7714 8.26499 66.8778 8.12861C67.0434 7.91621 67.207 7.70655 67.5079 7.93247C67.673 8.05613 67.8381 8.23491 68.0032 8.41369C68.0854 8.50269 68.1676 8.59169 68.2498 8.67389C68.1322 8.83014 68.0644 9.01151 67.9991 9.18618C67.9612 9.28738 67.9242 9.38634 67.8788 9.47687C67.6992 9.39994 67.6794 9.15244 67.6601 8.91146C67.633 8.57226 67.6069 8.24598 67.1374 8.42657C67.072 8.53586 67.0219 8.65277 66.9709 8.77188L66.9709 8.77201C66.8775 8.99009 66.781 9.21557 66.5812 9.41531C66.556 9.59235 66.5826 9.77971 66.61 9.9732C66.6496 10.2524 66.691 10.5444 66.5812 10.8366C66.5311 10.8865 66.4911 10.9569 66.449 11.0311C66.3872 11.14 66.3207 11.2572 66.2103 11.3307C66.3339 10.8366 66.3339 10.2798 66.2723 9.72419C66.229 9.68124 66.1557 9.69822 66.0945 9.71241C66.0679 9.71856 66.0436 9.72419 66.025 9.72419L65.9014 9.90941C65.8673 9.8923 65.8286 9.85647 65.7877 9.81869C65.6803 9.71934 65.5584 9.60656 65.4688 9.78575C65.4139 10.0056 65.3753 10.231 65.3368 10.4553C65.2456 10.9872 65.1553 11.5134 64.8511 11.9479C65.197 11.7501 65.3847 11.3946 65.5725 11.0388C65.6195 10.9497 65.6666 10.8606 65.7161 10.7739H65.8398C65.9261 11.1621 65.6813 11.4598 65.4416 11.7512C65.3379 11.8774 65.2351 12.0024 65.1605 12.1331C64.8893 13.9228 65.6658 15.427 66.4027 16.8546L66.4028 16.8548C66.5053 17.0532 66.6069 17.2502 66.7049 17.4462C66.7049 17.49 66.7127 17.5338 66.72 17.5749C66.7333 17.6497 66.745 17.7153 66.7049 17.7551L66.4576 17.6935C65.5925 16.6437 64.8511 15.5313 64.6658 14.1722C64.6141 13.9485 64.548 13.72 64.4809 13.4881C64.3072 12.8875 64.1268 12.2637 64.1712 11.6396C64.4801 9.84731 65.0358 7.99403 66.457 6.82007C66.8732 6.54289 67.2894 6.36941 67.7053 6.19603L67.7054 6.19598C67.8453 6.13766 67.9852 6.07934 68.1251 6.01709ZM68.1289 9.46867C68.2531 9.22195 68.4361 8.8582 68.6192 8.73599C68.6813 8.98277 68.6813 9.41531 68.3719 9.53951C68.2482 9.53951 68.1866 9.53951 68.1245 9.47741L68.1289 9.46867ZM68.7952 9.71882C68.8921 9.32864 68.987 8.94701 69.5458 9.10643C69.5154 9.12156 69.4776 9.13298 69.4368 9.14526C69.3119 9.18294 69.1599 9.2288 69.1122 9.41531C69.1791 9.78323 68.9745 10.0425 68.7629 10.3106C68.5835 10.538 68.399 10.7717 68.3708 11.0834C68.4324 11.578 68.1856 12.1337 67.8146 12.381C67.8146 12.4048 67.8123 12.4308 67.81 12.4579C67.8 12.5715 67.7886 12.7022 67.9382 12.752C68.4832 12.7022 68.631 12.1356 68.7637 11.6265L68.7638 11.6264L68.7638 11.6262C68.7965 11.5008 68.8283 11.3789 68.8649 11.2691C68.6762 10.9385 68.9206 10.7523 69.1566 10.5725C69.2293 10.5171 69.3013 10.4623 69.3595 10.404C69.3595 10.4292 69.3621 10.4645 69.3651 10.5063C69.3769 10.6705 69.396 10.9358 69.2974 11.0834C68.9877 11.1278 68.995 11.4254 69.0013 11.6816C69.0038 11.7832 69.0062 11.8782 68.9885 11.9484C68.8918 12.2145 68.7004 12.4048 68.5145 12.5898C68.2253 12.8774 67.9492 13.1521 68.0619 13.6786C68.0619 14.1012 68.2157 14.4724 68.3706 14.8461C68.5103 15.1831 68.6508 15.5222 68.6802 15.9029C68.543 15.4912 68.3448 15.1039 68.1452 14.7139C67.8955 14.2261 67.6437 13.734 67.5062 13.1845L67.5683 12.6283C67.6183 12.5366 67.6717 12.4438 67.7256 12.3499L67.7259 12.3494C68.0722 11.747 68.4449 11.0985 68.124 10.404C68.0752 10.3797 68.0166 10.3746 67.9598 10.3697C67.8732 10.3622 67.7907 10.3551 67.7536 10.2804C67.8 10.2338 67.8641 10.2047 67.9259 10.1767C68.028 10.1304 68.124 10.0869 68.124 9.97151C68.1551 10.0026 68.1551 10.0644 68.1551 10.1416C68.1551 10.2188 68.1551 10.3114 68.1861 10.404C68.3098 10.5277 68.4334 10.404 68.5571 10.2804C68.6882 10.1491 68.742 9.93265 68.7952 9.71882ZM67.2632 10.6478L67.2632 10.6484C67.2616 10.6926 67.26 10.7351 67.26 10.7745C67.1984 11.0218 67.0132 11.3307 66.7659 11.3922C66.8021 11.2657 66.8541 11.1444 66.9065 11.0223C67.0333 10.7268 67.1623 10.4262 67.0748 10.0331C67.2821 10.1369 67.2718 10.4149 67.2632 10.6478ZM67.6926 11.0218C67.8162 11.0218 67.7546 11.207 67.6926 11.2691C67.6308 11.516 67.5074 11.7629 67.384 12.0097L67.384 12.0097L67.3839 12.0098C67.2604 12.2569 67.1369 12.504 67.0753 12.7509C67.0899 12.8387 67.0976 12.9196 67.1049 12.9968C67.1285 13.2455 67.1485 13.4566 67.3842 13.7396C67.7546 14.1722 67.9399 14.7905 68.002 15.3461L68.002 15.3462C68.1257 15.6551 68.2493 15.9639 68.3109 16.2728C68.4097 16.5193 68.3505 16.7665 68.2913 17.0135L68.2913 17.0137C68.2764 17.0756 68.2616 17.1375 68.2493 17.1994C68.0843 16.9933 68.0842 16.7872 68.0841 16.5811C68.084 16.4783 68.084 16.3755 68.0635 16.2728C68.0303 15.8388 67.8525 15.4768 67.6766 15.1188L67.6766 15.1188C67.5271 14.8144 67.3789 14.5128 67.3221 14.1722C67.2976 14.1233 67.2732 14.072 67.2482 14.0197L67.2481 14.0195L67.2481 14.0194C67.147 13.8076 67.0381 13.5792 66.8896 13.4307C66.8308 13.372 66.8141 13.3132 66.7993 13.261C66.783 13.2037 66.769 13.1544 66.7043 13.1219C66.788 12.9545 66.8087 12.7619 66.8289 12.5725C66.8536 12.3427 66.8777 12.1178 67.0132 11.9484C67.2175 11.7442 67.3795 11.4974 67.5696 11.2081C67.6091 11.1479 67.6499 11.0858 67.6926 11.0218ZM66.0762 13.0703C66.0782 13.2857 66.0802 13.4982 66.1476 13.6781C66.1476 14.4494 66.4476 15.0876 66.7537 15.7389L66.7537 15.739L66.7538 15.7391C66.8644 15.9745 66.9759 16.2117 67.0742 16.4575C67.3831 16.7663 67.1979 17.3841 67.1358 17.5077C66.9981 17.3704 66.9371 17.1754 66.8781 16.9868C66.8311 16.8367 66.7854 16.6907 66.7033 16.5811C66.5865 16.2811 66.4518 15.99 66.3174 15.6995C65.9536 14.9134 65.5914 14.1309 65.5914 13.1834C65.5914 13.1105 65.589 13.0351 65.5866 12.9587V12.9587C65.5767 12.6473 65.5663 12.3196 65.7151 12.0716C66.069 12.3076 66.0726 12.6935 66.0762 13.0703ZM66.5858 13.061C66.5831 13.1168 66.5801 13.1785 66.5801 13.2461C66.6553 13.8092 66.8445 14.2126 67.0369 14.6227C67.1611 14.8875 67.2866 15.1551 67.3837 15.4703C67.629 15.9609 67.7183 16.5683 67.8066 17.1689V17.169C67.8295 17.3247 67.8523 17.4799 67.8778 17.6325C67.8778 17.699 67.8235 17.7839 67.7639 17.8771L67.7639 17.8771C67.7132 17.9563 67.6587 18.0415 67.6304 18.1266C67.6926 17.7556 67.6926 17.3236 67.5689 16.9526C67.1358 16.0881 66.6417 14.9141 66.4565 14.3579C66.3328 13.8017 66.2713 13.184 66.4565 12.6899C66.6012 12.738 66.5953 12.8619 66.5858 13.061ZM70.1441 13.1179C70.1717 13.1623 70.1987 13.2057 70.2257 13.2461C70.2581 13.4394 70.1558 13.5486 70.0417 13.6704C69.9372 13.7818 69.8228 13.9038 69.7932 14.1106C69.7185 14.185 69.7039 14.3093 69.689 14.4354C69.6668 14.6233 69.6441 14.8152 69.4222 14.852C69.1133 14.1106 69.4222 13.3692 69.7932 12.6899C69.938 12.7866 70.0452 12.9588 70.1441 13.1179ZM69.0366 13.0548C68.8494 13.6303 68.6277 14.3117 69.1133 14.852C69.1133 14.9141 69.1133 15.0993 68.9902 15.0993C68.5576 14.6668 68.3103 13.9254 68.4955 13.3076L69.1133 12.813C69.0899 12.8909 69.0636 12.9717 69.0366 13.0548ZM71.1663 14.6228C71.194 14.7883 71.2217 14.9544 71.276 15.0993C71.276 15.223 71.1523 15.4082 71.0292 15.3467L71.0154 15.3046C70.9574 15.1258 70.8873 14.9096 70.6588 14.8526C70.4543 14.9339 70.3581 14.7187 70.2807 14.5456C70.2409 14.4567 70.2061 14.3788 70.1641 14.3579C70.1235 14.1157 70.2418 14.0318 70.3803 13.9337C70.4536 13.8817 70.5326 13.8257 70.5967 13.7402C71.0334 13.8276 71.0996 14.2235 71.1663 14.6228ZM69.9786 16.7666C70.0496 16.9951 70.1132 17.1999 70.4109 17.1999C70.6514 17.1312 70.7772 17.2344 70.9054 17.3396C71.0079 17.4235 71.1119 17.5088 71.2771 17.5088C71.5244 17.3236 71.7096 17.6325 71.7717 17.8798C71.7717 18.0017 71.6913 18.0167 71.6187 18.0303C71.581 18.0373 71.5454 18.044 71.5244 18.065C71.403 18.1257 71.371 18.2459 71.3406 18.3599C71.3091 18.4783 71.2794 18.5899 71.1534 18.6212C71.0317 18.524 71.0058 18.3408 70.9814 18.1693C70.9439 17.9047 70.9103 17.668 70.5351 17.8177C70.5351 17.8798 70.473 18.0035 70.4114 18.065C70.3891 17.9985 70.3988 17.9079 70.4088 17.8135C70.4267 17.6451 70.4459 17.4644 70.2878 17.3852C70.2003 17.3852 70.1267 17.4263 70.0605 17.4635C69.986 17.5051 69.9207 17.5417 69.8552 17.5088C69.8552 17.4101 69.8426 17.3051 69.8295 17.1959L69.8295 17.1957C69.8015 16.963 69.7711 16.7109 69.8552 16.4585C69.9128 16.5548 69.9465 16.6631 69.9786 16.7666ZM70.0108 18.7707L70.0108 18.7708L70.0109 18.7709C70.0429 18.8304 70.0725 18.8853 70.102 18.9296C70.0549 19.1172 69.8657 19.0913 69.6965 19.0681C69.6427 19.0607 69.5909 19.0536 69.5464 19.0538C69.4421 19.0188 69.3965 18.9253 69.3545 18.8392C69.322 18.7723 69.2915 18.7099 69.2375 18.6828C69.299 18.4976 69.4227 18.3739 69.5464 18.2502C69.7813 18.3443 69.9088 18.5812 70.0108 18.7707ZM71.4871 16.3411C71.5201 16.5204 71.5494 16.6793 71.5233 16.7053C71.3997 16.8911 71.2139 16.3349 71.2144 16.3349C71.1523 16.4585 70.8434 16.7058 70.8434 16.7058C70.7211 16.6242 70.7335 16.5696 70.7561 16.4706C70.7676 16.4198 70.7819 16.3573 70.7819 16.2733C70.7819 16.1496 70.6582 15.9644 70.5346 16.1497L70.2878 16.2733L70.2257 16.2112L70.2253 16.2104C70.1639 16.0876 70.1022 15.9642 70.1641 15.8408C70.2878 15.7787 70.5346 15.655 70.5967 15.7787C70.7919 15.909 70.97 15.8333 71.122 15.7687C71.2584 15.7107 71.3739 15.6617 71.4617 15.7787C71.3901 15.8142 71.4421 16.0966 71.4871 16.3411ZM71.5233 15.9023C71.5233 15.8408 71.4617 15.7787 71.4617 15.7787C71.4617 15.8408 71.5233 15.9023 71.5233 15.9023ZM79.3695 7.43783L80.1725 8.55023C80.605 9.35375 80.9755 10.4035 80.7886 11.3917C80.5544 11.5481 80.4683 11.3586 80.374 11.1512C80.3193 11.0307 80.2618 10.9041 80.1709 10.836C79.862 10.4651 79.862 9.78575 80.1709 9.41477C80.1709 9.29111 80.1093 9.10589 79.9856 9.10589C79.8351 9.18149 79.7992 9.30251 79.7663 9.41353C79.7451 9.4849 79.7252 9.55214 79.6768 9.60053C79.5313 9.92038 79.6325 10.2131 79.7287 10.4913C79.8368 10.8039 79.9385 11.0982 79.6768 11.3922C79.43 11.3307 79.1827 11.0834 79.1827 10.8366C79.1827 10.4035 79.1827 9.97151 79.3063 9.60053C79.2219 9.55851 79.1375 9.63146 79.0335 9.72134C78.9852 9.76314 78.9326 9.80859 78.8738 9.84785C78.7501 10.2188 78.8738 10.6508 78.9974 11.0218C78.8738 11.0839 78.7501 11.0218 78.7501 10.9602C78.6265 10.4661 78.5028 9.97205 78.6265 9.47741C78.4412 9.41585 78.1939 9.60107 78.1939 9.84839C78.1939 10.3425 78.3176 10.775 78.5649 11.2076C78.6161 11.3604 78.4986 11.3452 78.4214 11.3352C78.405 11.3331 78.3904 11.3312 78.3797 11.3312C78.0703 11.0839 77.8235 10.7129 77.885 10.2188C78.0087 10.0341 78.0703 9.72473 77.885 9.53951C77.3909 9.25089 77.1714 8.79797 76.952 8.34508L76.9519 8.34502C76.8421 8.11837 76.7322 7.89173 76.588 7.68569C76.5259 7.43837 76.6495 7.31471 76.8347 7.31471C76.9584 7.31471 77.0205 7.37627 77.0821 7.49993C76.9482 7.94629 77.2015 8.29623 77.4688 8.66566C77.5715 8.80752 77.6762 8.95226 77.7619 9.10643C77.7818 9.11631 77.8032 9.1278 77.8258 9.13986C77.9435 9.20293 78.0907 9.28176 78.1945 9.23009L78.3181 9.04433C78.2333 8.87484 78.1049 8.7344 77.9802 8.59807C77.7415 8.33697 77.5166 8.09101 77.6383 7.68515H77.7619C77.8704 7.85859 77.956 8.03969 78.0401 8.21772C78.1957 8.54685 78.3463 8.86549 78.627 9.10589C78.8122 9.10589 78.9359 8.98277 79.0595 8.85911C79.0595 8.65149 78.9434 8.50206 78.8302 8.35657C78.7412 8.24209 78.6541 8.13005 78.627 7.99403C78.638 7.99403 78.6588 7.99795 78.6855 8.00301C78.809 8.02632 79.0595 8.07362 79.0595 7.87037C78.8722 7.43388 78.4646 7.32788 78.075 7.22658C77.6929 7.12724 77.3282 7.03242 77.2057 6.63485C77.0205 6.44963 76.8969 6.44963 76.7732 6.57329C76.7186 6.73772 76.5547 6.75639 76.3944 6.77464C76.193 6.79756 75.9975 6.81982 76.0318 7.12949C76.0939 8.05613 76.0318 8.98277 75.3524 9.60053C74.9351 9.89855 74.4605 9.96633 74.0391 10.0265L73.9933 10.0331C73.8978 10.0808 73.9134 10.1659 73.9252 10.2304L73.9252 10.2305C73.9286 10.2491 73.9317 10.266 73.9317 10.2798C74.3863 10.2798 74.632 10.698 74.8126 11.0055C74.8283 11.0322 74.8435 11.0581 74.8583 11.0828C75.043 11.2686 75.3524 11.3301 75.6613 11.2686C75.7685 11.4109 75.7932 11.5946 75.8186 11.7838C75.8372 11.9227 75.8563 12.0645 75.9086 12.1952C76.0323 12.6278 76.3412 12.9366 76.7737 13.1219C76.8353 13.4307 76.6501 13.6781 76.4648 13.9254C76.5011 14.1074 76.4087 14.2681 76.3141 14.4326C76.2482 14.5472 76.1812 14.6636 76.156 14.7905C76.0628 14.7905 76.0745 14.6863 76.0861 14.5821C76.09 14.5473 76.0939 14.5125 76.0939 14.4816L76.5885 13.3692C76.5677 13.3486 76.547 13.3141 76.5263 13.2796C76.4851 13.2111 76.4441 13.1426 76.4027 13.184C76.1823 13.2942 76.115 13.492 76.0446 13.6993C75.9966 13.8402 75.9472 13.9856 75.8471 14.1106L75.6619 14.6047C75.4766 14.6047 75.4766 14.4195 75.4766 14.2958C75.3972 14.1964 75.3305 14.0716 75.2623 13.9438C75.1183 13.6739 74.9672 13.391 74.6737 13.3071C74.6097 13.1792 74.4963 13.1339 74.3761 13.0859C74.2637 13.041 74.1454 12.9938 74.0559 12.8745C74.3642 12.7511 74.4261 12.5045 74.4881 12.2577L74.4884 12.2562C74.4884 12.1947 74.4269 12.071 74.3032 12.071C74.1901 12.3352 74.0309 12.2997 73.8537 12.2601C73.7407 12.2349 73.6205 12.2081 73.5002 12.2562C73.5002 12.3662 73.4025 12.4273 73.3048 12.4883C73.1827 12.5646 73.0606 12.6409 73.1293 12.8124C73.2834 12.9669 73.4069 12.8897 73.5305 12.8125C73.6541 12.7353 73.7778 12.658 73.9323 12.8124C73.8086 12.8745 73.6234 13.2455 73.8707 13.3071C74.7968 13.5544 74.9826 14.3574 75.1678 15.2225C75.1418 15.2621 75.1075 15.2956 75.0673 15.3206C75.0271 15.3457 74.982 15.3617 74.935 15.3675C74.888 15.3734 74.8402 15.3689 74.7951 15.3545C74.75 15.3401 74.7086 15.3161 74.6737 15.284C74.6248 15.1864 74.4979 15.2049 74.4167 15.2167C74.4062 15.2183 74.3964 15.2197 74.3876 15.2208C74.3789 15.2218 74.3712 15.2225 74.3648 15.2225C74.3231 15.2642 74.2954 15.3271 74.27 15.3849C74.22 15.4984 74.1786 15.5925 74.0559 15.4698C74.0345 15.4484 74.015 15.4271 73.9964 15.4067L73.9963 15.4066C73.9071 15.3091 73.8381 15.2337 73.6849 15.2846C73.5807 15.3539 73.5546 15.4625 73.5297 15.5663C73.5103 15.6469 73.4917 15.7246 73.4376 15.7787C72.9182 15.7787 72.8794 15.2984 72.8433 14.8515C72.8365 14.7669 72.8297 14.6835 72.8199 14.6047C72.7482 14.354 72.8427 14.1449 72.9348 13.9413C73.0016 13.7936 73.0672 13.6488 73.0672 13.4928C72.9435 13.3692 72.8819 13.3692 72.7583 13.4307C72.1692 13.8588 72.3224 14.6583 72.4543 15.3464C72.4746 15.4525 72.4945 15.556 72.511 15.655C71.8311 15.5929 71.6459 14.9136 71.5222 14.4189C71.4911 14.2629 71.5546 14.1541 71.6091 14.0607C71.6624 13.9694 71.7071 13.8928 71.6459 13.8012C71.5696 13.7402 71.4915 13.6792 71.4128 13.6178L71.4122 13.6173C70.8533 13.181 70.2643 12.7213 70.1015 12.0716L70.101 12.0698C69.8543 11.0813 69.5462 9.84682 70.1636 9.04433C70.3505 8.88848 70.5532 8.93719 70.7479 8.98397C70.939 9.0299 71.1224 9.07397 71.2755 8.92067C71.3109 8.903 71.3464 8.85985 71.3848 8.81313C71.4803 8.69709 71.5938 8.55911 71.7701 8.73545C71.8937 8.85911 72.079 8.85911 72.2647 8.79701C72.3317 8.56277 72.5073 8.56402 72.6935 8.56534C72.8512 8.56646 73.0164 8.56764 73.1298 8.42603C73.4097 8.3326 73.6193 8.48638 73.8382 8.64704C73.9091 8.69902 73.9809 8.75173 74.0564 8.79701C74.6742 8.85911 75.2299 8.42657 75.4772 7.87037C75.6021 7.57044 75.5755 7.25028 75.5484 6.92626C75.5087 6.44929 75.4682 5.96394 75.9097 5.52245C76.2976 5.18978 76.6855 5.3543 76.9842 5.48099C77.0186 5.49559 77.0518 5.50968 77.0837 5.52245C78.0098 5.89343 78.7512 6.57275 79.3695 7.43783ZM77.3926 9.72419V9.90941C77.0216 9.72419 76.6511 9.41531 76.5896 8.92067L77.3926 9.72419ZM76.3417 9.84731L76.8358 10.2798C76.7743 10.3419 76.7127 10.4035 76.5891 10.3414C76.5303 10.2633 76.453 10.1976 76.3788 10.1344C76.2184 9.99785 76.072 9.87325 76.1565 9.66209C76.2181 9.53843 76.3417 9.72365 76.3417 9.84731ZM75.9276 10.3098C76.0268 10.452 76.1373 10.6103 76.3417 10.7124C76.4038 10.7124 76.4654 10.8366 76.3417 10.9597C76.2187 10.9597 76.0951 10.795 75.9716 10.6303C75.9097 10.5478 75.8479 10.4653 75.7861 10.4035C75.6624 10.3419 75.6003 10.1567 75.6624 10.0331C75.7732 10.0886 75.8467 10.1939 75.9276 10.3098ZM75.4985 10.6754C75.5836 10.7812 75.6723 10.8915 75.7861 10.9597C75.7861 11.0218 75.724 11.0834 75.6624 11.0828C75.5928 10.9901 75.4884 10.9323 75.3818 10.8732C75.2046 10.775 75.0215 10.6736 74.9831 10.4035C75.217 10.3254 75.3526 10.4939 75.4985 10.6754ZM77.3926 10.5272C77.5157 11.0213 77.8246 11.5154 78.1955 11.8863C78.1145 11.8377 78.0249 11.7976 77.9368 11.7582C77.6894 11.6475 77.4541 11.5422 77.4541 11.2686C77.3305 11.0213 77.2689 10.7124 77.3926 10.5272ZM77.2689 11.9484L77.0216 11.5775C77.0216 11.7632 77.1452 11.9484 77.2689 11.9484ZM78.9227 12.7532C78.8212 13.4616 78.7223 14.1517 78.4429 14.7905C78.1749 15.1657 77.9534 15.5641 77.733 15.9605C77.4452 16.478 77.1592 16.9923 76.7743 17.4473C76.548 17.3904 76.6842 17.127 76.7562 16.9879L76.764 16.9729L76.7743 16.9526L76.8052 16.914C77.2919 16.3065 77.8271 15.6383 77.9482 14.852C78.0881 14.4789 78.1576 14.0793 78.2265 13.6832C78.3401 13.0301 78.452 12.3865 78.8749 11.8863L79.1222 11.5775C79.0348 11.9712 78.9784 12.3648 78.9228 12.753L78.9228 12.7531L78.9227 12.7532ZM76.7127 12.0723C76.8053 12.2267 76.898 12.3811 77.0216 12.5046C77.0216 12.6278 76.8979 12.5662 76.7743 12.5046C76.5269 12.381 76.3417 12.1337 76.3417 11.8248L76.4033 11.6396C76.527 11.7631 76.6198 11.9176 76.7127 12.0723ZM80.1725 11.7632C80.4193 11.8248 80.7281 11.9484 80.7902 12.2573C80.6666 14.2343 79.6784 15.9023 78.6897 17.5088C78.5469 17.6038 78.4316 17.7171 78.3192 17.8277L78.3192 17.8278C78.1395 18.0045 77.967 18.1742 77.7009 18.2502L77.763 18.065C77.9248 17.7855 78.0971 17.5059 78.2699 17.2256L78.2699 17.2255L78.27 17.2254C78.8229 16.3283 79.381 15.4228 79.6163 14.4816C79.9873 13.6165 80.1725 12.752 80.1725 11.7632ZM79.6876 12.9L79.6784 12.9366C79.4928 14.2351 78.8899 15.3246 78.2872 16.4137L78.2871 16.414L78.287 16.4142C78.0867 16.7762 77.8864 17.1382 77.7014 17.5077C77.5716 17.5077 77.5099 17.5929 77.4448 17.6828C77.3859 17.7641 77.3243 17.8492 77.2068 17.8787C77.1831 17.855 77.1775 17.8223 77.1727 17.7944C77.165 17.7495 77.1595 17.7171 77.0831 17.7551C77.0459 17.6069 77.1423 17.4586 77.2387 17.3102C77.303 17.2114 77.3672 17.1125 77.392 17.0136C77.4256 16.8802 77.4952 16.8189 77.5716 16.7516C77.6365 16.6945 77.7062 16.6331 77.763 16.5195C77.9793 16.3033 78.1028 16.0407 78.2263 15.7781C78.3499 15.5156 78.4734 15.253 78.6897 15.0367L79.0606 14.1101C79.0606 13.3686 79.1843 12.6893 79.6168 12.0716C79.8518 12.2479 79.7509 12.6486 79.6876 12.9ZM77.4647 13.3027C77.5732 12.9674 77.6796 12.6388 77.9482 12.5046C78.0098 13.2461 77.9482 13.9254 77.7014 14.4821C77.6785 14.5624 77.6576 14.6448 77.6366 14.7282L77.6365 14.7284C77.5442 15.0936 77.4472 15.4772 77.1452 15.7792C77.0221 16.0881 76.8364 16.4591 76.5275 16.6443C76.2186 16.1497 76.0328 15.3467 76.4038 14.8526C76.6184 14.6377 76.688 14.4023 76.7567 14.1702C76.8066 14.0016 76.856 13.8347 76.96 13.6786L77.0216 13.7402V15.3467C77.3769 14.9914 77.3569 14.4693 77.3384 13.9862V13.986V13.9859C77.3344 13.8809 77.3305 13.7778 77.3305 13.6786C77.3816 13.5593 77.4232 13.4306 77.4646 13.3029L77.4646 13.3028L77.4647 13.3027ZM75.1062 15.9644C75.4151 15.5319 75.6624 16.0875 75.724 16.3349C75.7031 16.3768 75.6964 16.4328 75.6894 16.4911C75.6758 16.6046 75.6612 16.7264 75.5387 16.7674C75.4702 16.7331 75.4205 16.6412 75.3686 16.5451C75.3274 16.4687 75.2847 16.3897 75.2299 16.3349C74.9919 16.4143 74.9832 16.6209 74.9747 16.8241C74.9699 16.9373 74.9652 17.0494 74.921 17.1378C74.7452 17.1964 74.6527 17.0607 74.5712 16.9411C74.4807 16.8083 74.4037 16.6953 74.2411 16.8905C74.2251 16.9387 74.2174 16.9994 74.2094 17.0629C74.1865 17.2436 74.1608 17.4467 73.9323 17.4467C73.8086 17.4467 73.8086 17.3852 73.8086 17.2615C73.4997 17.0763 73.3761 16.7674 73.3761 16.4585C73.6544 16.3347 73.9482 16.2729 74.242 16.2111C74.5352 16.1494 74.8284 16.0877 75.1062 15.9644ZM76.2542 17.5813C76.2789 17.6395 76.3048 17.7003 76.3417 17.7556C76.3105 17.8028 76.2752 17.8499 76.2399 17.897C76.1362 18.0354 76.0327 18.1736 76.0323 18.3118C75.918 18.3691 75.8301 18.3202 75.7503 18.2759C75.6578 18.2245 75.5761 18.1791 75.4766 18.3118C75.3532 18.5587 75.1685 18.4973 74.9836 18.4358L74.9825 18.4355H74.1175C74.0803 18.1745 74.3129 18.071 74.5575 17.9621C74.7184 17.8905 74.8844 17.8166 74.9825 17.694C75.1059 17.4778 75.2911 17.4932 75.4764 17.5086C75.6617 17.5239 75.8471 17.5393 75.9707 17.3231C76.1442 17.3231 76.196 17.4447 76.2542 17.5813ZM75.177 18.9745C75.3534 19.0836 75.5246 19.1895 75.7861 19.1148L75.9092 19.1769C75.7296 19.4465 74.9605 19.5854 74.3885 19.6887C74.1747 19.7274 73.9884 19.761 73.8707 19.7946C73.8047 19.7286 74.0383 19.5921 74.2797 19.4509C74.4904 19.3278 74.7071 19.2011 74.7358 19.1148C74.7358 19.0532 74.7358 18.8675 74.7973 18.8059C74.9439 18.8303 75.0615 18.903 75.177 18.9745ZM71.708 5.77031C71.5849 5.46089 70.905 5.58455 70.905 5.58455C70.9671 5.09045 71.3375 5.02889 71.5233 5.02943C71.647 5.02943 71.7085 5.02943 71.7085 5.09099C71.8322 5.21411 72.079 5.27621 72.2647 5.15255C72.3878 5.09045 72.3263 4.96733 72.2026 4.90523C72.1405 4.90523 72.1405 4.84367 72.1405 4.78157C72.2204 4.74182 72.2743 4.7534 72.3358 4.7666C72.3696 4.77384 72.4056 4.78157 72.4494 4.78157C73.2524 4.96679 73.376 5.58455 73.4997 6.32597C73.4997 6.57329 73.4381 6.94373 73.1908 7.06739C72.8945 6.93563 72.7561 7.08449 72.626 7.22437C72.5119 7.34705 72.4042 7.46281 72.2021 7.37627C72.0784 7.49993 72.2636 7.68515 72.3873 7.68515L72.5168 7.66376C72.8556 7.60815 73.2262 7.54734 73.4997 7.43783C73.5613 7.56149 73.6234 7.87037 73.3761 7.99403C73.2524 7.87037 73.0051 7.93193 72.8199 8.05559C72.6102 7.95076 72.4993 8.08343 72.3865 8.21834C72.3001 8.3218 72.2125 8.42657 72.0784 8.42657L71.5228 8.24135C71.3001 8.57479 70.9279 8.5079 70.5852 8.44632L70.585 8.44628C70.547 8.43946 70.5094 8.4327 70.4725 8.42657C70.4454 7.93859 70.7873 7.64096 71.1324 7.34048C71.5735 6.95632 72.0201 6.56751 71.708 5.77031ZM68.9902 18.497C68.4955 18.9911 68.3724 19.2384 68.434 19.3621C68.434 19.7325 69.4843 19.9183 70.7819 19.6721C70.8909 19.6611 70.9846 19.6521 71.0652 19.6443C71.4414 19.608 71.5342 19.5991 71.5849 19.5484C71.8938 19.5484 72.079 19.4868 72.3878 19.3632C72.4359 19.2667 72.409 18.9823 72.3948 18.8326C72.3908 18.7904 72.3878 18.759 72.3878 18.7454C72.1405 18.0656 71.9553 17.4478 72.0169 16.7064C72.0169 16.7064 71.8316 16.1502 71.9553 15.965C72.6352 15.594 73.0677 17.0147 73.0677 17.0147C73.1406 17.2157 73.2298 17.4058 73.3176 17.5931C73.527 18.0395 73.7288 18.4699 73.6855 18.9922C73.6855 19.1391 73.6081 19.2084 73.5146 19.2921L73.5144 19.2922C73.4897 19.3143 73.4639 19.3374 73.4381 19.3632L73.3145 19.4247L73.3125 19.4261C73.1279 19.5493 72.9435 19.6724 72.9435 19.9188C72.8204 20.0425 72.882 20.2898 73.1293 20.2898C73.5171 20.179 73.9543 20.1176 74.3524 20.0617L74.4884 20.0425C74.9513 19.9583 75.1848 19.9314 75.5993 19.8837C75.7932 19.8614 76.0267 19.8346 76.3417 19.7952H76.7127C76.8358 19.7952 76.8979 19.7952 77.0216 19.7331L77.1452 19.6094C77.1984 19.4491 77.1136 19.2892 77.0498 19.1689C77.0396 19.1498 77.03 19.1317 77.0216 19.1148C76.9966 19.0648 76.9206 18.9841 76.8391 18.8977C76.7199 18.7713 76.5891 18.6326 76.5891 18.5591C76.7737 18.6207 77.1447 18.9296 77.1447 18.9296C77.392 19.0532 77.7004 18.9917 77.9477 18.868C79.1216 18.0035 79.8631 16.9526 80.4193 15.6555C81.1607 14.049 81.5932 12.3189 81.408 10.404C81.1612 9.35375 80.7287 8.42711 80.1109 7.56203C79.3695 6.57329 78.4429 5.33777 77.1452 4.90523C76.2802 4.53479 75.7861 4.90523 75.3535 5.33777C74.8968 5.68018 74.9679 6.28694 75.0299 6.81606C75.035 6.85938 75.04 6.90218 75.0446 6.94427C75.0446 7.56203 75.0446 8.05613 74.4269 8.24135C74.2417 8.24135 74.1801 8.17979 74.118 8.05613C74.0994 7.77834 74.0975 7.50604 74.0956 7.23758C74.0912 6.61106 74.0869 6.00546 73.8707 5.39987C73.6849 4.90577 73.3145 4.59689 72.8819 4.47323C72.3497 4.14594 71.9532 4.33351 71.5307 4.5334C71.3153 4.63528 71.0932 4.74036 70.8429 4.78211C70.6582 4.78211 70.2252 5.33831 70.2872 5.77085C70.2872 5.95607 70.4109 6.01763 70.5961 6.01763C70.658 6.01763 70.7198 6.00224 70.7816 5.98685C70.8434 5.97146 70.9053 5.95607 70.9671 5.95607C71.1523 6.01763 71.3375 6.14129 71.3375 6.26495C70.9671 6.88271 70.4109 7.37681 69.9168 7.80935L69.731 7.68569C69.731 7.63139 69.7315 7.57512 69.7319 7.51732V7.51576V7.51415C69.7366 6.84912 69.7429 5.98243 69.1754 5.58509C68.7409 5.39214 68.3438 5.46328 67.955 5.53292C67.8466 5.55235 67.7388 5.57166 67.631 5.58509C65.0363 6.45017 64.0481 9.10643 63.6771 11.578C63.7387 13.9875 64.789 16.3349 66.2718 18.065L66.5807 18.3739C66.8796 18.6773 67.2709 18.8728 67.6931 18.9296H67.8167C68.3854 18.8824 68.6631 17.89 68.901 17.0398C68.9733 16.7816 69.0419 16.5364 69.1138 16.3349C69.4848 15.1614 70.2878 14.9141 70.2878 14.9141C70.2878 14.9141 69.7931 15.4698 69.6695 16.2112C69.6442 16.3379 69.6216 16.4828 69.5972 16.6385C69.5029 17.2416 69.3833 18.006 68.9902 18.497ZM73.1049 11.0337C73.3301 11.0516 73.5524 11.0693 73.6855 10.8366C73.6961 10.8045 73.7104 10.7688 73.7256 10.731C73.7982 10.5497 73.8901 10.3206 73.6855 10.2183C73.5823 10.2529 73.5557 10.3449 73.531 10.4303C73.5114 10.4983 73.4929 10.562 73.4381 10.5893C73.3259 10.7391 73.1909 10.6848 73.0607 10.6324C72.976 10.5983 72.8934 10.565 72.8204 10.5893C72.6352 10.7745 72.3878 10.8366 72.1405 10.8366V10.9602L72.1413 10.961C72.2647 11.0839 72.3882 11.2069 72.5731 11.1455C72.716 11.0028 72.9115 11.0183 73.1049 11.0337ZM75.3224 13.0834C75.203 13.024 75.0764 12.961 75.1062 12.813C75.0325 12.7148 75.0469 12.5872 75.0597 12.473C75.0792 12.3002 75.0951 12.1582 74.7973 12.1952C74.7358 12.3804 74.7973 12.813 74.921 13.1219C74.9308 13.1316 74.9409 13.1422 74.9514 13.1532C74.9566 13.1587 74.9618 13.1642 74.9672 13.1698L74.9675 13.1702C75.0894 13.2989 75.2592 13.4782 75.4772 13.3692C75.5736 13.2084 75.4522 13.148 75.3224 13.0834ZM76.1158 12.9308C76.1055 12.8904 76.0949 12.8491 76.0949 12.813L75.724 12.6899C75.55 12.5156 75.5523 12.3025 75.5544 12.1054C75.556 11.9525 75.5576 11.8092 75.4766 11.7011C75.4766 11.5775 75.353 11.4538 75.2293 11.5775C75.0441 12.0716 75.1678 12.5657 75.4151 12.9366C75.6003 13.1219 75.8476 13.2455 76.0329 13.1219C76.1644 13.1219 76.1408 13.0289 76.1158 12.9308ZM74.1642 11.7905C74.1886 11.7599 74.2133 11.729 74.2411 11.7011C74.2411 11.6536 74.2452 11.602 74.2492 11.5515C74.2608 11.4055 74.2716 11.2691 74.1801 11.2691C74.0564 11.5159 73.8091 11.578 73.5002 11.5159L73.4997 11.5164L73.4997 11.5165C73.3758 11.6403 73.1294 11.8867 72.8825 11.7632C72.7534 11.8275 72.7758 11.9088 72.8004 11.9981C72.823 12.0801 72.8474 12.1688 72.7588 12.2573C72.6352 12.2573 72.45 12.2573 72.3263 12.1958C72.2439 12.2504 72.1253 12.2565 72.0079 12.2627C71.8605 12.2703 71.7153 12.2779 71.6464 12.381C71.7349 12.6904 71.9811 12.6834 72.2046 12.6771C72.2936 12.6746 72.379 12.6722 72.4494 12.6899C72.8155 12.7509 72.9707 12.5258 73.1232 12.3045C73.2796 12.0776 73.4332 11.8547 73.8086 11.9484C74.0002 11.9961 74.0803 11.8957 74.1642 11.7905ZM42.2386 53.0333C41.1883 53.0333 41.1883 52.2303 41.2498 51.9214H41.6824V52.0451C41.6824 52.4776 41.9297 52.6634 42.2386 52.6634C42.609 52.6634 42.8563 52.4781 42.8563 52.1077C42.8563 51.7328 42.5201 51.5596 42.1615 51.3749C41.7514 51.1636 41.3119 50.9373 41.3119 50.377C41.3119 49.7598 41.7445 49.4509 42.3007 49.4509C42.9805 49.4509 43.2894 49.7598 43.2894 50.4391H42.7953C42.7953 50.0676 42.7332 49.8208 42.3007 49.8208C42.0533 49.8208 41.7445 49.9439 41.7445 50.3154C41.7445 50.654 42.0664 50.825 42.4163 51.0108C42.8328 51.232 43.2889 51.4743 43.2889 52.0451C43.2889 52.7865 42.7948 53.0333 42.2386 53.0333ZM45.7599 52.5397V52.9722H43.9682V49.5114H45.6978V49.8829H44.4007V50.9942H45.6362V51.3657H44.4007V52.5397H45.7599ZM47.3664 49.4504C48.0457 49.4504 48.293 49.7592 48.293 50.4386H47.7984C47.7984 50.2528 47.7984 50.0676 47.7369 49.9439C47.6132 49.8203 47.428 49.8203 47.3043 49.8203C46.9954 49.8203 46.8102 50.006 46.8102 50.067C46.8102 50.082 46.803 50.097 46.7922 50.1197C46.7578 50.1912 46.6866 50.3399 46.6866 50.8085V51.7356C46.6866 52.5392 46.9954 52.6628 47.3043 52.6628C47.428 52.6628 47.8605 52.6007 47.8605 51.9214H48.293C48.3551 53.0333 47.5516 53.0333 47.3664 53.0333C46.9339 53.0333 46.2546 52.9717 46.2546 51.6735V50.6853C46.2546 49.6971 46.6871 49.4504 47.3664 49.4504ZM49.9611 53.0333C49.2818 53.0333 48.9108 52.6628 48.9108 51.6735V49.5114H49.3433V51.7356C49.3433 52.4771 49.5901 52.6628 49.9611 52.6628C50.3937 52.6628 50.641 52.4771 50.641 51.7356V49.5114H51.0735V51.6735C51.0735 52.6628 50.7025 53.0333 49.9611 53.0333ZM52.8647 49.8829H52.2469V50.9942H52.8647C53.1736 50.9942 53.3593 50.6853 53.3593 50.4386C53.3593 50.1918 53.2357 49.8829 52.8647 49.8829ZM53.2357 51.7983C53.2357 51.3657 52.8647 51.3657 52.741 51.3657L52.2475 51.3652V52.9717H51.7528V49.5114H52.9889C53.6061 49.5114 53.7919 49.9439 53.7919 50.3765C53.7919 50.7474 53.5445 51.0563 53.1736 51.18C53.5445 51.2415 53.7298 51.3657 53.7298 52.0451C53.7298 52.1687 53.7919 52.7244 53.8534 52.9722H53.4209C53.3324 52.7949 53.3072 52.5229 53.2775 52.2017V52.2016C53.2657 52.074 53.2532 51.9386 53.2357 51.7983ZM54.4712 49.5114H54.9037V52.9722H54.4712V49.5114ZM55.3978 49.8829V49.5114H57.6221V49.8829H56.6954V52.9722H56.2629V49.8829H55.3978ZM58.1162 49.5114H58.5487V52.9722H58.1162V49.5114ZM61.1434 52.5397V52.9722H59.3522V49.5114H61.1434V49.8829H59.7842V50.9942H61.0198V51.3657H59.7842V52.5397H61.1434ZM62.6263 53.0333C61.576 53.0333 61.576 52.2303 61.576 51.9214H62.008V52.0451C62.008 52.4776 62.3168 52.6634 62.6257 52.6634C62.9352 52.6634 63.244 52.4781 63.244 52.1077C63.244 51.7328 62.9078 51.5596 62.5492 51.3749C62.1391 51.1636 61.6996 50.9373 61.6996 50.377C61.6996 49.7598 62.1322 49.4509 62.6884 49.4509C63.3061 49.4509 63.6766 49.7598 63.615 50.4391H63.1825C63.1825 50.0676 63.0588 49.8208 62.6263 49.8208C62.3795 49.8208 62.1322 49.9439 62.1322 50.3154C62.1322 50.654 62.4541 50.825 62.804 51.0108C63.2205 51.232 63.6766 51.4743 63.6766 52.0451C63.6766 52.7865 63.1825 53.0333 62.6263 53.0333ZM65.4062 49.5114H65.8387V52.9722H65.4062V49.5114ZM68.6192 52.4776V49.5114H68.9902V52.9722H68.3724L67.0132 49.9439V52.9722H66.6423V49.5114H67.26L68.6192 52.4776ZM71.5233 49.5114H71.9553L70.9671 52.9722H70.4109L69.4222 49.5114H69.9168L70.7198 52.5397L71.5233 49.5114ZM74.1801 52.5397V52.9722H72.3878V49.5114H74.1801V49.8829H72.8204V50.9942H74.0564V51.3657H72.8204V52.5397H74.1801ZM75.6624 53.0333C74.6121 53.0333 74.6121 52.2303 74.6121 51.9214H75.0446V52.0451C75.0446 52.4776 75.3541 52.6634 75.6629 52.6634C75.9718 52.6634 76.2807 52.4781 76.2807 52.1077C76.2807 51.7328 75.9445 51.5596 75.5858 51.3749C75.1758 51.1636 74.7363 50.9373 74.7363 50.377C74.7363 49.7598 75.1688 49.4509 75.7251 49.4509C76.3428 49.4509 76.7132 49.7598 76.6517 50.4391H76.2191C76.2191 50.0676 76.0955 49.8208 75.6629 49.8208C75.4156 49.8208 75.1683 49.9439 75.1683 50.3154C75.1683 50.654 75.4903 50.825 75.8402 51.0108C76.2566 51.232 76.7127 51.4743 76.7127 52.0451C76.7127 52.7865 76.2186 53.0333 75.6624 53.0333ZM77.0216 49.8829V49.5114H79.3074V49.8829H78.3808V52.9722H77.9482V49.8829H77.0216ZM81.8405 51.6735C81.8405 52.6628 81.4696 53.0333 80.7902 53.0333C80.0488 53.0333 79.6784 52.6628 79.6778 51.6735V50.5617C79.6778 49.8824 80.0488 49.4498 80.7902 49.4498C81.4696 49.4498 81.8405 49.8824 81.8405 50.5617V51.6735ZM80.1109 51.7356C80.1109 52.4771 80.3577 52.6628 80.7902 52.6628C81.1612 52.6628 81.408 52.4776 81.408 51.7356V50.5617C81.408 49.8203 80.9139 49.8203 80.7902 49.8203C80.605 49.8203 80.1109 49.8203 80.1109 50.5617V51.7356ZM83.6944 49.8829H83.0145V50.9942H83.6944C84.0033 50.9942 84.1269 50.6853 84.1269 50.4386C84.1269 50.1918 84.0033 49.8829 83.6944 49.8829ZM84.0648 51.7983C84.0027 51.3657 83.6938 51.3657 83.5086 51.3657L83.015 51.3652V52.9717H82.5825V49.5114H83.7565C84.3742 49.5114 84.5594 49.9439 84.5594 50.3765C84.5594 50.7474 84.3737 51.0563 83.9411 51.18C84.3737 51.2415 84.4973 51.3657 84.4973 52.0451C84.4973 52.1687 84.5594 52.7244 84.621 52.9722H84.1885C84.0648 52.7244 84.0648 52.2918 84.0648 51.7983ZM87.3394 49.8829H86.7216L86.7211 51.0569H87.2157C87.4009 51.0569 87.8335 50.9942 87.8335 50.4386C87.8335 49.9439 87.4009 49.8829 87.3394 49.8829ZM86.7216 51.4273V52.9722H86.2891V49.5119H87.2778C87.7719 49.5119 88.266 49.6977 88.266 50.5012C88.266 51.2415 87.6488 51.4273 87.2778 51.4273H86.7216ZM89.9341 49.8829H89.2547V50.9942H89.9341C90.243 50.9942 90.3666 50.6853 90.3666 50.4386C90.3666 50.1918 90.243 49.8829 89.9341 49.8829ZM90.305 51.7983C90.2435 51.3657 89.9341 51.3657 89.7488 51.3657L89.2542 51.3652V52.9717H88.8217V49.5114H89.9956C90.6128 49.5114 90.8607 49.9439 90.8607 50.3765C90.8607 50.7474 90.6128 51.0563 90.1808 51.18C90.6128 51.2415 90.7376 51.3657 90.7986 52.0451C90.7986 52.1687 90.7986 52.7244 90.9223 52.9722H90.4287C90.3531 52.8208 90.3467 52.6004 90.3391 52.3393C90.3343 52.173 90.329 51.9903 90.305 51.7983ZM93.5791 51.6735C93.5791 52.6628 93.2702 53.0333 92.5288 53.0333C91.7879 53.0333 91.4169 52.6628 91.4169 51.6735V50.5617C91.4169 49.8824 91.7884 49.4498 92.5288 49.4498C93.2702 49.4498 93.5791 49.8824 93.5791 50.5617V51.6735ZM91.9115 51.7356C91.9115 52.4771 92.0962 52.6628 92.5288 52.6628C92.9608 52.6628 93.1465 52.4776 93.1471 51.7356V50.5617C93.1471 49.8203 92.653 49.8203 92.5288 49.8203C92.4051 49.8203 91.9115 49.8203 91.9115 50.5617V51.7356ZM94.0116 49.8829V49.5114H96.2359V49.8829H95.3708V52.9722H94.9382V49.8829H94.0116ZM98.4601 52.5397V52.9722H96.6684V49.5114H98.4601V49.8829H97.1004V50.9942H98.3365V51.3657H97.1004V52.5397H98.4601ZM100.128 49.4504C100.808 49.4504 101.054 49.7592 100.993 50.4386H100.56C100.56 50.2528 100.56 50.0676 100.436 49.9439C100.374 49.8203 100.128 49.8203 100.066 49.8203C99.6951 49.8203 99.5709 50.006 99.5709 50.067L99.5707 50.0672C99.5092 50.1292 99.4473 50.1918 99.4473 50.8085V51.7356C99.4473 52.5392 99.6951 52.6628 100.066 52.6628C100.189 52.6628 100.621 52.6007 100.621 51.9214H101.054C101.054 53.0333 100.312 53.0333 100.066 53.0333C99.6335 53.0333 99.0152 52.9717 99.0152 51.6735V50.6853C99.0152 49.6971 99.4478 49.4504 100.128 49.4504ZM101.303 49.8829V49.5114H103.588V49.8829H102.661V52.9722H102.228V49.8829H101.303ZM104.083 49.5114H104.515V52.9722H104.083V49.5114ZM107.418 51.6735C107.418 52.6628 107.109 53.0333 106.368 53.0333C105.626 53.0333 105.257 52.6628 105.256 51.6735V50.5617C105.256 49.8824 105.626 49.4498 106.368 49.4498C107.109 49.4498 107.418 49.8824 107.418 50.5617V51.6735ZM105.75 51.7356C105.75 52.4771 105.935 52.6628 106.368 52.6628C106.8 52.6628 106.986 52.4776 106.986 51.7356V50.5617C106.986 49.8203 106.492 49.8203 106.368 49.8203C106.244 49.8203 105.75 49.8203 105.75 50.5617V51.7356ZM110.137 52.4776V49.5114H110.569V52.9722H109.952L108.593 49.9439V52.9722H108.16V49.5114H108.839L110.137 52.4776ZM113.411 49.4504C114.09 49.4504 114.338 49.7592 114.338 50.4386H113.844C113.844 50.2528 113.844 50.0676 113.782 49.9439C113.658 49.8203 113.473 49.8203 113.349 49.8203C112.979 49.8203 112.855 50.006 112.855 50.067C112.855 50.0737 112.854 50.0804 112.851 50.0878C112.848 50.0969 112.843 50.1071 112.837 50.1197C112.803 50.1912 112.732 50.3399 112.732 50.8085V51.7356C112.732 52.5392 113.04 52.6628 113.349 52.6628C113.472 52.6628 113.906 52.6007 113.906 51.9214H114.338C114.399 53.0333 113.597 53.0333 113.411 53.0333C112.979 53.0333 112.299 52.9717 112.299 51.6735V50.6853C112.299 49.6971 112.732 49.4504 113.411 49.4504ZM117.119 51.6735C117.119 52.6628 116.747 53.0333 116.006 53.0333C115.264 53.0333 114.956 52.6628 114.956 51.6735V50.5617C114.956 49.8824 115.264 49.4498 116.006 49.4498C116.747 49.4498 117.119 49.8824 117.119 50.5617V51.6735ZM115.388 51.7356C115.388 52.4771 115.635 52.6628 116.006 52.6628C116.438 52.6628 116.686 52.4776 116.686 51.7356V50.5617C116.686 49.8203 116.192 49.8203 116.006 49.8203C115.882 49.8203 115.388 49.8203 115.388 50.5617V51.7356ZM118.909 49.8829H118.292V50.9942H118.909C119.218 50.9942 119.404 50.6853 119.404 50.4386C119.404 50.1918 119.281 49.8829 118.909 49.8829ZM119.281 51.7983C119.281 51.3657 118.91 51.3657 118.786 51.3657L118.293 51.3652V52.9717H117.799V49.5114H119.035C119.651 49.5114 119.837 49.9439 119.837 50.3765C119.837 50.7474 119.59 51.0563 119.219 51.18C119.59 51.2415 119.776 51.3657 119.776 52.0451C119.776 52.1687 119.837 52.7244 119.899 52.9722H119.405C119.329 52.8204 119.322 52.5993 119.315 52.3374V52.3373C119.31 52.1715 119.305 51.9895 119.281 51.7983ZM121.566 49.8829H120.949V51.0569H121.443C121.628 51.0569 122.061 50.9942 122.061 50.4386C122.061 49.9439 121.628 49.8829 121.566 49.8829ZM120.949 51.4273V52.9722H120.516V49.5119H121.505C121.998 49.5119 122.493 49.6977 122.493 50.5012C122.493 51.2415 121.875 51.4273 121.505 51.4273H120.949ZM125.212 51.6735C125.212 52.6628 124.841 53.0333 124.162 53.0333C123.421 53.0333 123.049 52.6628 123.049 51.6735V50.5617C123.049 49.8824 123.421 49.4498 124.162 49.4498C124.841 49.4498 125.212 49.8824 125.212 50.5617V51.6735ZM123.482 51.7356C123.482 52.4771 123.729 52.6628 124.162 52.6628C124.532 52.6628 124.779 52.4776 124.779 51.7356V50.5617C124.779 49.8203 124.286 49.8203 124.162 49.8203C123.976 49.8203 123.482 49.8203 123.482 50.5617V51.7356ZM127.066 49.8829H126.385V50.9942H127.066C127.374 50.9942 127.498 50.6853 127.498 50.4386C127.498 50.1918 127.374 49.8829 127.066 49.8829ZM127.435 51.7983C127.374 51.3657 127.066 51.3657 126.88 51.3657L126.386 51.3652V52.9717H125.953V49.5114H127.127C127.745 49.5114 127.931 49.9439 127.931 50.3765C127.931 50.7474 127.745 51.0563 127.312 51.18C127.744 51.2415 127.868 51.3657 127.868 52.0451C127.868 52.1687 127.931 52.7244 127.992 52.9722H127.559C127.435 52.7244 127.435 52.2918 127.435 51.7983ZM128.672 52.9722H128.239L129.351 49.5119H129.906L131.019 52.9722H130.525L130.278 52.1072H128.918L128.672 52.9722ZM129.041 51.7362H130.154L129.597 49.8829L129.041 51.7362ZM130.773 49.8829V49.5114H132.996V49.8829H132.131V52.9722H131.699V49.8829H130.773ZM133.49 49.5114H133.923V52.9722H133.49V49.5114ZM136.889 51.6735C136.889 52.6628 136.517 53.0333 135.776 53.0333C135.097 53.0333 134.727 52.6628 134.727 51.6735V50.5617C134.727 49.8824 135.096 49.4498 135.776 49.4498C136.517 49.4498 136.889 49.8824 136.889 50.5617V51.6735ZM135.159 51.7356C135.159 52.4771 135.405 52.6628 135.776 52.6628C136.208 52.6628 136.456 52.4776 136.456 51.7356V50.5617C136.456 49.8203 135.962 49.8203 135.776 49.8203C135.652 49.8203 135.159 49.8203 135.159 50.5617V51.7356ZM139.607 52.4776V49.5114H139.978V52.9722H139.422L138.063 49.9439H138.001V52.9722H137.63V49.5114H138.248L139.607 52.4776ZM63.1209 19.4852V6.51119C63.1209 6.20285 62.8736 6.07919 62.8126 6.51119C62.7537 6.82555 62.726 7.11492 62.6998 7.38921C62.6435 7.97761 62.5939 8.49665 62.2569 9.04433L62.253 9.04925C61.9948 9.37171 60.5803 11.1388 59.0439 9.97097C51.1972 4.22537 37.8521 7.99403 39.706 21.3385C40.4431 26.7137 44.8601 28.7448 49.1691 30.7262C53.5278 32.7305 57.7761 34.684 57.9936 39.9966C58.3025 48.9546 41.5598 46.9782 41.3125 31.5947C41.3125 31.47 41.1273 31.409 41.1273 31.6557V45.5564C41.1273 45.6801 41.4977 46.1126 41.4977 44.754C41.5598 43.8268 41.8681 42.9623 42.2391 42.7765C43.2273 42.4066 45.6368 43.9505 45.6368 43.9505C55.0895 48.8315 66.9517 44.754 64.9126 31.7794C63.8865 25.1927 59.1543 23.6243 54.6586 22.1342C50.7625 20.8429 47.044 19.6105 46.0688 15.2219C44.4007 7.80827 52.6179 5.15147 59.3522 11.2059C62.0462 13.6255 62.4407 16.5338 62.7126 18.5381L62.7127 18.5386L62.7128 18.5395C62.7464 18.787 62.7781 19.0206 62.812 19.2379C62.8185 19.2704 62.8243 19.3016 62.8297 19.331C62.8763 19.5815 62.8996 19.7066 63.1209 19.4852ZM139.36 20.2887C139.36 20.2887 139.854 20.536 139.792 19.6094V7.49991C139.792 7.49991 139.792 6.88215 139.483 7.06737C139.113 8.85963 138.372 12.381 135.467 10.8981C134.609 10.4376 134.098 10.0622 133.635 9.7214C132.73 9.05627 132.005 8.5231 129.227 7.74723C122.123 5.77029 113.225 12.3189 111.434 19.1769C103.774 48.0285 137.012 54.5782 140.534 34.8693C140.595 34.3757 140.534 33.9421 140.41 34.3136C140.41 34.4367 140.039 35.6107 139.978 35.7964C133.86 51.241 118.167 46.7935 119.28 24.181C120.578 -1.33449 140.595 10.3419 139.36 20.2887ZM93.888 8.48865C96.7915 8.30289 99.2626 9.66261 100.745 12.01C102.661 14.9141 103.218 19.671 101.426 22.9455C99.8809 25.726 97.1004 27.7035 93.888 27.4561C93.888 27.4561 93.5175 27.4561 93.5175 27.0236V8.73597C93.5175 8.73597 93.5175 8.48865 93.888 8.48865ZM107.48 25.5408C109.766 23.5017 110.754 19.7952 109.952 15.1614C109.334 11.4538 106.554 9.41529 103.218 8.73651C98.0314 7.64935 89.6451 7.70793 84.5336 7.74364C83.252 7.75259 82.1764 7.76011 81.4086 7.74777C81.2228 7.74777 81.0376 8.11821 81.4701 8.11821C81.6529 8.13134 81.8579 8.13341 82.0668 8.13553C82.8461 8.14341 83.6813 8.15186 83.6323 8.73651L83.6944 45.558H93.5181V28.7538C93.5181 28.7538 93.4554 28.0118 94.0737 28.0118C95.1329 27.9716 96.1716 27.9867 97.1906 28.0014C100.868 28.0548 104.287 28.1043 107.48 25.5408ZM78.8133 45.558V21.71C78.8133 21.71 78.8133 21.2775 78.2571 21.2775H65.4683C65.0358 21.339 65.221 21.5863 65.4683 21.5863C65.4683 21.5863 67.0127 21.7095 68.1867 21.7716C68.7429 21.8337 68.6813 22.6366 68.6813 22.6366V45.558C68.6813 45.558 77.3926 45.6201 78.8133 45.558Z" fill="#E3E3E3"/>

</svg>
