<svg width="76" height="76" viewBox="0 0 76 76" fill="none" xmlns="http://www.w3.org/2000/svg">
<path d="M35.5167 1.52817C36.5453 -0.509391 39.4547 -0.50939 40.4833 1.52817C41.3668 3.27813 43.7346 3.58987 45.0409 2.12819C46.5618 0.426279 49.3721 1.17929 49.8383 3.41365C50.2387 5.33263 52.4452 6.2466 54.0853 5.17281C55.9949 3.92254 58.5145 5.37724 58.3865 7.65613C58.2766 9.61336 60.1714 11.0673 62.0335 10.4545C64.2016 9.74112 66.2589 11.7984 65.5455 13.9665C64.9327 15.8286 66.3866 17.7234 68.3439 17.6135C70.6228 17.4855 72.0775 20.0051 70.8272 21.9147C69.7534 23.5548 70.6674 25.7613 72.5863 26.1617C74.8207 26.6279 75.5737 29.4382 73.8718 30.9591C72.4101 32.2654 72.7219 34.6332 74.4718 35.5167C76.5094 36.5453 76.5094 39.4547 74.4718 40.4833C72.7219 41.3668 72.4101 43.7346 73.8718 45.0409C75.5737 46.5618 74.8207 49.3721 72.5863 49.8383C70.6674 50.2387 69.7534 52.4452 70.8272 54.0853C72.0775 55.9949 70.6228 58.5145 68.3439 58.3865C66.3866 58.2766 64.9327 60.1714 65.5455 62.0335C66.2589 64.2016 64.2016 66.2589 62.0335 65.5455C60.1714 64.9327 58.2766 66.3866 58.3865 68.3439C58.5145 70.6228 55.9949 72.0775 54.0853 70.8272C52.4452 69.7534 50.2387 70.6674 49.8383 72.5863C49.3721 74.8207 46.5618 75.5737 45.0409 73.8718C43.7346 72.4101 41.3668 72.7219 40.4833 74.4718C39.4547 76.5094 36.5453 76.5094 35.5167 74.4718C34.6332 72.7219 32.2654 72.4101 30.9591 73.8718C29.4382 75.5737 26.6279 74.8207 26.1617 72.5863C25.7613 70.6674 23.5548 69.7534 21.9147 70.8272C20.0051 72.0775 17.4855 70.6228 17.6135 68.3439C17.7234 66.3866 15.8286 64.9327 13.9665 65.5455C11.7984 66.2589 9.74112 64.2016 10.4545 62.0335C11.0673 60.1714 9.61336 58.2766 7.65613 58.3865C5.37724 58.5145 3.92254 55.9949 5.17281 54.0853C6.2466 52.4452 5.33263 50.2387 3.41365 49.8383C1.17929 49.3721 0.426279 46.5618 2.12819 45.0409C3.58987 43.7346 3.27813 41.3668 1.52817 40.4833C-0.509391 39.4547 -0.509391 36.5453 1.52817 35.5167C3.27813 34.6332 3.58987 32.2654 2.12819 30.9591C0.426278 29.4382 1.17929 26.6279 3.41365 26.1617C5.33263 25.7613 6.2466 23.5548 5.17281 21.9147C3.92254 20.0051 5.37724 17.4855 7.65613 17.6135C9.61336 17.7234 11.0673 15.8286 10.4545 13.9665C9.74112 11.7984 11.7984 9.74112 13.9665 10.4545C15.8286 11.0673 17.7234 9.61336 17.6135 7.65613C17.4855 5.37724 20.0051 3.92254 21.9147 5.17281C23.5548 6.2466 25.7613 5.33263 26.1617 3.41365C26.6279 1.17929 29.4382 0.426279 30.9591 2.12819C32.2654 3.58987 34.6332 3.27813 35.5167 1.52817Z" fill="#3E9CC4"/>
<circle cx="15.9202" cy="28.3793" r="2.07653" fill="#2D2D2D"/>
<circle cx="60.0809" cy="28.3793" r="2.07653" fill="#2D2D2D"/>
</svg>
