<svg width="22" height="22" viewBox="0 0 22 22" fill="none" xmlns="http://www.w3.org/2000/svg">
<path fill-rule="evenodd" clip-rule="evenodd" d="M11 21.75C16.9371 21.75 21.75 16.9371 21.75 11C21.75 5.06294 16.9371 0.25 11 0.25C5.06294 0.25 0.25 5.06294 0.25 11C0.25 16.9371 5.06294 21.75 11 21.75ZM9.29603 1.90662C5.2409 2.66174 2.11597 6.06245 1.77997 10.25H6.28229C6.48347 7.23408 7.53193 4.34326 9.29603 1.90662ZM12.704 1.90662C14.4681 4.34326 15.5165 7.23408 15.7177 10.25H20.22C19.884 6.06245 16.7591 2.66174 12.704 1.90662ZM14.214 10.25C13.9957 7.28426 12.8734 4.45652 11 2.14873C9.12658 4.45652 8.00431 7.28426 7.78597 10.25H14.214ZM7.78597 11.75H14.214C13.9957 14.7157 12.8734 17.5435 11 19.8513C9.12658 17.5435 8.00431 14.7157 7.78597 11.75ZM6.28229 11.75H1.77997C2.11597 15.9376 5.2409 19.3383 9.29603 20.0934C7.53193 17.6567 6.48347 14.7659 6.28229 11.75ZM12.704 20.0934C14.4681 17.6567 15.5165 14.7659 15.7177 11.75H20.22C19.884 15.9376 16.7591 19.3383 12.704 20.0934Z" fill="white"/>
</svg>
