<svg width="15" height="15" viewBox="0 0 15 15" fill="none" xmlns="http://www.w3.org/2000/svg">
<path d="M14.2346 5.45748C14.1924 5.333 14.1146 5.22362 14.0108 5.14285C13.9071 5.06207 13.782 5.01344 13.651 5.00295L9.81775 4.69836L8.15899 1.0265C8.10616 0.908234 8.02024 0.807787 7.91158 0.737278C7.80293 0.66677 7.67619 0.629214 7.54667 0.629143C7.41714 0.629072 7.29036 0.666489 7.18163 0.736878C7.0729 0.807267 6.98687 0.90762 6.93391 1.02583L5.27515 4.69836L1.44191 5.00295C1.31312 5.01316 1.19 5.06025 1.08727 5.13859C0.98454 5.21694 0.906558 5.32322 0.862652 5.44473C0.818745 5.56623 0.810774 5.69781 0.839691 5.82373C0.868608 5.94965 0.933189 6.06457 1.02571 6.15474L3.85845 8.9162L2.8566 13.2544C2.82618 13.3857 2.83593 13.5231 2.88458 13.6488C2.93324 13.7746 3.01855 13.8827 3.12945 13.9593C3.24035 14.036 3.37172 14.0775 3.50651 14.0785C3.6413 14.0795 3.77329 14.04 3.88534 13.9651L7.54645 11.5244L11.2076 13.9651C11.3221 14.0412 11.4572 14.0803 11.5946 14.0773C11.732 14.0743 11.8653 14.0292 11.9764 13.9482C12.0874 13.8673 12.1711 13.7542 12.216 13.6243C12.2609 13.4943 12.2649 13.3538 12.2276 13.2215L10.9978 8.91822L14.0477 6.17357C14.2474 5.99337 14.3207 5.71231 14.2346 5.45748Z" fill="#656565"/>
<path d="M7.54667 0.629143C7.67619 0.629214 7.4378 11.4539 7.54645 11.5244L3.88534 13.9651C3.77329 14.04 3.6413 14.0795 3.50651 14.0785C3.37172 14.0775 3.24035 14.036 3.12945 13.9593C3.01855 13.8827 2.93324 13.7746 2.88458 13.6488C2.83593 13.5231 2.82618 13.3857 2.8566 13.2544L3.85845 8.9162L1.02571 6.15474C0.933189 6.06457 0.868608 5.94965 0.839691 5.82373C0.810774 5.69781 0.818745 5.56623 0.862652 5.44473C0.906558 5.32322 0.98454 5.21694 1.08727 5.13859C1.19 5.06025 1.31312 5.01316 1.44191 5.00295L5.27515 4.69836L6.93391 1.02583C6.98687 0.90762 7.0729 0.807267 7.18163 0.736878C7.29036 0.666489 7.41714 0.629072 7.54667 0.629143Z" fill="#8FFF00"/>
</svg>
