<svg width="12" height="12" viewBox="0 0 12 12" xmlns="http://www.w3.org/2000/svg">
<path d="M11.6968 4.84509C11.6629 4.74526 11.6005 4.65755 11.5173 4.59277C11.4341 4.52799 11.3338 4.48899 11.2287 4.48058L8.1547 4.23632L6.82447 1.29171C6.78211 1.19687 6.7132 1.11631 6.62607 1.05977C6.53894 1.00323 6.4373 0.97311 6.33343 0.973053C6.22956 0.972996 6.12789 1.003 6.04069 1.05945C5.9535 1.1159 5.8845 1.19637 5.84204 1.29117L4.51181 4.23632L1.43779 4.48058C1.3345 4.48877 1.23577 4.52653 1.15338 4.58936C1.071 4.65219 1.00847 4.73742 0.973255 4.83486C0.938045 4.9323 0.931653 5.03782 0.954842 5.1388C0.978032 5.23977 1.02982 5.33193 1.10402 5.40425L3.3757 7.61877L2.57228 11.0977C2.54788 11.203 2.5557 11.3133 2.59472 11.4141C2.63374 11.5149 2.70216 11.6016 2.79109 11.6631C2.88003 11.7245 2.98538 11.7578 3.09347 11.7586C3.20156 11.7594 3.30741 11.7278 3.39727 11.6677L6.33326 9.71036L9.26924 11.6677C9.36109 11.7287 9.46941 11.7601 9.57963 11.7576C9.68985 11.7552 9.79668 11.7191 9.88577 11.6542C9.97485 11.5892 10.0419 11.4985 10.0779 11.3943C10.1139 11.2901 10.1172 11.1774 10.0872 11.0713L9.10101 7.62039L11.5469 5.41934C11.707 5.27484 11.7658 5.04945 11.6968 4.84509Z"/>
</svg>
