<svg width="74" height="74" viewBox="0 0 74 74" fill="none" xmlns="http://www.w3.org/2000/svg">
<circle cx="37" cy="37" r="37" fill="#933EEE"/>
<path fill-rule="evenodd" clip-rule="evenodd" d="M36.953 20.1024C32.59 20.1024 29.0544 23.6487 29.0544 28.0204C29.0544 32.394 32.59 35.9383 36.953 35.9383C41.316 35.9383 44.8516 32.394 44.8516 28.0204C44.8516 23.6487 41.316 20.1024 36.953 20.1024ZM15.4734 21.8924C11.1105 21.8924 7.57483 25.4367 7.57483 29.8104C7.57483 34.1841 11.1105 37.7284 15.4734 37.7284C19.8364 37.7284 23.372 34.1841 23.372 29.8104C23.372 25.4367 19.8364 21.8924 15.4734 21.8924ZM58.381 21.8924C54.018 21.8924 50.4824 25.4387 50.4824 29.8104C50.4824 34.1841 54.018 37.7284 58.381 37.7284C62.7439 37.7284 66.2796 34.1841 66.2796 29.8104C66.2796 25.4387 62.7439 21.8924 58.381 21.8924Z" fill="#FFF7E3"/>
</svg>
