<svg width="164" height="40" viewBox="0 0 164 40" fill="none" xmlns="http://www.w3.org/2000/svg">
<path d="M43.0002 14.1753H59.5513V17.2439H53.0345V34.5419H49.4625V17.2439H42.9729L43.0002 14.1753ZM58.8424 19.7965H61.8963V22.6478H61.9508C62.0599 22.2405 62.2508 21.8603 62.5234 21.4801C62.7961 21.0999 63.1233 20.7469 63.5323 20.4482C63.9141 20.1223 64.3503 19.8779 64.8411 19.6878C65.3047 19.4978 65.7955 19.3891 66.2863 19.3891C66.6681 19.3891 66.9407 19.4163 67.0771 19.4163C67.2134 19.4434 67.377 19.4706 67.5133 19.4706V22.5935C67.2952 22.5392 67.0498 22.512 66.8044 22.4848C66.559 22.4577 66.3408 22.4305 66.0954 22.4305C65.5501 22.4305 65.032 22.5392 64.5412 22.7564C64.0504 22.9736 63.6414 23.2995 63.2597 23.7068C62.9052 24.1413 62.6052 24.6573 62.3871 25.2819C62.169 25.9064 62.0599 26.6396 62.0599 27.4543V34.4604H58.7878L58.8424 19.7965ZM82.5103 34.5419H79.2927V32.4781H79.2382C78.8292 33.2384 78.2293 33.8087 77.4386 34.2703C76.6478 34.732 75.8298 34.9492 75.0118 34.9492C73.0758 34.9492 71.6579 34.4875 70.7854 33.51C69.9128 32.5595 69.4766 31.0931 69.4766 29.1651V19.7965H72.7486V28.8392C72.7486 30.1427 72.994 31.066 73.5121 31.5819C74.0029 32.125 74.7119 32.3966 75.6117 32.3966C76.2934 32.3966 76.866 32.288 77.3295 32.0707C77.793 31.8535 78.1748 31.5819 78.4475 31.2289C78.7474 30.8759 78.9383 30.4414 79.0746 29.9526C79.2109 29.4638 79.2655 28.9207 79.2655 28.3504V19.7965H82.5375V34.5419H82.5103ZM88.0728 29.8168C88.1818 30.7673 88.5363 31.419 89.1634 31.8263C89.7906 32.2065 90.5541 32.3966 91.4266 32.3966C91.7266 32.3966 92.081 32.3694 92.4628 32.3151C92.8445 32.2608 93.2263 32.1793 93.5535 32.0436C93.9079 31.9078 94.1806 31.7177 94.3987 31.4461C94.6169 31.1746 94.7259 30.8487 94.6987 30.4414C94.6714 30.0341 94.5351 29.681 94.2351 29.4095C93.9352 29.1379 93.5807 28.9478 93.1445 28.7578C92.7082 28.5948 92.1901 28.459 91.6175 28.3504C91.0449 28.2418 90.4723 28.106 89.8724 27.9702C89.2725 27.8345 88.6726 27.6715 88.1 27.4815C87.5274 27.2914 87.0366 27.047 86.5731 26.6939C86.1368 26.3681 85.7551 25.9607 85.5097 25.4448C85.237 24.9288 85.1006 24.3314 85.1006 23.5711C85.1006 22.7564 85.2915 22.1047 85.7005 21.5616C86.0823 21.0185 86.6003 20.584 87.2002 20.2581C87.8001 19.9322 88.4818 19.6878 89.218 19.5521C89.9542 19.4163 90.6631 19.362 91.3176 19.362C92.081 19.362 92.8172 19.4434 93.4989 19.6064C94.1806 19.7693 94.835 20.0137 95.3804 20.3939C95.953 20.7469 96.4165 21.2357 96.771 21.806C97.1527 22.3762 97.3709 23.0823 97.4799 23.8969H94.0715C93.9079 23.1094 93.5535 22.5935 93.0081 22.3219C92.4355 22.0504 91.8084 21.9146 91.0722 21.9146C90.854 21.9146 90.5541 21.9417 90.2541 21.9689C89.9269 22.0232 89.6543 22.0775 89.3543 22.1861C89.0816 22.2948 88.8362 22.4577 88.6454 22.6478C88.4545 22.8379 88.3454 23.1094 88.3454 23.4353C88.3454 23.8426 88.4818 24.1413 88.7544 24.3857C89.0271 24.6301 89.3816 24.8202 89.8451 25.0103C90.2814 25.1732 90.7995 25.309 91.3721 25.4176C91.9447 25.5263 92.5446 25.662 93.1445 25.7978C93.7443 25.9336 94.3169 26.0965 94.8895 26.2866C95.4622 26.4767 95.9802 26.7211 96.4165 27.0741C96.8528 27.4 97.2345 27.8073 97.5072 28.2961C97.7799 28.7849 97.9162 29.4095 97.9162 30.1155C97.9162 30.9845 97.7253 31.7177 97.3163 32.3423C96.9073 32.9397 96.3892 33.4556 95.7621 33.8358C95.135 34.216 94.3987 34.4876 93.6353 34.6776C92.8445 34.8406 92.081 34.9492 91.3176 34.9492C90.3905 34.9492 89.5179 34.8406 88.7272 34.6233C87.9364 34.4061 87.2275 34.0802 86.6549 33.6729C86.0823 33.2384 85.6187 32.7225 85.2915 32.0707C84.9643 31.4461 84.7734 30.6858 84.7462 29.7897H88.0455V29.8168H88.0728ZM98.8433 19.7965H101.325V15.343H104.597V19.7693H107.542V22.1861H104.597V30.0612C104.597 30.4142 104.624 30.6858 104.651 30.9573C104.678 31.2017 104.76 31.419 104.842 31.5819C104.951 31.7448 105.115 31.8806 105.306 31.9621C105.524 32.0436 105.796 32.0979 106.178 32.0979C106.396 32.0979 106.642 32.0979 106.86 32.0707C107.078 32.0436 107.323 32.0164 107.542 31.9621V34.4876C107.187 34.5419 106.833 34.569 106.478 34.5962C106.124 34.6505 105.796 34.6505 105.415 34.6505C104.542 34.6505 103.86 34.569 103.342 34.4061C102.824 34.2432 102.415 33.9988 102.115 33.7C101.815 33.3742 101.625 32.994 101.515 32.5324C101.406 32.0707 101.352 31.5005 101.325 30.903V22.2133H98.8433V19.7422V19.7965ZM109.832 19.7965H112.913V21.806H112.968C113.431 20.937 114.058 20.3396 114.876 19.9594C115.694 19.5792 116.567 19.3891 117.549 19.3891C118.721 19.3891 119.73 19.5792 120.602 20.0137C121.475 20.421 122.184 20.9641 122.757 21.6973C123.329 22.4034 123.765 23.2452 124.038 24.1956C124.311 25.1461 124.474 26.178 124.474 27.237C124.474 28.2418 124.338 29.1922 124.093 30.1155C123.82 31.0388 123.438 31.8806 122.92 32.5867C122.402 33.2927 121.748 33.863 120.93 34.2975C120.112 34.7319 119.185 34.9492 118.094 34.9492C117.63 34.9492 117.14 34.8949 116.676 34.8134C116.212 34.732 115.749 34.5962 115.313 34.4061C114.876 34.216 114.467 33.9716 114.113 33.6729C113.731 33.3742 113.431 33.0212 113.186 32.641H113.131V40.0001H109.859V19.7965H109.832ZM121.257 27.1827C121.257 26.531 121.175 25.8793 120.984 25.2547C120.821 24.6301 120.548 24.087 120.193 23.5982C119.839 23.1094 119.403 22.7293 118.912 22.4305C118.394 22.1318 117.794 21.9961 117.14 21.9961C115.776 21.9961 114.74 22.4577 114.031 23.4081C113.349 24.3586 112.995 25.6349 112.995 27.2099C112.995 27.9703 113.077 28.6491 113.268 29.2737C113.458 29.8983 113.704 30.4414 114.086 30.903C114.44 31.3647 114.876 31.7177 115.394 31.9892C115.913 32.2608 116.485 32.3966 117.167 32.3966C117.93 32.3966 118.53 32.2337 119.048 31.9349C119.566 31.6362 119.975 31.2289 120.33 30.7673C120.657 30.2785 120.902 29.7354 121.039 29.1108C121.175 28.459 121.257 27.8345 121.257 27.1827ZM127.01 14.1753H130.282V17.2439H127.01V14.1753ZM127.01 19.7965H130.282V34.5419H127.01V19.7965ZM133.2 14.1753H136.472V34.5419H133.2V14.1753ZM146.452 34.9492C145.279 34.9492 144.216 34.7591 143.289 34.3518C142.362 33.9444 141.598 33.4285 140.944 32.7496C140.317 32.0707 139.826 31.2289 139.499 30.2785C139.171 29.328 138.981 28.269 138.981 27.1556C138.981 26.0422 139.144 25.0103 139.499 24.0599C139.826 23.1094 140.317 22.2948 140.944 21.5887C141.571 20.9098 142.362 20.3667 143.289 19.9866C144.216 19.6064 145.279 19.3891 146.452 19.3891C147.624 19.3891 148.688 19.5792 149.615 19.9866C150.542 20.3667 151.305 20.9098 151.96 21.5887C152.587 22.2676 153.078 23.1094 153.405 24.0599C153.732 25.0103 153.923 26.0422 153.923 27.1556C153.923 28.2961 153.759 29.328 153.405 30.2785C153.05 31.2289 152.587 32.0436 151.96 32.7496C151.333 33.4285 150.542 33.9716 149.615 34.3518C148.688 34.7319 147.651 34.9492 146.452 34.9492ZM146.452 32.3694C147.161 32.3694 147.815 32.2065 148.333 31.9078C148.879 31.6091 149.288 31.2017 149.642 30.7129C149.996 30.2241 150.242 29.6539 150.405 29.0565C150.569 28.4319 150.651 27.8073 150.651 27.1556C150.651 26.531 150.569 25.9064 150.405 25.2819C150.242 24.6573 149.996 24.1142 149.642 23.6254C149.288 23.1366 148.851 22.7564 148.333 22.4577C147.788 22.159 147.161 21.9961 146.452 21.9961C145.743 21.9961 145.088 22.159 144.57 22.4577C144.025 22.7564 143.616 23.1637 143.261 23.6254C142.907 24.1142 142.662 24.6573 142.498 25.2819C142.334 25.9064 142.253 26.531 142.253 27.1556C142.253 27.8073 142.334 28.4319 142.498 29.0565C142.662 29.681 142.907 30.2241 143.261 30.7129C143.616 31.2017 144.052 31.6091 144.57 31.9078C145.116 32.2337 145.743 32.3694 146.452 32.3694ZM154.905 19.7965H157.386V15.343H160.658V19.7693H163.603V22.1861H160.658V30.0612C160.658 30.4142 160.685 30.6858 160.712 30.9573C160.74 31.2017 160.822 31.419 160.903 31.5819C161.012 31.7448 161.176 31.8806 161.367 31.9621C161.585 32.0436 161.858 32.0979 162.239 32.0979C162.458 32.0979 162.703 32.0979 162.921 32.0707C163.139 32.0436 163.385 32.0164 163.603 31.9621V34.4876C163.248 34.5419 162.894 34.569 162.539 34.5962C162.185 34.6505 161.858 34.6505 161.476 34.6505C160.603 34.6505 159.922 34.569 159.404 34.4061C158.886 34.2432 158.477 33.9988 158.177 33.7C157.877 33.3742 157.686 32.994 157.577 32.5324C157.468 32.0707 157.413 31.5005 157.386 30.903V22.2133H154.905V19.7422V19.7965Z" fill="#FAFAFA"/>
<path d="M39.1829 14.1751H24.2132L19.6051 0L14.9697 14.1751L0 14.148L12.1066 22.9192L7.4712 37.0943L19.5778 28.3231L31.6844 37.0943L27.0763 22.9192L39.1829 14.1751Z" fill="#00B67A"/>
<path d="M28.1124 26.1233L27.0762 22.9189L19.605 28.3229L28.1124 26.1233Z" fill="#005128"/>
</svg>
