<svg width="54" height="54" viewBox="0 0 54 54" fill="none" xmlns="http://www.w3.org/2000/svg">
<rect width="54" height="54" rx="12.5581" fill="#AF87F8"/>
<path d="M27.0011 16L18.4473 17.056L12 24.8644L27.0011 40L42 24.8644L35.5527 17.056L27.0011 16ZM24.1418 18.3278L20.4478 21.979L20.7039 18.7537L24.1418 18.3278ZM29.8605 18.3278L33.2983 18.7518L33.5544 21.979L29.8605 18.3278ZM27.0011 18.4729L32.4239 23.8313H21.5783L27.0011 18.4729ZM18.2906 20.6117L18.0322 23.8313H15.6321L18.2906 20.6117ZM35.7116 20.6136L38.3701 23.8313H35.97L35.7116 20.6136ZM15.8949 25.7868H18.3899L21.883 31.8307L15.8949 25.7868ZM20.9181 25.7868H33.0841L27.0011 36.3106L20.9181 25.7868ZM35.6123 25.7868H38.1073L32.1192 31.8307L35.6123 25.7868Z" fill="#FAFAFA"/>
</svg>
