<svg width="54" height="54" viewBox="0 0 54 54" fill="none" xmlns="http://www.w3.org/2000/svg">
<rect width="54" height="54" rx="12.5581" fill="#EB5254"/>
<path d="M27 18L26.5817 18.2231L14.5339 24.4701L13 25.251L14.506 26.004V33.5339C13.9726 33.8441 13.6135 34.4089 13.6135 35.0677C13.6135 36.0543 14.4119 36.8526 15.3984 36.8526C16.385 36.8526 17.1833 36.0543 17.1833 35.0677C17.1833 34.4089 16.8242 33.8441 16.2908 33.5339V26.9243L18.0757 27.8446V32.3904C18.0757 32.7844 18.257 33.1399 18.4661 33.3665C18.6753 33.5931 18.9298 33.7291 19.1912 33.8685C19.7176 34.1439 20.3416 34.3391 21.1155 34.51C22.6633 34.8551 24.7271 35.0677 27 35.0677C29.2729 35.0677 31.3367 34.8551 32.8845 34.51C33.6584 34.3391 34.2824 34.1439 34.8088 33.8685C35.0702 33.7291 35.3247 33.5931 35.5339 33.3665C35.743 33.1399 35.9243 32.7844 35.9243 32.3904V27.8446L39.4661 26.0319L41 25.251L39.4661 24.4701L27.4183 18.2231L27 18ZM27 20.008L37.0956 25.251L35.506 26.0598C35.3038 25.8471 35.0598 25.6902 34.8088 25.5578C34.2859 25.2824 33.6584 25.0872 32.8845 24.9163C31.3401 24.5712 29.2834 24.3586 27 24.3586C24.7166 24.3586 22.6599 24.5712 21.1155 24.9163C20.3416 25.0872 19.7141 25.2824 19.1912 25.5578C18.9402 25.6902 18.6962 25.8471 18.494 26.0598L16.9044 25.251L27 20.008ZM27 26.1434C29.1788 26.1434 31.1379 26.3421 32.494 26.6454C33.1703 26.7953 33.7141 26.9696 34 27.1195C34.0906 27.1683 34.1046 27.2032 34.1394 27.2311V30.6335C33.7664 30.4975 33.3586 30.3755 32.8845 30.2709C31.3367 29.9258 29.2729 29.7131 27 29.7131C24.7271 29.7131 22.6633 29.9258 21.1155 30.2709C20.6414 30.3755 20.2336 30.4975 19.8606 30.6335V27.2311C19.8954 27.2032 19.9094 27.1683 20 27.1195C20.2859 26.9696 20.8297 26.7953 21.506 26.6454C22.8621 26.3421 24.8212 26.1434 27 26.1434ZM27 31.498C29.1648 31.498 31.1345 31.6967 32.494 32C33.0588 32.1255 33.4143 32.258 33.7211 32.3904C33.4143 32.5229 33.0588 32.6554 32.494 32.7809C31.1345 33.0842 29.1648 33.2829 27 33.2829C24.8352 33.2829 22.8655 33.0842 21.506 32.7809C20.9412 32.6554 20.5857 32.5229 20.2789 32.3904C20.5857 32.258 20.9412 32.1255 21.506 32C22.8655 31.6967 24.8352 31.498 27 31.498Z" fill="#FAFAFA"/>
</svg>
