<svg width="54" height="54" viewBox="0 0 54 54" fill="none" xmlns="http://www.w3.org/2000/svg">
<rect width="54" height="54" rx="12.5581" fill="#F4B840"/>
<path d="M33.9688 14.0002C33.8164 14.0043 33.6562 14.0248 33.5 14.0659L17.25 18.5633C15.9375 18.9244 15 20.1883 15 21.6163V36.0607C15 37.7882 16.3555 39.2122 18 39.2122H36C37.6445 39.2122 39 37.7882 39 36.0607V22.4042C39 20.6766 37.6445 19.2527 36 19.2527H22.625L34 16.1012V18.2022H36V16.1012C36 14.9194 35.043 13.9838 33.9688 14.0002ZM18 21.3537H36C36.5664 21.3537 37 21.8092 37 22.4042V36.0607C37 36.6557 36.5664 37.1112 36 37.1112H18C17.4336 37.1112 17 36.6557 17 36.0607V22.4042C17 21.8092 17.4336 21.3537 18 21.3537ZM33.5 27.6567C32.6719 27.6567 32 28.3625 32 29.2324C32 30.1024 32.6719 30.8082 33.5 30.8082C34.3281 30.8082 35 30.1024 35 29.2324C35 28.3625 34.3281 27.6567 33.5 27.6567Z" fill="#FAFAFA"/>
</svg>
