<svg width="54" height="54" viewBox="0 0 54 54" fill="none" xmlns="http://www.w3.org/2000/svg">
<rect width="54" height="54" rx="12.5581" fill="#48A8F8"/>
<path d="M26.6186 14L25.8213 15.9061L22.9622 22.6351L15.9794 23.4148L14 23.6459L15.4845 25.0321L20.6804 29.9706L19.2234 37.1906L18.811 39.2122L20.543 38.1725L26.6186 34.4759L32.6942 38.1725L34.4261 39.2122L34.0138 37.1906L32.5567 29.9706L37.7526 25.0321L39.2371 23.6459L37.2577 23.4148L30.2749 22.6351L27.4158 15.9061L26.6186 14ZM26.6186 18.5341L28.8729 23.8769L29.0928 24.3679L29.5876 24.4256L35.1134 25.0321L30.9897 28.9309L30.6048 29.3064L30.7148 29.8262L31.8694 35.5155L27.0584 32.6275L26.6186 32.3387L26.1787 32.6275L21.3677 35.5155L22.5223 29.8262L22.6323 29.3064L22.2474 28.9309L18.1237 25.0321L23.6495 24.4256L24.1443 24.3679L24.3643 23.8769L26.6186 18.5341Z" fill="#FAFAFA"/>
</svg>
