<svg width="54" height="54" viewBox="0 0 54 54" fill="none" xmlns="http://www.w3.org/2000/svg">
<rect width="54" height="54" rx="12.5581" fill="#EE85D6"/>
<path d="M27.9231 15C25.8822 15 24.2308 16.7349 24.2308 18.8788H18.6923V23.7273C16.6514 23.7273 15 25.4621 15 27.6061C15 29.75 16.6514 31.4849 18.6923 31.4849V36.3334H24.2308C24.2308 38.4773 25.8822 40.2122 27.9231 40.2122C29.9639 40.2122 31.6154 38.4773 31.6154 36.3334H37.1538V29.5455H35.3077C34.2079 29.5455 33.4615 28.7614 33.4615 27.6061C33.4615 26.4508 34.2079 25.6667 35.3077 25.6667H37.1538V18.8788H31.6154C31.6154 16.7349 29.9639 15 27.9231 15ZM27.9231 16.9394C29.0228 16.9394 29.7692 17.7235 29.7692 18.8788V20.8182H35.3077V23.7273C33.2668 23.7273 31.6154 25.4621 31.6154 27.6061C31.6154 29.75 33.2668 31.4849 35.3077 31.4849V34.394H29.7692V36.3334C29.7692 37.4887 29.0228 38.2728 27.9231 38.2728C26.8233 38.2728 26.0769 37.4887 26.0769 36.3334V34.394H20.5385V29.5455H18.6923C17.5925 29.5455 16.8462 28.7614 16.8462 27.6061C16.8462 26.4508 17.5925 25.6667 18.6923 25.6667H20.5385V20.8182H26.0769V18.8788C26.0769 17.7235 26.8233 16.9394 27.9231 16.9394Z" fill="#FAFAFA"/>
</svg>
