<svg width="44" height="44" viewBox="0 0 44 44" fill="none" xmlns="http://www.w3.org/2000/svg">
<path d="M5.14087 28.3745C5.14087 28.3745 5.4012 31.5608 5.4617 32.5655C5.54237 33.913 6.06304 35.4182 6.93204 36.4632C8.15854 37.9445 9.6032 38.467 11.5319 38.4707C13.7997 38.4743 30.2905 38.4743 32.5584 38.4707C34.487 38.467 35.9317 37.9445 37.1582 36.4632C38.0272 35.4182 38.5479 33.913 38.6304 32.5655C38.689 31.5608 38.9494 28.3745 38.9494 28.3745" stroke="#7FFF00" stroke-width="2.5" stroke-linecap="round" stroke-linejoin="round"/>
<path d="M15.576 9.77077V9.0906C15.576 6.85394 17.3873 5.0426 19.624 5.0426H24.3577C26.5925 5.0426 28.4057 6.85394 28.4057 9.0906L28.4075 9.77077" stroke="white" stroke-width="2.5" stroke-linecap="round" stroke-linejoin="round"/>
<path d="M21.9908 30.5767V28.2044" stroke="white" stroke-width="2.5" stroke-linecap="round" stroke-linejoin="round"/>
<path fill-rule="evenodd" clip-rule="evenodd" d="M5.0415 15.3801V21.7362C8.55784 24.0554 12.7708 25.6797 17.3945 26.3232C17.9482 24.3047 19.7687 22.8252 21.9815 22.8252C24.1595 22.8252 26.0167 24.3047 26.5337 26.3416C31.1757 25.6981 35.4052 24.0737 38.9398 21.7362V15.3801C38.9398 12.2744 36.441 9.77374 33.3353 9.77374H10.6643C7.55867 9.77374 5.0415 12.2744 5.0415 15.3801Z" stroke="white" stroke-width="2.5" stroke-linecap="round" stroke-linejoin="round"/>
</svg>
